<svg width="20" height="21" viewBox="0 0 20 21" fill="none" xmlns="http://www.w3.org/2000/svg">
<path d="M6.66732 11.4328C6.20708 11.4328 5.83398 11.8059 5.83398 12.2661C5.83398 12.7264 6.20708 13.0994 6.66732 13.0994V11.4328ZM8.33398 13.0994C8.79422 13.0994 9.16732 12.7264 9.16732 12.2661C9.16732 11.8059 8.79422 11.4328 8.33398 11.4328V13.0994ZM6.66732 8.09945C6.20708 8.09945 5.83398 8.47254 5.83398 8.93278C5.83398 9.39302 6.20708 9.76611 6.66732 9.76611V8.09945ZM11.6673 9.76611C12.1276 9.76611 12.5007 9.39302 12.5007 8.93278C12.5007 8.47254 12.1276 8.09945 11.6673 8.09945V9.76611ZM6.66732 4.76611C6.20708 4.76611 5.83398 5.13921 5.83398 5.59945C5.83398 6.05968 6.20708 6.43278 6.66732 6.43278V4.76611ZM11.6673 6.43278C12.1276 6.43278 12.5007 6.05968 12.5007 5.59945C12.5007 5.13921 12.1276 4.76611 11.6673 4.76611V6.43278ZM14.1673 10.1828C14.1673 10.643 14.5404 11.0161 15.0007 11.0161C15.4609 11.0161 15.834 10.643 15.834 10.1828H14.1673ZM8.33398 18.0994C8.79422 18.0994 9.16732 17.7263 9.16732 17.2661C9.16732 16.8059 8.79422 16.4328 8.33398 16.4328V18.0994ZM4.23236 17.0785L4.61651 16.339L4.61651 16.339L4.23236 17.0785ZM3.52163 16.3677L2.78212 16.7519L2.78212 16.7519L3.52163 16.3677ZM14.1023 2.45376L13.7181 3.19327V3.19327L14.1023 2.45376ZM14.813 3.16449L14.0735 3.54863V3.54863L14.813 3.16449ZM4.23236 2.45376L3.84822 1.71425V1.71425L4.23236 2.45376ZM3.52163 3.16449L2.78212 2.78034H2.78212L3.52163 3.16449ZM17.2566 14.522C17.582 14.1966 17.582 13.669 17.2566 13.3435C16.9311 13.0181 16.4035 13.0181 16.0781 13.3435L17.2566 14.522ZM13.0394 16.9715L12.4501 17.5607H12.4501L13.0394 16.9715ZM12.2566 15.0102C11.9311 14.6848 11.4035 14.6848 11.0781 15.0102C10.7526 15.3356 10.7526 15.8633 11.0781 16.1887L12.2566 15.0102ZM6.66732 13.0994H8.33398V11.4328H6.66732V13.0994ZM6.66732 9.76611H11.6673V8.09945H6.66732V9.76611ZM6.66732 6.43278H11.6673V4.76611H6.66732V6.43278ZM6.01732 3.09945H12.3173V1.43278H6.01732V3.09945ZM14.1673 4.94945V10.1828H15.834V4.94945H14.1673ZM8.33398 16.4328H6.01732V18.0994H8.33398V16.4328ZM4.16732 14.5828V4.94945H2.50065V14.5828H4.16732ZM6.01732 16.4328C5.52875 16.4328 5.21329 16.4321 4.97334 16.4122C4.74336 16.3931 4.65835 16.3607 4.61651 16.339L3.84821 17.818C4.1676 17.9839 4.5005 18.0453 4.8354 18.0731C5.16033 18.1001 5.55673 18.0994 6.01732 18.0994V16.4328ZM2.50065 14.5828C2.50065 15.0434 2.49998 15.4398 2.52697 15.7647C2.55478 16.0996 2.61621 16.4325 2.78212 16.7519L4.26114 15.9836C4.2394 15.9418 4.20701 15.8567 4.18791 15.6268C4.16799 15.3868 4.16732 15.0713 4.16732 14.5828H2.50065ZM4.61651 16.339C4.4643 16.2599 4.3402 16.1358 4.26114 15.9836L2.78212 16.7519C3.01931 17.2085 3.39161 17.5808 3.84822 17.818L4.61651 16.339ZM12.3173 3.09945C12.8059 3.09945 13.1213 3.10012 13.3613 3.12004C13.5913 3.13914 13.6763 3.17153 13.7181 3.19327L14.4864 1.71425C14.167 1.54834 13.8341 1.48691 13.4992 1.45909C13.1743 1.43211 12.7779 1.43278 12.3173 1.43278V3.09945ZM15.834 4.94945C15.834 4.48886 15.8347 4.09246 15.8077 3.76753C15.7799 3.43263 15.7184 3.09973 15.5525 2.78034L14.0735 3.54863C14.0952 3.59048 14.1276 3.67549 14.1467 3.90546C14.1666 4.14542 14.1673 4.46088 14.1673 4.94945H15.834ZM13.7181 3.19327C13.8703 3.27233 13.9944 3.39643 14.0735 3.54863L15.5525 2.78034C15.3153 2.32374 14.943 1.95143 14.4864 1.71425L13.7181 3.19327ZM6.01732 1.43278C5.55673 1.43278 5.16033 1.43211 4.8354 1.45909C4.5005 1.48691 4.1676 1.54834 3.84822 1.71425L4.61651 3.19327C4.65835 3.17153 4.74336 3.13914 4.97334 3.12004C5.21329 3.10012 5.52875 3.09945 6.01732 3.09945V1.43278ZM4.16732 4.94945C4.16732 4.46088 4.16799 4.14542 4.18791 3.90547C4.20701 3.67549 4.2394 3.59048 4.26114 3.54863L2.78212 2.78034C2.61621 3.09973 2.55478 3.43263 2.52697 3.76753C2.49998 4.09246 2.50065 4.48886 2.50065 4.94945H4.16732ZM3.84822 1.71425C3.39161 1.95144 3.01931 2.32374 2.78212 2.78034L4.26114 3.54863C4.3402 3.39643 4.4643 3.27233 4.61651 3.19327L3.84822 1.71425ZM14.2179 17.5607L17.2566 14.522L16.0781 13.3435L13.0394 16.3822L14.2179 17.5607ZM13.6286 16.3822L12.2566 15.0102L11.0781 16.1887L12.4501 17.5607L13.6286 16.3822ZM13.0394 16.3822C13.2021 16.2195 13.4659 16.2195 13.6286 16.3822L12.4501 17.5607C12.9383 18.0489 13.7297 18.0489 14.2179 17.5607L13.0394 16.3822Z" fill="#4B5565"/>
</svg>
