<svg width="135" height="76" viewBox="0 0 135 76" fill="none" xmlns="http://www.w3.org/2000/svg">
<path fill-rule="evenodd" clip-rule="evenodd" d="M108.482 19.3496C110.553 19.3496 112.232 21.0285 112.232 23.0996C112.232 25.1707 110.553 26.8496 108.482 26.8496H87.0533C89.1244 26.8496 90.8033 28.5285 90.8033 30.5996C90.8033 32.6707 89.1244 34.3496 87.0533 34.3496H98.839C100.91 34.3496 102.589 36.0285 102.589 38.0996C102.589 40.1707 100.91 41.8496 98.839 41.8496H93.3887C90.7773 41.8496 88.6604 43.5285 88.6604 45.5996C88.6604 46.9803 89.7319 48.2303 91.8747 49.3496C93.9458 49.3496 95.6247 51.0285 95.6247 53.0996C95.6247 55.1707 93.9458 56.8496 91.8747 56.8496H47.4104C45.3394 56.8496 43.6604 55.1707 43.6604 53.0996C43.6604 51.0285 45.3394 49.3496 47.4104 49.3496H26.5176C24.4465 49.3496 22.7676 47.6707 22.7676 45.5996C22.7676 43.5285 24.4465 41.8496 26.5176 41.8496H47.9461C50.0172 41.8496 51.6961 40.1707 51.6961 38.0996C51.6961 36.0285 50.0172 34.3496 47.9461 34.3496H34.5533C32.4822 34.3496 30.8033 32.6707 30.8033 30.5996C30.8033 28.5285 32.4822 26.8496 34.5533 26.8496H55.9819C53.9108 26.8496 52.2319 25.1707 52.2319 23.0996C52.2319 21.0285 53.9108 19.3496 55.9819 19.3496H108.482ZM108.482 34.3496C110.553 34.3496 112.232 36.0285 112.232 38.0996C112.232 40.1707 110.553 41.8496 108.482 41.8496C106.411 41.8496 104.732 40.1707 104.732 38.0996C104.732 36.0285 106.411 34.3496 108.482 34.3496Z" fill="#F3F7FF"/>
<path d="M60.2002 58.9323L70.6169 58.9323C76.5094 58.9323 79.4557 58.9323 81.2863 57.1C83.1169 55.2677 83.1169 52.3187 83.1169 46.4207V32.8664C83.1169 26.9683 83.1169 24.0193 81.2863 22.187C79.9491 20.8486 78.0166 20.4879 74.7754 20.3906H56.0417C52.8004 20.4879 50.8679 20.8486 49.5308 22.187C47.7002 24.0193 47.7002 26.9683 47.7002 32.8664V46.4207C47.7002 52.3187 47.7002 55.2677 49.5308 57.1C51.3614 58.9323 54.3076 58.9323 60.2002 58.9323Z" fill="white"/>
<path d="M56.0332 20.9115C56.0332 18.8979 57.6655 17.2656 59.679 17.2656H71.1374C73.1509 17.2656 74.7832 18.8979 74.7832 20.9115C74.7832 22.925 73.1509 24.5573 71.1374 24.5573H59.679C57.6655 24.5573 56.0332 22.925 56.0332 20.9115Z" fill="white"/>
<path d="M79.9997 44.3486L79.9997 58.932M87.2913 51.6403L72.708 51.6403" stroke="#20B486" stroke-width="2.5" stroke-linecap="round"/>
<path d="M57.083 46.4323H65.4163M57.083 36.0156H73.7497" stroke="#20B486" stroke-width="2.5" stroke-linecap="round"/>
<path d="M56.0417 20.3906C52.8004 20.4879 50.8679 20.8486 49.5308 22.187C47.7002 24.0193 47.7002 26.9683 47.7002 32.8664L47.7002 46.4206C47.7002 52.3187 47.7002 55.2677 49.5308 57.1C51.3614 58.9323 54.3076 58.9323 60.2002 58.9323H66.4583M74.7754 20.3906C78.0166 20.4879 79.9491 20.8486 81.2863 22.187C83.1169 24.0193 83.1169 26.9683 83.1169 32.8664V38.099" stroke="#20B486" stroke-width="2.5" stroke-linecap="round"/>
<path d="M56.0332 20.9115C56.0332 18.8979 57.6655 17.2656 59.679 17.2656H71.1374C73.1509 17.2656 74.7832 18.8979 74.7832 20.9115C74.7832 22.925 73.1509 24.5573 71.1374 24.5573H59.679C57.6655 24.5573 56.0332 22.925 56.0332 20.9115Z" stroke="#20B486" stroke-width="2.5" stroke-linejoin="round"/>
</svg>
