<svg width="15" height="15" viewBox="0 0 15 15" fill="none" xmlns="http://www.w3.org/2000/svg">
<g clip-path="url(#clip0_652_3224)">
<path d="M12.75 6.43311C12.75 10.5164 7.5 14.0164 7.5 14.0164C7.5 14.0164 2.25 10.5164 2.25 6.43311C2.25 5.04072 2.80312 3.70536 3.78769 2.72079C4.77226 1.73623 6.10761 1.18311 7.5 1.18311C8.89239 1.18311 10.2277 1.73623 11.2123 2.72079C12.1969 3.70536 12.75 5.04072 12.75 6.43311Z" stroke="#4B5565" stroke-width="1.16667" stroke-linecap="round" stroke-linejoin="round"/>
<path d="M7.5 8.18311C8.4665 8.18311 9.25 7.3996 9.25 6.43311C9.25 5.46661 8.4665 4.68311 7.5 4.68311C6.5335 4.68311 5.75 5.46661 5.75 6.43311C5.75 7.3996 6.5335 8.18311 7.5 8.18311Z" stroke="#4B5565" stroke-width="1.16667" stroke-linecap="round" stroke-linejoin="round"/>
</g>
<defs>
<clipPath id="clip0_652_3224">
<rect width="14" height="14" fill="white" transform="translate(0.5 0.599609)"/>
</clipPath>
</defs>
</svg>
