<svg width="14" height="15" viewBox="0 0 14 15" fill="none" xmlns="http://www.w3.org/2000/svg">
<path d="M7.00065 4.09977V7.59948M7.00065 7.59948L9.33398 9.34977M7.00065 7.59948C7.00065 7.59966 7.0005 7.59937 7.00065 7.59948ZM0.750429 9.05811C0.641548 8.5896 0.583984 8.10141 0.583984 7.59977C0.583984 7.09814 0.641548 6.60994 0.750429 6.14144M5.83398 1.28891C6.21231 1.21942 6.60224 1.18311 7.00065 1.18311C10.5445 1.18311 13.4173 4.05595 13.4173 7.59977C13.4173 11.1436 10.5445 14.0164 7.00065 14.0164C6.60224 14.0164 6.21231 13.9801 5.83398 13.9106M3.79232 2.04154C2.9171 2.54783 2.17256 3.2549 1.62169 4.09977M1.62169 11.0998C2.17256 11.9446 2.9171 12.6517 3.79232 13.158" stroke="#4B5565" stroke-width="1.16667" stroke-linecap="round"/>
</svg>
