<svg width="22" height="22" viewBox="0 0 22 22" fill="none" xmlns="http://www.w3.org/2000/svg">
<path d="M14.6653 8.25V6.41667C14.6653 4.39162 13.0237 2.75 10.9987 2.75C10.0687 2.75 9.21969 3.09617 8.57331 3.66667M7.51536 19.25H14.482C15.5088 19.25 16.0222 19.25 16.4143 19.0502C16.7593 18.8744 17.0398 18.5939 17.2155 18.249C17.4154 17.8568 17.4154 17.3434 17.4154 16.3167V11.1833C17.4154 10.1566 17.4154 9.64319 17.2155 9.25102C17.0398 8.90605 16.7593 8.62559 16.4143 8.44982C16.0222 8.25 15.5088 8.25 14.482 8.25H7.51536C6.4886 8.25 5.97522 8.25 5.58305 8.44982C5.23808 8.62559 4.95762 8.90605 4.78185 9.25102C4.58203 9.64319 4.58203 10.1566 4.58203 11.1833V16.3167C4.58203 17.3434 4.58203 17.8568 4.78185 18.249C4.95762 18.5939 5.23808 18.8744 5.58305 19.0502C5.97522 19.25 6.4886 19.25 7.51536 19.25Z" stroke="black" stroke-width="1.83333" stroke-linecap="round"/>
</svg>
