<svg width="18" height="17" viewBox="0 0 18 17" fill="none" xmlns="http://www.w3.org/2000/svg">
<path d="M15.8024 16.6081C16.0952 16.901 16.5701 16.901 16.863 16.6081C17.1559 16.3152 17.1559 15.8404 16.863 15.5475L15.8024 16.6081ZM4.30299 9.38796C4.14916 9.77255 4.33622 10.209 4.72081 10.3629C5.10539 10.5167 5.54187 10.3296 5.69571 9.94505L4.30299 9.38796ZM6.17115 6.73701L6.8675 7.01555L6.17115 6.73701ZM6.68064 6.59414L7.13064 5.99414L6.68064 6.59414ZM8.65139 8.0722L9.10139 7.4722L9.10139 7.4722L8.65139 8.0722ZM9.16088 7.92933L8.46453 7.65079V7.65079L9.16088 7.92933ZM11.029 5.27838C11.1829 4.89379 10.9958 4.45731 10.6112 4.30348C10.2266 4.14964 9.79016 4.33671 9.63632 4.72129L11.029 5.27838ZM12.9944 7.45035C12.9944 10.3715 10.6264 12.7396 7.70523 12.7396V14.2396C11.4548 14.2396 14.4944 11.1999 14.4944 7.45035H12.9944ZM7.70523 12.7396C4.78408 12.7396 2.41602 10.3715 2.41602 7.45035H0.916016C0.916016 11.1999 3.95565 14.2396 7.70523 14.2396V12.7396ZM2.41602 7.45035C2.41602 4.5292 4.78408 2.16113 7.70523 2.16113V0.661133C3.95565 0.661133 0.916016 3.70077 0.916016 7.45035H2.41602ZM7.70523 2.16113C10.6264 2.16113 12.9944 4.5292 12.9944 7.45035H14.4944C14.4944 3.70077 11.4548 0.661133 7.70523 0.661133V2.16113ZM11.4886 12.2944L15.8024 16.6081L16.863 15.5475L12.5493 11.2337L11.4886 12.2944ZM5.69571 9.94505L6.8675 7.01555L5.47479 6.45847L4.30299 9.38796L5.69571 9.94505ZM6.23064 7.19414L8.20139 8.6722L9.10139 7.4722L7.13064 5.99414L6.23064 7.19414ZM9.85724 8.20788L11.029 5.27838L9.63632 4.72129L8.46453 7.65079L9.85724 8.20788ZM8.20139 8.6722C8.77168 9.09992 9.59249 8.86975 9.85724 8.20788L8.46453 7.65079C8.56635 7.39622 8.88205 7.3077 9.10139 7.4722L8.20139 8.6722ZM6.8675 7.01555C6.76568 7.27012 6.44998 7.35864 6.23064 7.19414L7.13064 5.99414C6.56035 5.56642 5.73954 5.79659 5.47479 6.45847L6.8675 7.01555Z" fill="#858C95"/>
</svg>
