<svg width="21" height="21" viewBox="0 0 21 21" fill="none" xmlns="http://www.w3.org/2000/svg">
<path d="M9.66667 13.8334C9.66667 14.2936 10.0398 14.6667 10.5 14.6667C10.9602 14.6667 11.3333 14.2936 11.3333 13.8334H9.66667ZM11.3333 4.6667C11.3333 4.20647 10.9602 3.83337 10.5 3.83337C10.0398 3.83337 9.66667 4.20647 9.66667 4.6667L11.3333 4.6667ZM13.2441 6.92263C13.5695 7.24806 14.0972 7.24806 14.4226 6.92263C14.748 6.59719 14.748 6.06955 14.4226 5.74411L13.2441 6.92263ZM11.0893 3.58929L10.5 4.17855L11.0893 3.58929ZM9.91074 3.58929L10.5 4.17855L10.5 4.17855L9.91074 3.58929ZM6.57741 5.74411C6.25197 6.06955 6.25197 6.59719 6.57741 6.92263C6.90285 7.24806 7.43049 7.24806 7.75592 6.92263L6.57741 5.74411ZM3.83333 13.8334C3.83333 13.3731 3.46024 13 3 13C2.53976 13 2.16667 13.3731 2.16667 13.8334H3.83333ZM18.8333 13.8334C18.8333 13.3731 18.4602 13 18 13C17.5398 13 17.1667 13.3731 17.1667 13.8334H18.8333ZM16.635 17.7276L16.2567 16.985H16.2566L16.635 17.7276ZM17.7275 16.635L18.47 17.0133L17.7275 16.635ZM3.27248 16.635L2.52998 17.0133L3.27248 16.635ZM4.36502 17.7276L3.9867 18.4701H3.9867L4.36502 17.7276ZM11.3333 13.8334L11.3333 4.6667L9.66667 4.6667L9.66667 13.8334H11.3333ZM14.4226 5.74411L11.6785 3.00004L10.5 4.17855L13.2441 6.92263L14.4226 5.74411ZM9.32149 3.00004L6.57741 5.74411L7.75592 6.92263L10.5 4.17855L9.32149 3.00004ZM11.6785 3.00004C11.0276 2.34916 9.97236 2.34916 9.32149 3.00004L10.5 4.17855L10.5 4.17855L11.6785 3.00004ZM2.16667 13.8334V14H3.83333V13.8334H2.16667ZM7 18.8334H14V17.1667H7V18.8334ZM18.8333 14V13.8334H17.1667V14H18.8333ZM14 18.8334C14.6863 18.8334 15.2512 18.834 15.7099 18.7965C16.1783 18.7583 16.6089 18.6761 17.0133 18.4701L16.2566 16.985C16.1263 17.0515 15.9395 17.1056 15.5741 17.1354C15.1991 17.1661 14.7138 17.1667 14 17.1667V18.8334ZM17.1667 14C17.1667 14.7139 17.166 15.1991 17.1354 15.5742C17.1055 15.9395 17.0514 16.1264 16.985 16.2567L18.47 17.0133C18.6761 16.6089 18.7582 16.1783 18.7965 15.7099C18.834 15.2512 18.8333 14.6864 18.8333 14H17.1667ZM17.0133 18.4701C17.6405 18.1505 18.1504 17.6405 18.47 17.0133L16.985 16.2567C16.8252 16.5703 16.5703 16.8253 16.2567 16.985L17.0133 18.4701ZM2.16667 14C2.16667 14.6864 2.16602 15.2512 2.20349 15.7099C2.24177 16.1783 2.3239 16.6089 2.52998 17.0133L4.01499 16.2567C3.94858 16.1264 3.89448 15.9395 3.86463 15.5742C3.83398 15.1991 3.83333 14.7139 3.83333 14H2.16667ZM7 17.1667C6.28618 17.1667 5.80094 17.1661 5.42586 17.1354C5.06052 17.1056 4.87368 17.0515 4.74335 16.985L3.9867 18.4701C4.39114 18.6761 4.82173 18.7583 5.29014 18.7965C5.74883 18.834 6.31368 18.8334 7 18.8334V17.1667ZM2.52998 17.0133C2.84956 17.6405 3.35949 18.1505 3.9867 18.4701L4.74335 16.985C4.42975 16.8253 4.17478 16.5703 4.01499 16.2567L2.52998 17.0133Z" fill="#0F2043"/>
</svg>
