<svg width="40" height="40" viewBox="0 0 40 40" fill="none" xmlns="http://www.w3.org/2000/svg">
<path fill-rule="evenodd" clip-rule="evenodd" d="M20.3007 10.079H12.4604V7.69804H20.3007L19.1583 6.55571C18.6934 6.0908 18.6934 5.33703 19.1583 4.87212C19.6232 4.40721 20.377 4.40721 20.8419 4.87212L24.0165 8.04672C24.4814 8.51163 24.4814 9.2654 24.0165 9.73031L20.8419 12.9049C20.377 13.3698 19.6232 13.3698 19.1583 12.9049C18.6934 12.44 18.6934 11.6862 19.1583 11.2213L20.3007 10.079ZM33.444 19.1578L32.3017 20.3002V12.4599H29.9207V20.3002L28.7784 19.1578C28.3135 18.6929 27.5597 18.6929 27.0948 19.1578C26.6299 19.6227 26.6299 20.3765 27.0948 20.8414L30.2694 24.016C30.5019 24.2485 30.8066 24.3647 31.1112 24.3647C31.4159 24.3647 31.7206 24.2485 31.953 24.016L35.1276 20.8414C35.5925 20.3765 35.5925 19.6227 35.1276 19.1578C34.6627 18.6929 33.9089 18.6929 33.444 19.1578ZM20.8419 33.4435L19.6996 32.3012H27.5398V29.9203H19.6996L20.8419 28.7779C21.3068 28.313 21.3068 27.5593 20.8419 27.0943C20.377 26.6294 19.6232 26.6294 19.1583 27.0943L15.9837 30.2689C15.5188 30.7339 15.5188 31.4876 15.9837 31.9525L19.1583 35.1271C19.6232 35.592 20.377 35.592 20.8419 35.1271C21.3068 34.6622 21.3068 33.9085 20.8419 33.4435ZM6.5562 20.8414L7.69853 19.6991V27.5393H10.0795V19.6991L11.2218 20.8414C11.6867 21.3063 12.4405 21.3063 12.9054 20.8414C13.3703 20.3765 13.3703 19.6227 12.9054 19.1578L9.7308 15.9832C9.26589 15.5183 8.51212 15.5183 8.04721 15.9832L4.87261 19.1578C4.4077 19.6227 4.4077 20.3765 4.87261 20.8414C5.33752 21.3063 6.09129 21.3063 6.5562 20.8414Z" fill="#0F2043" fill-opacity="0.5"/>
<path fill-rule="evenodd" clip-rule="evenodd" d="M14.4446 12.0641V5.71494C14.4446 4.39997 13.3786 3.33398 12.0637 3.33398H5.71445C4.39948 3.33398 3.3335 4.39997 3.3335 5.71494V12.0641C3.3335 13.3791 4.39948 14.4451 5.71445 14.4451H12.0637C13.3786 14.4451 14.4446 13.3791 14.4446 12.0641ZM12.0637 25.5562H5.71445C4.39948 25.5562 3.3335 26.6222 3.3335 27.9372V34.2864C3.3335 35.6013 4.39948 36.6673 5.71445 36.6673H12.0637C13.3786 36.6673 14.4446 35.6013 14.4446 34.2864V27.9372C14.4446 26.6222 13.3786 25.5562 12.0637 25.5562ZM34.2859 14.4451H27.9367C26.6217 14.4451 25.5557 13.3791 25.5557 12.0641V5.71494C25.5557 4.39997 26.6217 3.33398 27.9367 3.33398H34.2859C35.6008 3.33398 36.6668 4.39997 36.6668 5.71494V12.0641C36.6668 13.3791 35.6008 14.4451 34.2859 14.4451ZM25.5557 27.9372V34.2864C25.5557 35.6013 26.6217 36.6673 27.9367 36.6673H34.2859C35.6008 36.6673 36.6668 35.6013 36.6668 34.2864V27.9372C36.6668 26.6222 35.6008 25.5562 34.2859 25.5562H27.9367C26.6217 25.5562 25.5557 26.6222 25.5557 27.9372Z" fill="#0F2043"/>
</svg>
