<svg width="40" height="40" viewBox="0 0 40 40" fill="none" xmlns="http://www.w3.org/2000/svg">
<path d="M25.5557 27.1437V34.2866C25.5557 35.6015 24.4897 36.6675 23.1748 36.6675H5.71445C4.39948 36.6675 3.3335 35.6015 3.3335 34.2866V16.8263C3.3335 15.5113 4.39948 14.4453 5.71445 14.4453H12.8573V23.1755C12.8573 25.3671 14.634 27.1437 16.8256 27.1437H25.5557Z" fill="#0F2043" fill-opacity="0.5"/>
<path fill-rule="evenodd" clip-rule="evenodd" d="M16.8253 3.33398H34.2856C35.6006 3.33398 36.6666 4.39997 36.6666 5.71494V23.1753C36.6666 24.4902 35.6006 25.5562 34.2856 25.5562H16.8253C15.5103 25.5562 14.4443 24.4902 14.4443 23.1753V5.71494C14.4443 4.39997 15.5103 3.33398 16.8253 3.33398Z" fill="#0F2043"/>
</svg>
