<svg width="40" height="40" viewBox="0 0 40 40" fill="none" xmlns="http://www.w3.org/2000/svg">
<path fill-rule="evenodd" clip-rule="evenodd" d="M5.71445 3.33398H24.7621C26.077 3.33398 27.143 4.39997 27.143 5.71494V24.7626C27.143 26.0775 26.077 27.1435 24.7621 27.1435H5.71445C4.39948 27.1435 3.3335 26.0775 3.3335 24.7626V5.71494C3.3335 4.39997 4.39948 3.33398 5.71445 3.33398ZM33.4922 12.8578H34.2859C35.6008 12.8578 36.6668 13.9238 36.6668 15.2387V34.2864C36.6668 35.6013 35.6008 36.6673 34.2859 36.6673H15.2383C13.9233 36.6673 12.8573 35.6013 12.8573 34.2864V33.4927H29.524C31.7156 33.4927 33.4922 31.7161 33.4922 29.5245V12.8578Z" fill="#0F2043"/>
<path d="M28.7301 8.0957H29.5238C30.8388 8.0957 31.9047 9.16169 31.9047 10.4767V29.5243C31.9047 30.8392 30.8388 31.9052 29.5238 31.9052H10.4762C9.1612 31.9052 8.09521 30.8392 8.09521 29.5243V28.7306H24.7619C26.9535 28.7306 28.7301 26.954 28.7301 24.7624V8.0957Z" fill="#0F2043" fill-opacity="0.5"/>
</svg>
