<svg width="18" height="19" viewBox="0 0 18 19" fill="none" xmlns="http://www.w3.org/2000/svg">
<path d="M9 4.69922V9.19884M9 9.19884L12 11.4492M9 9.19884C9 9.19908 8.99981 9.1987 9 9.19884ZM0.964001 11.0742C0.82401 10.4719 0.75 9.84418 0.75 9.19922C0.75 8.55426 0.82401 7.92658 0.964001 7.32422M7.5 1.08525C7.98641 0.995904 8.48776 0.949219 9 0.949219C13.5563 0.949219 17.25 4.64287 17.25 9.19922C17.25 13.7556 13.5563 17.4492 9 17.4492C8.48776 17.4492 7.98641 17.4025 7.5 17.3132M4.875 2.05292C3.74972 2.70386 2.79246 3.61295 2.0842 4.69922M2.0842 13.6992C2.79246 14.7855 3.74972 15.6946 4.875 16.3455" stroke="#2AA63C" stroke-width="1.5" stroke-linecap="round"/>
</svg>
