<svg width="18" height="18" viewBox="0 0 18 18" fill="none" xmlns="http://www.w3.org/2000/svg">
<path d="M9 4.5V8.99963M9 8.99963L12 11.25M9 8.99963C9 8.99986 8.99981 8.99948 9 8.99963ZM0.964001 10.875C0.82401 10.2726 0.75 9.64496 0.75 9C0.75 8.35504 0.82401 7.72736 0.964001 7.125M7.5 0.886032C7.98641 0.796685 8.48776 0.75 9 0.75C13.5563 0.75 17.25 4.44365 17.25 9C17.25 13.5563 13.5563 17.25 9 17.25C8.48776 17.25 7.98641 17.2033 7.5 17.114M4.875 1.8537C3.74972 2.50464 2.79246 3.41374 2.0842 4.5M2.0842 13.5C2.79246 14.5863 3.74972 15.4954 4.875 16.1463" stroke="#FCB455" stroke-width="1.5" stroke-linecap="round"/>
</svg>
