<svg width="90" height="33" viewBox="0 0 90 33" fill="none" xmlns="http://www.w3.org/2000/svg">
<path d="M35.6462 26.2808C34.3982 26.2808 33.2438 26.0546 32.183 25.6022C31.1222 25.1498 30.194 24.518 29.3984 23.7068C28.6028 22.8956 27.9788 21.944 27.5264 20.852C27.0896 19.76 26.8712 18.5666 26.8712 17.2718C26.8712 15.977 27.0818 14.7836 27.503 13.6916C27.9398 12.584 28.5482 11.6324 29.3282 10.8368C30.1238 10.0256 31.052 9.4016 32.1128 8.9648C33.1736 8.5124 34.328 8.2862 35.576 8.2862C36.824 8.2862 37.9394 8.4968 38.9222 8.918C39.9206 9.3392 40.763 9.9008 41.4494 10.6028C42.1358 11.2892 42.6272 12.0458 42.9236 12.8726L40.0922 14.2298C39.7646 13.325 39.2108 12.5918 38.4308 12.0302C37.6508 11.4686 36.6992 11.1878 35.576 11.1878C34.484 11.1878 33.5168 11.4452 32.6744 11.96C31.8476 12.4748 31.2002 13.1846 30.7322 14.0894C30.2798 14.9942 30.0536 16.055 30.0536 17.2718C30.0536 18.4886 30.2876 19.5572 30.7556 20.4776C31.2392 21.3824 31.9022 22.0922 32.7446 22.607C33.587 23.1218 34.5542 23.3792 35.6462 23.3792C36.5354 23.3792 37.3544 23.2076 38.1032 22.8644C38.852 22.5056 39.4526 22.0064 39.905 21.3668C40.3574 20.7116 40.5836 19.9394 40.5836 19.0502V17.7164L42.0344 18.98H35.576V16.289H43.766V18.044C43.766 19.3856 43.5398 20.5712 43.0874 21.6008C42.635 22.6304 42.0188 23.4962 41.2388 24.1982C40.4744 24.8846 39.6086 25.4072 38.6414 25.766C37.6742 26.1092 36.6758 26.2808 35.6462 26.2808ZM46.2842 26V8.567H49.4666V26H46.2842ZM52.8198 26V8.567H59.3016C60.4872 8.567 61.5324 8.7854 62.4372 9.2222C63.3576 9.6434 64.0752 10.2674 64.59 11.0942C65.1048 11.9054 65.3622 12.896 65.3622 14.066C65.3622 15.2672 65.0736 16.289 64.4964 17.1314C63.9348 17.9738 63.1704 18.5978 62.2032 19.0034L66.2046 26H62.601L58.3188 18.3482L60.378 19.565H56.0022V26H52.8198ZM56.0022 16.757H59.3484C59.9256 16.757 60.4248 16.6478 60.846 16.4294C61.2672 16.1954 61.5948 15.8756 61.8288 15.47C62.0628 15.0644 62.1798 14.5964 62.1798 14.066C62.1798 13.52 62.0628 13.052 61.8288 12.662C61.5948 12.2564 61.2672 11.9444 60.846 11.726C60.4248 11.492 59.9256 11.375 59.3484 11.375H56.0022V16.757ZM68.2903 26V8.567H79.8733V11.375H71.4727V15.8444H79.4053V18.6524H71.4727V23.192H79.8733V26H68.2903ZM83.4003 26V22.724H86.4891V26H83.4003Z" fill="#110B08"/>
<path d="M14.6427 9.92549C14.7215 8.9345 13.9769 8.05023 12.988 8.15193C11.5917 8.29553 10.2349 8.73517 9.01077 9.44954C7.26554 10.468 5.87377 11.9962 5.02237 13.8287C4.17098 15.6613 3.90075 17.7105 4.24796 19.7011C4.59518 21.6917 5.54321 23.5285 6.96474 24.9646C8.38627 26.4007 10.2132 27.3674 12.2002 27.7349C14.1872 28.1024 16.239 27.8531 18.0802 27.0204C19.9213 26.1878 21.4636 24.8117 22.4998 23.0769C23.2266 21.8602 23.6801 20.5078 23.8379 19.1131C23.9497 18.1253 23.0731 17.3717 22.0814 17.4404L21.2599 17.4973C20.2681 17.5659 19.549 18.4446 19.2938 19.4054C19.1637 19.8956 18.9654 20.3681 18.7023 20.8085C18.1291 21.7681 17.2759 22.5294 16.2574 22.99C15.2389 23.4506 14.1039 23.5885 13.0047 23.3852C11.9055 23.1819 10.8949 22.6471 10.1085 21.8527C9.32214 21.0583 8.7977 20.0422 8.60562 18.941C8.41355 17.8399 8.56304 16.7063 9.03402 15.6925C9.505 14.6788 10.2749 13.8334 11.2403 13.27C11.6834 13.0114 12.1579 12.8179 12.6493 12.6928C13.6127 12.4475 14.4987 11.7373 14.5775 10.7463L14.6427 9.92549Z" fill="#FA6444"/>
</svg>
