<svg width="21" height="20" viewBox="0 0 21 20" fill="none" xmlns="http://www.w3.org/2000/svg">
<path d="M18.2434 18.9229C18.5689 19.2484 19.0965 19.2484 19.4219 18.9229C19.7474 18.5975 19.7474 18.0698 19.4219 17.7444L18.2434 18.9229ZM15.0582 8.52974C15.0582 11.8597 12.3587 14.5591 9.02876 14.5591V16.2258C13.2792 16.2258 16.7248 12.7802 16.7248 8.52974H15.0582ZM9.02876 14.5591C5.69881 14.5591 2.99935 11.8597 2.99935 8.52974H1.33268C1.33268 12.7802 4.77833 16.2258 9.02876 16.2258V14.5591ZM2.99935 8.52974C2.99935 5.19978 5.69881 2.50033 9.02876 2.50033V0.833659C4.77833 0.833659 1.33268 4.27931 1.33268 8.52974H2.99935ZM9.02876 2.50033C12.3587 2.50033 15.0582 5.19978 15.0582 8.52974H16.7248C16.7248 4.27931 13.2792 0.833659 9.02876 0.833659V2.50033ZM13.3415 14.021L18.2434 18.9229L19.4219 17.7444L14.52 12.8424L13.3415 14.021Z" fill="#007AFF"/>
</svg>
