<svg width="24" height="21" viewBox="0 0 24 21" fill="none" xmlns="http://www.w3.org/2000/svg">
<path d="M12 0C9.57202 -0.000732422 7.20068 0.735107 5.19971 2.1106C3.19849 3.48584 1.66187 5.43579 0.792236 7.70312C-0.0771484 9.97021 -0.238525 12.4478 0.329834 14.8083C0.898193 17.1692 2.16919 19.302 3.9751 20.925C4.72754 19.4431 5.87573 18.1987 7.29224 17.3293C8.70874 16.46 10.3381 16 12 16C11.0112 16 10.0444 15.7068 9.22217 15.1575C8.3999 14.6079 7.75903 13.8271 7.38062 12.9133C7.0022 11.9998 6.90332 10.9944 7.09619 10.0247C7.28906 9.05469 7.76538 8.16382 8.4646 7.46436C9.16382 6.76514 10.0547 6.28906 11.0247 6.09619C11.9946 5.90308 13 6.0022 13.9136 6.38062C14.8271 6.75903 15.6082 7.3999 16.1575 8.22217C16.7068 9.04443 17 10.011 17 11C17 12.3262 16.4734 13.5979 15.5356 14.5356C14.5979 15.4731 13.3262 16 12 16C13.6621 16 15.2915 16.46 16.708 17.3293C18.1245 18.1987 19.2727 19.4431 20.0251 20.925C21.8311 19.302 23.1021 17.1692 23.6704 14.8083C24.2385 12.4478 24.0774 9.97021 23.2078 7.70312C22.3384 5.43579 20.8015 3.48584 18.8005 2.1106C16.7996 0.735107 14.4282 -0.000732422 12 0Z" fill="black" fill-opacity="0.1"/>
</svg>
