<svg width="20" height="20" viewBox="0 0 20 20" fill="none" xmlns="http://www.w3.org/2000/svg">
<path d="M13.7707 4.5398C12.8169 3.62742 11.4778 3.125 10 3.125C8.52223 3.125 7.18313 3.62742 6.2293 4.5398C5.22063 5.50461 4.6875 6.85242 4.6875 8.4375C4.6875 11.061 6.14258 12.6316 6.76824 13.1852C6.80167 13.2146 6.82847 13.2507 6.84688 13.2913C6.86528 13.3318 6.87487 13.3758 6.875 13.4204V15.3125C6.875 15.3535 6.88308 15.3942 6.89878 15.4321C6.91449 15.47 6.93751 15.5045 6.96652 15.5335L7.5 16.067V16.875C7.41712 16.875 7.33763 16.9079 7.27903 16.9665C7.22042 17.0251 7.1875 17.1046 7.1875 17.1875C7.1875 17.2704 7.22042 17.3499 7.27903 17.4085C7.33763 17.4671 7.41712 17.5 7.5 17.5V18.125C7.5 18.166 7.50808 18.2067 7.52378 18.2446C7.53949 18.2825 7.56251 18.317 7.59152 18.346L8.52902 19.2835C8.55804 19.3125 8.59249 19.3355 8.63041 19.3512C8.66832 19.3669 8.70896 19.375 8.75 19.375H11.25C11.291 19.375 11.3317 19.3669 11.3696 19.3512C11.4075 19.3355 11.442 19.3125 11.471 19.2835L12.4085 18.346C12.4375 18.317 12.4605 18.2825 12.4762 18.2446C12.4919 18.2067 12.5 18.166 12.5 18.125C12.5829 18.125 12.6624 18.0921 12.721 18.0335C12.7796 17.9749 12.8125 17.8954 12.8125 17.8125C12.8125 17.7296 12.7796 17.6501 12.721 17.5915C12.6624 17.5329 12.5829 17.5 12.5 17.5V16.067L13.0335 15.5335C13.0625 15.5045 13.0855 15.47 13.1012 15.4321C13.1169 15.3942 13.125 15.3535 13.125 15.3125V13.4204C13.1251 13.3758 13.1347 13.3318 13.1531 13.2913C13.1715 13.2507 13.1984 13.2145 13.2318 13.1851C13.8574 12.6316 15.3125 11.061 15.3125 8.4375C15.3125 6.85242 14.7794 5.50461 13.7707 4.5398ZM10.625 17.5C10.5421 17.5 10.4626 17.5329 10.404 17.5915C10.3454 17.6501 10.3125 17.7296 10.3125 17.8125C10.3125 17.8954 10.3454 17.9749 10.404 18.0335C10.4626 18.0921 10.5421 18.125 10.625 18.125H11.7456L11.1206 18.75H8.87945L8.125 17.9956V17.5H9.375C9.45788 17.5 9.53737 17.4671 9.59597 17.4085C9.65458 17.3499 9.6875 17.2704 9.6875 17.1875C9.6875 17.1046 9.65458 17.0251 9.59597 16.9665C9.53737 16.9079 9.45788 16.875 9.375 16.875H8.125V16.25H11.875V17.5H10.625ZM10.3125 15.625H9.6875V14.0557C9.88797 14.0648 10.112 14.0648 10.3125 14.0557V15.625ZM12.8177 12.717C12.718 12.8051 12.6381 12.9133 12.5834 13.0345C12.5286 13.1557 12.5002 13.2871 12.5 13.4202V15.1829L12.058 15.625H10.9375V13.9893C11.1533 13.9542 11.3633 13.8893 11.5612 13.7964C12.0487 13.5554 12.1215 13.2105 12.1215 13.0264C12.1215 12.5873 11.7061 12.1875 11.25 12.1875C10.5127 12.1875 10.3148 12.9959 10.3125 13.4301C10.2164 13.4349 10.1124 13.4375 10 13.4375C9.88758 13.4375 9.78359 13.4349 9.6875 13.4301C9.68523 12.9959 9.48734 12.1875 8.75 12.1875C8.29387 12.1875 7.87848 12.5873 7.87848 13.0264C7.87848 13.2105 7.95129 13.5554 8.43875 13.7964C8.63673 13.8893 8.84665 13.9542 9.0625 13.9893V15.625H7.94195L7.5 15.1831V13.4204C7.49983 13.2873 7.47143 13.1559 7.41667 13.0347C7.36191 12.9135 7.28204 12.8053 7.18234 12.7172C6.62016 12.2196 5.3125 10.8069 5.3125 8.4375C5.3125 7.02734 5.77891 5.83551 6.66133 4.99145C7.49828 4.1909 8.68398 3.75 10 3.75C11.316 3.75 12.5017 4.1909 13.3387 4.99145C14.2211 5.83551 14.6875 7.02734 14.6875 8.4375C14.6875 10.8069 13.3798 12.2196 12.8177 12.717ZM10.9436 13.3507C10.9605 13.1783 11.0234 12.8125 11.25 12.8125C11.3629 12.8125 11.4965 12.9284 11.4965 13.0264C11.4965 13.092 11.4171 13.1705 11.2842 13.2362C11.1755 13.2875 11.0612 13.3259 10.9436 13.3507ZM9.05648 13.3507C8.93886 13.3259 8.82452 13.2875 8.71578 13.2362C8.58297 13.1705 8.50348 13.092 8.50348 13.0264C8.50348 12.9284 8.63711 12.8125 8.75 12.8125C8.97691 12.8125 9.03961 13.179 9.05648 13.3507Z" fill="black"/>
<path d="M9.0625 7.5C9.14538 7.5 9.22487 7.46708 9.28347 7.40847C9.34208 7.34987 9.375 7.27038 9.375 7.1875C9.375 7.10462 9.34208 7.02513 9.28347 6.96653C9.22487 6.90792 9.14538 6.875 9.0625 6.875H7.8125C7.72962 6.875 7.65013 6.90792 7.59153 6.96653C7.53292 7.02513 7.5 7.10462 7.5 7.1875V10.3125C7.5 10.3954 7.53292 10.4749 7.59153 10.5335C7.65013 10.5921 7.72962 10.625 7.8125 10.625H9.0625C9.14538 10.625 9.22487 10.5921 9.28347 10.5335C9.34208 10.4749 9.375 10.3954 9.375 10.3125C9.375 10.2296 9.34208 10.1501 9.28347 10.0915C9.22487 10.0329 9.14538 10 9.0625 10H8.125V9.0625H9.0625C9.14538 9.0625 9.22487 9.02958 9.28347 8.97097C9.34208 8.91237 9.375 8.83288 9.375 8.75C9.375 8.66712 9.34208 8.58763 9.28347 8.52903C9.22487 8.47042 9.14538 8.4375 9.0625 8.4375H8.125V7.5H9.0625Z" fill="black"/>
<path d="M12.1875 6.87501C12.1046 6.87501 12.0251 6.90793 11.9665 6.96653C11.9079 7.02514 11.875 7.10462 11.875 7.18751V9.18426L10.5805 7.02672C10.5453 6.96812 10.4919 6.92266 10.4284 6.8973C10.365 6.87195 10.2949 6.8681 10.2291 6.88634C10.1632 6.90458 10.1052 6.94391 10.0638 6.99831C10.0224 7.0527 10 7.11916 10 7.18751V10.3125C10 10.3954 10.0329 10.4749 10.0915 10.5335C10.1501 10.5921 10.2296 10.625 10.3125 10.625C10.3954 10.625 10.4749 10.5921 10.5335 10.5335C10.5921 10.4749 10.625 10.3954 10.625 10.3125V8.31575L11.9195 10.4733C11.9547 10.5319 12.0081 10.5774 12.0716 10.6027C12.135 10.6281 12.2051 10.6319 12.2709 10.6137C12.3368 10.5954 12.3948 10.5561 12.4362 10.5017C12.4776 10.4473 12.5 10.3808 12.5 10.3125V7.18751C12.5 7.10462 12.4671 7.02514 12.4085 6.96653C12.3499 6.90793 12.2704 6.87501 12.1875 6.87501Z" fill="black"/>
<path d="M10 2.5C10.0829 2.5 10.1624 2.46708 10.221 2.40847C10.2796 2.34987 10.3125 2.27038 10.3125 2.1875V0.9375C10.3125 0.85462 10.2796 0.775134 10.221 0.716529C10.1624 0.657924 10.0829 0.625 10 0.625C9.91712 0.625 9.83763 0.657924 9.77903 0.716529C9.72042 0.775134 9.6875 0.85462 9.6875 0.9375V2.1875C9.6875 2.27038 9.72042 2.34987 9.77903 2.40847C9.83763 2.46708 9.91712 2.5 10 2.5Z" fill="black"/>
<path d="M3.4375 8.4375H2.1875C2.10462 8.4375 2.02513 8.47042 1.96653 8.52903C1.90792 8.58763 1.875 8.66712 1.875 8.75C1.875 8.83288 1.90792 8.91237 1.96653 8.97097C2.02513 9.02958 2.10462 9.0625 2.1875 9.0625H3.4375C3.52038 9.0625 3.59987 9.02958 3.65847 8.97097C3.71708 8.91237 3.75 8.83288 3.75 8.75C3.75 8.66712 3.71708 8.58763 3.65847 8.52903C3.59987 8.47042 3.52038 8.4375 3.4375 8.4375Z" fill="black"/>
<path d="M4.77903 3.97098C4.83764 4.02959 4.91713 4.06252 5.00001 4.06252C5.08289 4.06252 5.16238 4.02959 5.22098 3.97098C5.27959 3.91238 5.31252 3.83289 5.31252 3.75001C5.31252 3.66713 5.27959 3.58764 5.22098 3.52903L4.28348 2.59153C4.22488 2.53292 4.14539 2.5 4.06251 2.5C3.97963 2.5 3.90014 2.53292 3.84153 2.59153C3.78292 2.65014 3.75 2.72963 3.75 2.81251C3.75 2.89539 3.78292 2.97488 3.84153 3.03348L4.77903 3.97098Z" fill="black"/>
<path d="M4.77903 13.529L3.84153 14.4665C3.81251 14.4956 3.78949 14.53 3.77379 14.5679C3.75808 14.6058 3.75 14.6465 3.75 14.6875C3.75 14.7285 3.75808 14.7692 3.77379 14.8071C3.78949 14.845 3.81251 14.8795 3.84153 14.9085C3.87055 14.9375 3.905 14.9605 3.94292 14.9762C3.98083 14.9919 4.02147 15 4.06251 15C4.10355 15 4.14418 14.9919 4.1821 14.9762C4.22001 14.9605 4.25447 14.9375 4.28348 14.9085L5.22098 13.971C5.27959 13.9124 5.31252 13.8329 5.31252 13.75C5.31252 13.6671 5.27959 13.5876 5.22098 13.529C5.16238 13.4704 5.08289 13.4375 5.00001 13.4375C4.91713 13.4375 4.83764 13.4704 4.77903 13.529Z" fill="black"/>
<path d="M17.8125 8.4375H16.5625C16.4796 8.4375 16.4001 8.47042 16.3415 8.52903C16.2829 8.58763 16.25 8.66712 16.25 8.75C16.25 8.83288 16.2829 8.91237 16.3415 8.97097C16.4001 9.02958 16.4796 9.0625 16.5625 9.0625H17.8125C17.8954 9.0625 17.9749 9.02958 18.0335 8.97097C18.0921 8.91237 18.125 8.83288 18.125 8.75C18.125 8.66712 18.0921 8.58763 18.0335 8.52903C17.9749 8.47042 17.8954 8.4375 17.8125 8.4375Z" fill="black"/>
<path d="M15 4.06251C15.0411 4.06256 15.0817 4.0545 15.1196 4.0388C15.1576 4.02309 15.192 4.00004 15.221 3.97098L16.1585 3.03348C16.2171 2.97488 16.25 2.89539 16.25 2.81251C16.25 2.72963 16.2171 2.65014 16.1585 2.59153C16.0999 2.53292 16.0204 2.5 15.9375 2.5C15.8546 2.5 15.7751 2.53292 15.7165 2.59153L14.779 3.52903C14.7353 3.57274 14.7056 3.62842 14.6935 3.68904C14.6814 3.74966 14.6876 3.81249 14.7113 3.8696C14.7349 3.9267 14.775 3.97551 14.8264 4.00985C14.8778 4.04418 14.9382 4.06251 15 4.06251Z" fill="black"/>
<path d="M15.221 13.529C15.1624 13.4704 15.0829 13.4375 15 13.4375C14.9171 13.4375 14.8376 13.4704 14.779 13.529C14.7204 13.5876 14.6875 13.6671 14.6875 13.75C14.6875 13.8329 14.7204 13.9124 14.779 13.971L15.7165 14.9085C15.7751 14.9671 15.8546 15 15.9375 15C16.0204 15 16.0999 14.9671 16.1585 14.9085C16.2171 14.8499 16.25 14.7704 16.25 14.6875C16.25 14.6046 16.2171 14.5251 16.1585 14.4665L15.221 13.529Z" fill="black"/>
</svg>
