<svg width="20" height="21" viewBox="0 0 20 21" fill="none" xmlns="http://www.w3.org/2000/svg">
<path d="M15.3916 14.5253L15.7166 17.1587C15.8 17.8503 15.0583 18.3336 14.4666 17.9753L10.975 15.9003C10.5916 15.9003 10.2166 15.8753 9.84998 15.8253C10.4666 15.1003 10.8333 14.1836 10.8333 13.192C10.8333 10.8253 8.78331 8.90868 6.24997 8.90868C5.28331 8.90868 4.39165 9.18366 3.64998 9.66699C3.62498 9.45866 3.61664 9.25032 3.61664 9.03365C3.61664 5.24198 6.90831 2.16699 10.975 2.16699C15.0416 2.16699 18.3333 5.24198 18.3333 9.03365C18.3333 11.2837 17.175 13.2753 15.3916 14.5253Z" stroke="white" stroke-width="1.5" stroke-linecap="round" stroke-linejoin="round"/>
<path d="M10.8334 13.1915C10.8334 14.1832 10.4667 15.0999 9.85003 15.8249C9.02503 16.8249 7.71669 17.4665 6.25002 17.4665L4.07502 18.7582C3.70835 18.9832 3.24168 18.6748 3.29168 18.2498L3.50002 16.6082C2.38335 15.8332 1.66669 14.5915 1.66669 13.1915C1.66669 11.7248 2.45002 10.4332 3.65002 9.66651C4.39169 9.18318 5.28335 8.9082 6.25002 8.9082C8.78335 8.9082 10.8334 10.8248 10.8334 13.1915Z" stroke="white" stroke-width="1.5" stroke-linecap="round" stroke-linejoin="round"/>
</svg>
