<svg width="20" height="21" viewBox="0 0 20 21" fill="none" xmlns="http://www.w3.org/2000/svg">
<path d="M4.64356 8.41752C5.07249 8.41752 5.4202 8.0698 5.4202 7.64088C5.4202 7.21197 5.07249 6.86426 4.64356 6.86426C4.21465 6.86426 3.86694 7.21197 3.86694 7.64088C3.86694 8.0698 4.21465 8.41752 4.64356 8.41752Z" fill="black"/>
<path d="M2.5293 10.8042C2.95823 10.8042 3.30594 10.4565 3.30594 10.0276C3.30594 9.59869 2.95823 9.25098 2.5293 9.25098C2.1004 9.25098 1.75269 9.59869 1.75269 10.0276C1.75269 10.4565 2.1004 10.8042 2.5293 10.8042Z" fill="black"/>
<path fill-rule="evenodd" clip-rule="evenodd" d="M15.9612 2.54692C15.0822 2.0916 14.0005 2.4351 13.5451 3.31415L11.5565 7.15353C11.5458 7.17411 11.5366 7.19508 11.5288 7.21627C10.5547 7.18287 9.58979 7.61318 8.93901 8.37483C8.17224 9.27219 7.2289 10.2515 6.4228 10.7515C5.27354 11.4645 4.32344 11.7214 3.73342 11.8126C3.38835 11.866 3.10826 12.0881 2.97183 12.3762C2.82932 12.6772 2.84006 13.0715 3.11701 13.3767C3.71907 14.0401 4.89288 15.1269 7.04587 16.4961C8.53709 17.4446 9.87404 17.9691 10.5936 18.2121C11.145 18.3984 11.7343 18.1854 12.0508 17.7115C12.4508 17.1124 13.1534 15.9825 13.7566 14.6077C14.2028 13.5906 14.5873 12.5424 14.9552 11.4959C15.2656 10.6131 15.126 9.68186 14.6541 8.94584L16.7266 4.9666C17.1846 4.08718 16.8417 3.00295 15.9612 2.54692ZM13.8725 8.12549L15.7757 4.47132C15.9597 4.11792 15.8219 3.68221 15.4681 3.49895C15.1148 3.31598 14.6801 3.45403 14.4972 3.80728L12.608 7.45456C12.6713 7.48141 12.734 7.51056 12.7962 7.54211L13.4866 7.89211C13.6225 7.96104 13.7513 8.0392 13.8725 8.12549ZM13.9437 11.1402C13.8674 11.3575 13.7868 11.5835 13.7034 11.8136L9.35253 9.53035C9.49259 9.37419 9.62696 9.22015 9.75412 9.07132C10.4017 8.31345 11.4646 8.06906 12.3114 8.49838L13.0017 8.8484C13.8522 9.27961 14.2544 10.2568 13.9437 11.1402ZM6.988 11.6626C7.51703 11.3345 8.06907 10.8548 8.58707 10.3394L8.59402 10.3431L13.3256 12.8262C13.1436 13.2994 12.9566 13.7625 12.7748 14.1769C12.2052 15.4751 11.5383 16.5481 11.1591 17.1161C11.105 17.1971 11.0173 17.2236 10.9367 17.1963C10.6202 17.0895 10.1681 16.9213 9.62919 16.6774C9.87934 16.4137 10.2422 15.9826 10.5899 15.3901C10.7401 15.1342 10.6533 14.8092 10.3959 14.6644C10.1386 14.5195 9.80812 14.6096 9.65789 14.8656C9.37841 15.3417 9.03705 15.8107 8.61849 16.1765C8.29927 16.0043 7.96466 15.8099 7.62125 15.5915C7.34204 15.4139 7.08055 15.2417 6.83579 15.0752C6.96315 14.9895 7.1028 14.8845 7.25272 14.7559C7.4782 14.5626 7.50059 14.2283 7.30274 14.0094C7.10488 13.7904 6.76173 13.7697 6.53626 13.963C6.20441 14.2476 5.97266 14.3559 5.87923 14.3924C5.02558 13.751 4.45365 13.2244 4.0835 12.8405C4.80061 12.7071 5.8136 12.3912 6.988 11.6626Z" fill="black"/>
</svg>
