<svg width="20" height="21" viewBox="0 0 20 21" fill="none" xmlns="http://www.w3.org/2000/svg">
<g clip-path="url(#clip0_304_3220)">
<path d="M9.90937 11.3156L13.6594 14.1281C13.9356 14.3353 14.3272 14.2794 14.5344 14.0031C14.7416 13.7269 14.6856 13.3353 14.4094 13.1281L10.9375 10.5V5.1875C10.9375 4.84219 10.6578 4.5625 10.3125 4.5625C9.96719 4.5625 9.6875 4.84219 9.6875 5.1875V10.8125C9.6875 11.02 9.77437 11.2069 9.90937 11.3156Z" fill="black"/>
<path d="M10.6249 1.125C6.05026 1.125 2.1437 4.42688 1.3812 8.9375L1.1437 8.58438C0.950258 8.29781 0.561508 8.22219 0.274945 8.41563C-0.0116173 8.60906 -0.0872423 8.99781 0.106195 9.28438L1.3562 11.1594C1.45901 11.3156 1.62651 11.4178 1.81245 11.4375H1.87495C2.04057 11.4369 2.19901 11.3706 2.31557 11.2531L3.87807 9.69063C4.12213 9.44656 4.12213 9.05031 3.87807 8.80625C3.63401 8.56219 3.23776 8.56219 2.9937 8.80625L2.6062 9.19687C3.32588 4.7675 7.49994 1.76063 11.929 2.48031C16.3581 3.2 19.3656 7.37375 18.6459 11.8031C18.0068 15.7362 14.6096 18.6256 10.6249 18.625C8.11182 18.6706 5.73495 17.485 4.25932 15.45C4.05901 15.1687 3.6687 15.1028 3.38745 15.3031C3.1062 15.5034 3.04026 15.8938 3.24057 16.175C4.94932 18.5413 7.70682 19.9228 10.6249 19.875C15.8028 19.875 19.9999 15.6778 19.9999 10.5C19.9999 5.32219 15.8028 1.125 10.6249 1.125Z" fill="black"/>
</g>
<defs>
<clipPath id="clip0_304_3220">
<rect width="20" height="20" fill="white" transform="translate(0 0.5)"/>
</clipPath>
</defs>
</svg>
