<svg width="20" height="20" viewBox="0 0 20 20" fill="none" xmlns="http://www.w3.org/2000/svg">
<path d="M0.556406 9.59719C0.556406 9.42461 0.696328 9.28469 0.868906 9.28469H2.3459C2.51848 9.28469 2.6584 9.42461 2.6584 9.59719C2.6584 9.76977 2.51848 9.90969 2.3459 9.90969H0.868906C0.696289 9.90969 0.556406 9.76977 0.556406 9.59719ZM3.52992 9.90969H5.00691C5.17949 9.90969 5.31941 9.76977 5.31941 9.59719C5.31941 9.42461 5.17949 9.28469 5.00691 9.28469H3.52992C3.35734 9.28469 3.21742 9.42461 3.21742 9.59719C3.21742 9.76977 3.3573 9.90969 3.52992 9.90969ZM2.18988 10.7062C2.0173 10.7062 1.87738 10.8461 1.87738 11.0187C1.87738 11.1913 2.0173 11.3312 2.18988 11.3312H3.66688C3.83945 11.3312 3.97938 11.1913 3.97938 11.0187C3.97938 10.8461 3.83945 10.7062 3.66688 10.7062H2.18988ZM2.3309 12.4402C2.3309 12.2676 2.19098 12.1277 2.0184 12.1277H0.625C0.452422 12.1277 0.3125 12.2676 0.3125 12.4402C0.3125 12.6128 0.452422 12.7527 0.625 12.7527H2.0184C2.19098 12.7527 2.3309 12.6128 2.3309 12.4402ZM4.99191 12.4402C4.99191 12.2676 4.85199 12.1277 4.67941 12.1277H3.20242C3.02984 12.1277 2.88992 12.2676 2.88992 12.4402C2.88992 12.6128 3.02984 12.7527 3.20242 12.7527H4.67941C4.85199 12.7527 4.99191 12.6128 4.99191 12.4402ZM3.66684 13.5492H2.18988C2.0173 13.5492 1.87738 13.6891 1.87738 13.8617C1.87738 14.0343 2.0173 14.1742 2.18988 14.1742H3.66688C3.83945 14.1742 3.97938 14.0343 3.97938 13.8617C3.97938 13.6891 3.83945 13.5492 3.66684 13.5492ZM12.0434 8.44648C12.216 8.44648 12.3559 8.30656 12.3559 8.13398V7.69688C12.3559 7.5243 12.216 7.38438 12.0434 7.38438C11.8708 7.38438 11.7309 7.5243 11.7309 7.69688V8.13398C11.7309 8.30656 11.8708 8.44648 12.0434 8.44648ZM14.5857 9.49957C14.6657 9.49957 14.7457 9.46906 14.8067 9.40801L15.1158 9.09891C15.2379 8.97688 15.2379 8.77902 15.1158 8.65699C14.9938 8.535 14.7959 8.53496 14.6739 8.65703L14.3648 8.96613C14.2427 9.08816 14.2427 9.28602 14.3648 9.40805C14.4258 9.46906 14.5058 9.49957 14.5857 9.49957ZM14.8067 14.0509C14.6847 13.9288 14.4868 13.9288 14.3648 14.0508C14.2427 14.1729 14.2427 14.3707 14.3648 14.4927L14.6739 14.8018C14.7349 14.8629 14.8148 14.8934 14.8948 14.8934C14.9748 14.8934 15.0548 14.8629 15.1158 14.8019C15.2379 14.6798 15.2379 14.482 15.1158 14.36L14.8067 14.0509ZM9.28 14.0509L8.9709 14.36C8.84887 14.482 8.84887 14.6798 8.9709 14.8019C9.03191 14.8629 9.11187 14.8934 9.19187 14.8934C9.27187 14.8934 9.35184 14.8629 9.41285 14.8018L9.72195 14.4927C9.84398 14.3707 9.84398 14.1729 9.72195 14.0508C9.59992 13.9288 9.40207 13.9288 9.28 14.0509ZM9.41289 8.65703C9.29086 8.535 9.09301 8.535 8.97094 8.65699C8.84891 8.77902 8.84887 8.97688 8.97094 9.09891L9.28004 9.40801C9.34105 9.46902 9.42102 9.49957 9.50102 9.49957C9.58098 9.49957 9.66098 9.46906 9.72199 9.40805C9.84402 9.28602 9.84406 9.08816 9.72199 8.96613L9.41289 8.65703ZM15.6388 12.0419H16.0759C16.2485 12.0419 16.3884 11.902 16.3884 11.7294C16.3884 11.5568 16.2485 11.4169 16.0759 11.4169H15.6388C15.4663 11.4169 15.3263 11.5568 15.3263 11.7294C15.3263 11.902 15.4663 12.0419 15.6388 12.0419ZM12.0434 15.0124C11.8708 15.0124 11.7309 15.1523 11.7309 15.3249V15.762C11.7309 15.9346 11.8708 16.0745 12.0434 16.0745C12.216 16.0745 12.3559 15.9346 12.3559 15.762V15.3249C12.3559 15.1523 12.216 15.0124 12.0434 15.0124ZM8.44793 11.4169H8.01082C7.83824 11.4169 7.69832 11.5568 7.69832 11.7294C7.69832 11.902 7.83824 12.0419 8.01082 12.0419H8.44793C8.62051 12.0419 8.76043 11.902 8.76043 11.7294C8.76043 11.5568 8.62055 11.4169 8.44793 11.4169ZM13.0002 11.417H14.4165C14.5891 11.417 14.729 11.5569 14.729 11.7295C14.729 11.902 14.5891 12.042 14.4165 12.042H13.0002C12.8684 12.4445 12.4894 12.7362 12.0434 12.7362C11.4882 12.7362 11.0366 12.2845 11.0366 11.7295C11.0366 11.2834 11.3283 10.9044 11.7309 10.7726V9.35633C11.7309 9.18375 11.8708 9.04383 12.0434 9.04383C12.2159 9.04383 12.3559 9.18375 12.3559 9.35633V10.7726C12.66 10.8722 12.9006 11.1129 13.0002 11.417ZM12.4251 11.7295C12.4251 11.5189 12.2539 11.3477 12.0434 11.3477C11.8329 11.3477 11.6617 11.519 11.6617 11.7295C11.6617 11.9399 11.8329 12.1112 12.0434 12.1112C12.2539 12.1112 12.4251 11.94 12.4251 11.7295ZM19.6875 2.56746V6.4493C19.6875 7.04871 19.1998 7.53633 18.6005 7.53633H17.3853C18.3239 8.72844 18.8342 10.193 18.8342 11.7295C18.8342 15.4739 15.7879 18.5202 12.0434 18.5202C9.16043 18.5202 6.69164 16.7142 5.70813 14.1742H5.14387C4.97129 14.1742 4.83137 14.0343 4.83137 13.8617C4.83137 13.6891 4.97129 13.5492 5.14387 13.5492H5.50062C5.33926 12.9698 5.25266 12.3596 5.25266 11.7295C5.25266 10.2698 5.71563 8.91633 6.50234 7.80797L6.15215 7.45777C5.91 7.21566 5.91 6.82168 6.15215 6.57953L6.89352 5.83816C7.01062 5.72105 7.1666 5.65656 7.33266 5.65656C7.49867 5.65656 7.65465 5.72105 7.7718 5.83816L8.12199 6.18836C8.93402 5.61199 9.8777 5.20981 10.8982 5.03574V4.43031H10.8618C10.5193 4.43031 10.2408 4.13176 10.2408 3.76484V3.21727C10.2408 2.85031 10.5194 2.55184 10.8618 2.55184H11.8411C11.8495 1.95969 12.3336 1.48047 12.9277 1.48047H18.6005C19.1998 1.48047 19.6875 1.96813 19.6875 2.56746ZM13.2705 8.80156V7.53633H12.9276C12.52 7.53633 12.1643 7.3107 11.9783 6.97793C9.38777 7.01293 7.29105 9.13074 7.29105 11.7295C7.29105 14.3499 9.42297 16.4818 12.0434 16.4818C14.6638 16.4818 16.7957 14.3499 16.7957 11.7295C16.7957 10.2155 16.0811 8.8068 14.8721 7.91074L13.8084 9.01805C13.7483 9.08063 13.6664 9.11406 13.583 9.11406C13.5437 9.11406 13.5042 9.10672 13.4664 9.09145C13.348 9.04383 13.2705 8.9291 13.2705 8.80156ZM10.8765 3.80531H11.8406V3.17684H10.8765C10.8719 3.18367 10.8657 3.19711 10.8657 3.21727V3.76484C10.8657 3.78504 10.8719 3.79848 10.8765 3.80531ZM11.5231 4.9584C11.6283 4.95039 11.7342 4.94508 11.8406 4.94195V4.43031H11.5231V4.9584ZM6.89012 7.31199C7.11633 7.04848 7.36234 6.80246 7.62586 6.57621L7.33254 6.28289L6.5968 7.01863L6.89012 7.31199ZM16.5636 7.53633H15.4105C16.6776 8.55336 17.4207 10.0867 17.4207 11.7295C17.4207 14.6945 15.0085 17.1068 12.0434 17.1068C9.07832 17.1068 6.66602 14.6945 6.66602 11.7295C6.66602 8.83231 8.9691 6.46336 11.8406 6.35633V5.56734C8.5343 5.67477 5.87758 8.3975 5.87758 11.7295C5.87758 15.1293 8.64355 17.8952 12.0434 17.8952C15.4432 17.8952 18.2092 15.1293 18.2092 11.7295C18.2092 10.1638 17.6257 8.68008 16.5636 7.53633ZM19.0625 2.56746C19.0625 2.31273 18.8552 2.10547 18.6005 2.10547H12.9276C12.6729 2.10547 12.4656 2.31273 12.4656 2.56746V6.4493C12.4656 6.70406 12.6729 6.91133 12.9276 6.91133H13.583C13.7556 6.91133 13.8955 7.05125 13.8955 7.22383V8.0252L14.8733 7.00734C14.9322 6.94602 15.0136 6.91133 15.0986 6.91133H18.6005C18.8552 6.91133 19.0625 6.70406 19.0625 6.4493V2.56746ZM17.7198 4.1959H13.8082C13.6357 4.1959 13.4957 4.33582 13.4957 4.5084C13.4957 4.68098 13.6357 4.8209 13.8082 4.8209H17.7199C17.8925 4.8209 18.0324 4.68098 18.0324 4.5084C18.0324 4.33582 17.8925 4.1959 17.7198 4.1959ZM17.7198 5.5909H13.8082C13.6357 5.5909 13.4957 5.73082 13.4957 5.9034C13.4957 6.07598 13.6357 6.2159 13.8082 6.2159H17.7199C17.8925 6.2159 18.0324 6.07598 18.0324 5.9034C18.0324 5.73082 17.8925 5.5909 17.7198 5.5909ZM17.7198 2.8009H13.8082C13.6357 2.8009 13.4957 2.94082 13.4957 3.1134C13.4957 3.28598 13.6357 3.4259 13.8082 3.4259H17.7199C17.8925 3.4259 18.0324 3.28598 18.0324 3.1134C18.0324 2.94082 17.8925 2.8009 17.7198 2.8009Z" fill="black"/>
</svg>
