<svg width="18" height="20" viewBox="0 0 18 20" fill="none" xmlns="http://www.w3.org/2000/svg">
<path d="M16.5873 14.08C16.4667 14.08 16.3521 14.1059 16.2486 14.1524C16.1091 13.8907 15.8333 13.7122 15.5165 13.7122C15.4328 13.7122 15.352 13.7249 15.2758 13.7481V3.93102C15.2758 3.85316 15.2448 3.77852 15.1898 3.72344L11.5523 0.0859766C11.4972 0.0309375 11.4226 0 11.3447 0H9.18123C9.01908 0 8.88768 0.131406 8.88768 0.293555C8.88768 0.455703 9.01908 0.587109 9.18123 0.587109H11.0512V3.34395C11.0512 3.82953 11.4463 4.22457 11.9318 4.22457H14.6887V13.3811C14.6118 13.3574 14.5303 13.3444 14.4458 13.3444C14.3617 13.3444 14.2805 13.357 14.204 13.3804V11.9199C14.204 11.3838 13.7678 10.9477 13.2317 10.9477C12.6956 10.9477 12.2595 11.3838 12.2595 11.9199V15.8012L11.9026 15.4012C11.5776 15.037 11.1113 14.8281 10.6233 14.8281C10.4208 14.8281 10.2381 14.9321 10.1346 15.1062C10.0311 15.2803 10.0271 15.4905 10.124 15.6685L10.9641 17.2119C11.1765 17.6021 11.4474 17.9552 11.7693 18.2616L12.639 19.0892V19.413H4.7833C4.62115 19.413 4.48975 19.5444 4.48975 19.7065C4.48975 19.8687 4.62115 20.0001 4.7833 20.0001H16.3342C16.4963 20.0001 16.6278 19.8687 16.6278 19.7065V19.0683C16.8443 18.785 17.4163 17.8775 17.4163 16.1976V14.909C17.4162 14.4519 17.0444 14.08 16.5873 14.08ZM11.6383 3.34395V1.00223L14.2735 3.6375H11.9318C11.7699 3.63746 11.6383 3.50578 11.6383 3.34395ZM16.8292 16.1975C16.8292 17.9714 16.1268 18.7552 16.1212 18.7613C16.0695 18.8158 16.0406 18.8881 16.0406 18.9632V19.4129H13.2262V18.9632C13.2262 18.8829 13.1932 18.806 13.1349 18.7506L12.174 17.8363C11.8965 17.5721 11.6629 17.2677 11.4797 16.9312L10.6547 15.4157C10.9642 15.4243 11.2578 15.5604 11.4646 15.792L12.3261 16.7575C12.3818 16.8199 12.4614 16.8556 12.5451 16.8556H12.5531C12.7152 16.8556 12.8466 16.7242 12.8466 16.5621V11.9198C12.8466 11.7075 13.0194 11.5347 13.2318 11.5347C13.4441 11.5347 13.6169 11.7075 13.6169 11.9198V14.1733C13.6169 14.3354 13.7483 14.4668 13.9104 14.4668C14.0726 14.4668 14.204 14.3354 14.204 14.1733C14.204 14.0399 14.3125 13.9314 14.4459 13.9314C14.5792 13.9314 14.6877 14.0399 14.6877 14.1733V14.5411C14.6877 14.7033 14.8191 14.8347 14.9812 14.8347C15.1434 14.8347 15.2748 14.7033 15.2748 14.5411C15.2748 14.4078 15.3833 14.2993 15.5167 14.2993C15.65 14.2993 15.7585 14.4078 15.7585 14.5411V14.9089C15.7585 15.0711 15.8899 15.2025 16.0521 15.2025C16.2142 15.2025 16.3456 15.0711 16.3456 14.9089C16.3456 14.7756 16.4541 14.6671 16.5874 14.6671C16.7208 14.6671 16.8293 14.7756 16.8293 14.9089V16.1975H16.8292Z" fill="black"/>
<path d="M3.60921 19.4129H1.46437C1.30249 19.4129 1.17081 19.2812 1.17081 19.1194V0.880625C1.17081 0.71875 1.30249 0.58707 1.46437 0.58707H8.00714C8.16929 0.58707 8.30069 0.455664 8.30069 0.293516C8.30069 0.131367 8.16929 0 8.00714 0H1.46437C0.978818 0 0.58374 0.395039 0.58374 0.880625V19.1194C0.58374 19.605 0.978818 20 1.46437 20H3.60921C3.77136 20 3.90276 19.8686 3.90276 19.7064C3.90276 19.5443 3.77136 19.4129 3.60921 19.4129Z" fill="black"/>
<path d="M12.6043 6.62402H3.23154C3.06939 6.62402 2.93799 6.75543 2.93799 6.91758C2.93799 7.07973 3.06939 7.21113 3.23154 7.21113H12.6043C12.7665 7.21113 12.8979 7.07973 12.8979 6.91758C12.8979 6.75543 12.7665 6.62402 12.6043 6.62402Z" fill="black"/>
<path d="M12.6043 4.92871H3.23154C3.06939 4.92871 2.93799 5.06012 2.93799 5.22227C2.93799 5.38441 3.06939 5.51582 3.23154 5.51582H12.6043C12.7665 5.51582 12.8979 5.38441 12.8979 5.22227C12.8979 5.06012 12.7665 4.92871 12.6043 4.92871Z" fill="black"/>
<path d="M11.3134 13.6979C11.3134 13.5357 11.182 13.4043 11.0198 13.4043H7.2252C7.06305 13.4043 6.93164 13.5357 6.93164 13.6979C6.93164 13.86 7.06305 13.9914 7.2252 13.9914H11.0198C11.182 13.9914 11.3134 13.86 11.3134 13.6979Z" fill="black"/>
<path d="M11.0199 11.709H3.23154C3.06939 11.709 2.93799 11.8404 2.93799 12.0025C2.93799 12.1647 3.06939 12.2961 3.23154 12.2961H11.0199C11.1821 12.2961 11.3135 12.1647 11.3135 12.0025C11.3135 11.8404 11.182 11.709 11.0199 11.709Z" fill="black"/>
<path d="M9.15941 15.0986H7.2252C7.06305 15.0986 6.93164 15.23 6.93164 15.3922C6.93164 15.5543 7.06305 15.6857 7.2252 15.6857H9.15941C9.32156 15.6857 9.45297 15.5543 9.45297 15.3922C9.45297 15.23 9.32156 15.0986 9.15941 15.0986Z" fill="black"/>
<path d="M9.15941 16.7939H7.2252C7.06305 16.7939 6.93164 16.9254 6.93164 17.0875C6.93164 17.2496 7.06305 17.3811 7.2252 17.3811H9.15941C9.32156 17.3811 9.45297 17.2496 9.45297 17.0875C9.45297 16.9254 9.32156 16.7939 9.15941 16.7939Z" fill="black"/>
<path d="M12.8979 10.3079V8.61289C12.8979 8.45074 12.7665 8.31934 12.6043 8.31934H10.9351C10.7729 8.31934 10.6415 8.45074 10.6415 8.61289C10.6415 8.77504 10.7729 8.90645 10.9351 8.90645H12.3108V10.0144H3.52506V8.90645H9.76088C9.92303 8.90645 10.0544 8.77504 10.0544 8.61289C10.0544 8.45074 9.92303 8.31934 9.76088 8.31934H3.23154C3.06939 8.31934 2.93799 8.45074 2.93799 8.61289V10.3079C2.93799 10.47 3.06939 10.6014 3.23154 10.6014H12.6043C12.7665 10.6014 12.8979 10.47 12.8979 10.3079Z" fill="black"/>
<path d="M3.23154 13.4043C3.06939 13.4043 2.93799 13.5357 2.93799 13.6979V17.0879C2.93799 17.25 3.06939 17.3814 3.23154 17.3814H5.86553C6.02768 17.3814 6.15908 17.25 6.15908 17.0879V13.6979C6.15908 13.5357 6.02768 13.4043 5.86553 13.4043H3.23154ZM5.57201 16.7943H3.5251V13.9914H5.57201V16.7943Z" fill="black"/>
</svg>
