<svg width="30" height="30" viewBox="0 0 30 30" fill="none" xmlns="http://www.w3.org/2000/svg">
<g clip-path="url(#clip0_304_3010)">
<path d="M29.7531 3.78674C29.7353 3.76998 26.2114 0.409336 26.2114 0.409336C26.0767 0.280078 25.9374 0.146484 25.6772 0.146484H11.4905C11.0761 0.146484 10.739 0.483574 10.739 0.897949V3.20555L5.73886 4.06266C5.33808 4.13297 5.06855 4.51652 5.13798 4.91689L5.39175 6.3965C3.76654 6.94342 2.09796 7.50721 0.487162 8.08582C0.106537 8.22498 -0.0932092 8.6482 0.0426111 9.03111L3.24681 17.9383C3.31126 18.1175 3.48019 18.2292 3.66037 18.2292C3.7097 18.2292 3.75997 18.2208 3.80908 18.2031C4.03747 18.1209 4.15601 17.8692 4.07386 17.6408L0.917064 8.86535C2.43464 8.32201 4.00624 7.79022 5.54216 7.27324L7.05218 16.0767L8.78972 26.2153C8.85247 26.5731 9.16706 26.8278 9.52214 26.8278C9.56234 26.8278 9.60312 26.8245 9.64402 26.8178L14.35 26.0102L18.0274 25.3798L12.4967 27.3677L8.13523 28.9359L4.74804 19.5146C4.66595 19.2863 4.41429 19.1677 4.18583 19.2498C3.95744 19.3319 3.8389 19.5836 3.92099 19.812L7.35622 29.3671C7.46609 29.6676 7.75074 29.8544 8.05161 29.8544C8.13476 29.8544 8.21919 29.8401 8.30146 29.81L12.7939 28.1948L22.9947 24.5284L24.9435 24.1944H29.2484C29.6628 24.1944 30 23.8565 30 23.4412V4.28191C30 4.01889 29.8573 3.88471 29.7531 3.78674ZM28.5888 3.8908H26.3898L26.3353 3.89104C26.23 3.89174 25.9835 3.89356 25.921 3.83145C25.9065 3.81709 25.8897 3.76916 25.8897 3.68016L25.8846 1.31209L28.5888 3.8908ZM29.1211 23.3153H11.6179V14.7509C11.6179 14.5082 11.4211 14.3114 11.1784 14.3114C10.9357 14.3114 10.739 14.5082 10.739 14.7509V23.4411C10.739 23.8563 11.0761 24.1942 11.4905 24.1942H19.7412L14.2014 25.1438L9.63218 25.928L7.91843 15.9281L6.02767 4.90482L10.7389 4.09723V12.7118C10.7389 12.9545 10.9357 13.1513 11.1784 13.1513C11.421 13.1513 11.6178 12.9545 11.6178 12.7118V1.02533H25.005L25.0108 3.68115C25.0108 4.00307 25.1087 4.26346 25.3017 4.45518C25.5984 4.74973 26.0177 4.77023 26.2781 4.77023C26.3005 4.77023 26.3217 4.77006 26.3415 4.76994L29.1211 4.76977V23.3153Z" fill="#317B22"/>
<path d="M13.7363 6.96973C13.7363 7.21242 13.9331 7.40918 14.1758 7.40918H26.7404C26.9831 7.40918 27.1798 7.21242 27.1798 6.96973C27.1798 6.72703 26.9831 6.53027 26.7404 6.53027H14.1758C13.9331 6.53027 13.7363 6.72703 13.7363 6.96973Z" fill="#317B22"/>
<path d="M26.7404 9.65234H14.1758C13.9331 9.65234 13.7363 9.8491 13.7363 10.0918C13.7363 10.3345 13.9331 10.5312 14.1758 10.5312H26.7404C26.9831 10.5312 27.1798 10.3345 27.1798 10.0918C27.1798 9.8491 26.9831 9.65234 26.7404 9.65234Z" fill="#317B22"/>
<path d="M26.7404 12.7744H14.1758C13.9331 12.7744 13.7363 12.9712 13.7363 13.2139C13.7363 13.4566 13.9331 13.6533 14.1758 13.6533H26.7404C26.9831 13.6533 27.1798 13.4566 27.1798 13.2139C27.1798 12.9712 26.9831 12.7744 26.7404 12.7744Z" fill="#317B22"/>
<path d="M26.7404 15.8965H14.1758C13.9331 15.8965 13.7363 16.0932 13.7363 16.3359C13.7363 16.5786 13.9331 16.7754 14.1758 16.7754H26.7404C26.9831 16.7754 27.1798 16.5786 27.1798 16.3359C27.1798 16.0932 26.9831 15.8965 26.7404 15.8965Z" fill="#317B22"/>
<path d="M26.7404 19.0186H14.1758C13.9331 19.0186 13.7363 19.2153 13.7363 19.458C13.7363 19.7007 13.9331 19.8975 14.1758 19.8975H26.7404C26.9831 19.8975 27.1798 19.7007 27.1798 19.458C27.1798 19.2153 26.9831 19.0186 26.7404 19.0186Z" fill="#317B22"/>
</g>
<defs>
<clipPath id="clip0_304_3010">
<rect width="30" height="30" fill="white"/>
</clipPath>
</defs>
</svg>
