<svg width="18" height="16" viewBox="0 0 18 16" fill="none" xmlns="http://www.w3.org/2000/svg">
<path fill-rule="evenodd" clip-rule="evenodd" d="M12.0454 11.1266C12.0454 11.1993 11.9864 11.2583 11.9137 11.2583H10.3516V4.76274C10.3516 4.6905 10.4105 4.63122 10.4829 4.63122H11.9137C11.9864 4.63122 12.0454 4.6905 12.0454 4.76274V11.1266ZM8.15325 11.2583V6.94834C8.15325 6.8757 8.21193 6.81662 8.28457 6.81662H9.84729V11.2583H8.15325ZM5.95493 11.1266V9.15958C5.95493 9.08694 6.01381 9.02786 6.08645 9.02786H7.64897V11.2583H6.08649C6.01385 11.2583 5.95493 11.1993 5.95493 11.1266ZM11.9137 4.12718H10.4829C10.1322 4.12718 9.84737 4.4121 9.84737 4.76274V6.31214H8.28465C7.93417 6.31214 7.64909 6.59766 7.64909 6.94834V8.52362H6.08649C5.73581 8.52362 5.45069 8.80894 5.45069 9.15958V11.1266C5.45069 11.4773 5.73581 11.7626 6.08649 11.7626H11.9137C12.2644 11.7626 12.5499 11.4773 12.5499 11.1266V4.76274C12.5499 4.4121 12.2644 4.12718 11.9137 4.12718ZM14.5268 13.5273C14.1903 13.8638 13.6428 13.8638 13.3061 13.5273C12.9698 13.1908 12.9698 12.643 13.3061 12.3067C13.6428 11.9698 14.1904 11.9698 14.5268 12.3067C14.8633 12.643 14.8633 13.1908 14.5268 13.5273ZM5.28153 13.5755C7.53529 15.0827 10.4651 15.0827 12.7186 13.5755C12.4335 13.056 12.5102 12.3893 12.9495 11.95C13.3892 11.5105 14.0556 11.4336 14.575 11.7187C15.06 10.9911 15.4012 10.1685 15.5717 9.31338C15.0029 9.14786 14.5857 8.62218 14.5857 8.00054C14.5857 7.3785 15.0029 6.85282 15.5717 6.6873C15.4012 5.83218 15.06 5.00942 14.575 4.28198C14.0487 4.57118 13.3842 4.48554 12.9495 4.0507C12.5102 3.61138 12.4331 2.94466 12.7186 2.42522C10.4651 0.917935 7.53529 0.917935 5.28153 2.42522C5.56705 2.94466 5.49013 3.61138 5.05065 4.0507C4.61577 4.48546 3.95141 4.57114 3.42517 4.28198C2.94013 5.00942 2.59897 5.83218 2.42841 6.6873C2.99761 6.85282 3.41445 7.3785 3.41445 8.00054C3.41445 8.62214 2.99761 9.14786 2.42841 9.31338C2.59901 10.1685 2.94017 10.9911 3.42517 11.7187C3.94461 11.4336 4.61133 11.5105 5.05065 11.95C5.49013 12.3893 5.56705 13.056 5.28153 13.5755ZM3.47333 13.5273C3.13681 13.1908 3.13681 12.643 3.47333 12.3067C3.80985 11.97 4.35737 11.9698 4.69389 12.3067C5.03041 12.6431 5.03041 13.1908 4.69389 13.5273C4.35741 13.8638 3.80985 13.8638 3.47333 13.5273ZM1.18397 8.00054C1.18397 7.52442 1.57125 7.1371 2.04717 7.1371C2.52289 7.1371 2.91017 7.52438 2.91017 8.00054C2.91017 8.47626 2.52289 8.86354 2.04717 8.86354C1.57125 8.86358 1.18397 8.47626 1.18397 8.00054ZM3.47333 2.47338C3.81009 2.13658 4.35713 2.13682 4.69389 2.47338C5.03041 2.8099 5.03041 3.35742 4.69389 3.69414C4.35737 4.03086 3.80985 4.03086 3.47333 3.69414C3.13685 3.35746 3.13685 2.8099 3.47333 2.47338ZM13.9168 2.22086C14.1375 2.22086 14.3587 2.30522 14.5268 2.47338C14.8634 2.8099 14.8634 3.35742 14.5268 3.69414C14.1903 4.03066 13.6428 4.03066 13.3061 3.69414C12.9698 3.35742 12.9698 2.80986 13.3061 2.47338C13.4746 2.30522 13.6954 2.22086 13.9168 2.22086ZM16.8162 8.00054C16.8162 8.47626 16.4289 8.86354 15.953 8.86354C15.4773 8.86354 15.09 8.47626 15.09 8.00054C15.09 7.52442 15.4773 7.1371 15.953 7.1371C16.4289 7.1371 16.8162 7.52442 16.8162 8.00054ZM17.3204 8.00054C17.3204 7.28786 16.7729 6.70146 16.0766 6.63874C15.8933 5.68446 15.5128 4.76622 14.9661 3.95966C15.4147 3.42322 15.3874 2.6207 14.8836 2.11706C14.3797 1.61322 13.5772 1.5855 13.0406 2.0343C10.6048 0.380495 7.39537 0.380495 4.95957 2.0343C4.42293 1.5855 3.62045 1.61322 3.11657 2.11706C2.61273 2.6207 2.58541 3.42322 3.03381 3.95966C2.48725 4.76622 2.10665 5.68446 1.92353 6.63874C1.22725 6.70146 0.679688 7.2879 0.679688 8.00054C0.679688 8.71282 1.22725 9.29922 1.92353 9.36194C2.10665 10.316 2.48729 11.2345 3.03381 12.0411C2.58541 12.5777 2.61273 13.38 3.11657 13.8836C3.61865 14.3858 4.42109 14.4173 4.95957 13.9664C7.39533 15.6202 10.6048 15.6202 13.0406 13.9664C13.58 14.4173 14.3813 14.3857 14.8836 13.8836C15.3874 13.38 15.4147 12.5777 14.9661 12.0411C15.5129 11.2345 15.8933 10.316 16.0766 9.36194C16.7729 9.29922 17.3204 8.71282 17.3204 8.00054Z" fill="black"/>
</svg>
