<svg width="40" height="40" viewBox="0 0 40 40" fill="none" xmlns="http://www.w3.org/2000/svg">
<rect x="0.249756" y="0.25" width="39.5" height="39.5" rx="19.75" stroke="black" stroke-opacity="0.3" stroke-width="0.5"/>
<path d="M11.3078 19.5581L10.9597 19.2099L11.3078 19.5581C11.425 19.4408 11.584 19.375 11.7498 19.375H28.2498C28.4155 19.375 28.5745 19.4408 28.6917 19.5581C28.8089 19.6753 28.8748 19.8342 28.8748 20C28.8748 20.1658 28.8089 20.3247 28.6917 20.4419L29.0452 20.7955L28.6917 20.4419C28.5745 20.5592 28.4155 20.625 28.2498 20.625H11.7498C11.584 20.625 11.425 20.5592 11.3078 20.4419C11.1906 20.3247 11.1248 20.1658 11.1248 20C11.1248 19.8342 11.1906 19.6753 11.3078 19.5581ZM28.6917 13.5581L29.0452 13.2045L28.6917 13.5581C28.8089 13.6753 28.8748 13.8342 28.8748 14C28.8748 14.1658 28.8089 14.3247 28.6917 14.4419L29.0452 14.7955L28.6917 14.4419C28.5745 14.5592 28.4155 14.625 28.2498 14.625H11.7498C11.584 14.625 11.425 14.5592 11.3078 14.4419C11.1906 14.3247 11.1248 14.1658 11.1248 14C11.1248 13.8342 11.1906 13.6753 11.3078 13.5581C11.425 13.4408 11.584 13.375 11.7498 13.375H28.2498C28.4155 13.375 28.5745 13.4408 28.6917 13.5581ZM11.7498 25.375H28.2498C28.4155 25.375 28.5745 25.4408 28.6917 25.5581C28.8089 25.6753 28.8748 25.8342 28.8748 26C28.8748 26.1658 28.8089 26.3247 28.6917 26.4419C28.5745 26.5592 28.4155 26.625 28.2498 26.625H11.7498C11.584 26.625 11.425 26.5592 11.3078 26.4419C11.1906 26.3247 11.1248 26.1658 11.1248 26C11.1248 25.8342 11.1906 25.6753 11.3078 25.5581C11.425 25.4408 11.584 25.375 11.7498 25.375Z" fill="#475569" stroke="#475569"/>
</svg>
