<svg width="164" height="164" viewBox="0 0 164 164" fill="none" xmlns="http://www.w3.org/2000/svg">
<g clip-path="url(#clip0_304_1299)">
<path d="M94.6418 8.2V58.7668C94.6418 63.2085 90.8835 66.9668 86.4418 66.9668H43.05L10.9332 83.7082V66.9665H8.2C3.75823 66.9665 0 63.2082 0 58.7665V8.2C0 3.75823 3.75823 0 8.2 0H86.7832C91.225 0 94.6418 3.75823 94.6418 8.2Z" fill="#F3705A"/>
<path d="M22.2082 42.3661C27.1142 42.3661 31.0914 38.3889 31.0914 33.4828C31.0914 28.5768 27.1142 24.5996 22.2082 24.5996C17.3021 24.5996 13.325 28.5768 13.325 33.4828C13.325 38.3889 17.3021 42.3661 22.2082 42.3661Z" fill="white"/>
<path d="M47.4917 42.3661C52.3978 42.3661 56.375 38.3889 56.375 33.4828C56.375 28.5768 52.3978 24.5996 47.4917 24.5996C42.5857 24.5996 38.6085 28.5768 38.6085 33.4828C38.6085 38.3889 42.5857 42.3661 47.4917 42.3661Z" fill="white"/>
<path d="M72.775 42.3661C77.681 42.3661 81.6582 38.3889 81.6582 33.4828C81.6582 28.5768 77.681 24.5996 72.775 24.5996C67.8689 24.5996 63.8917 28.5768 63.8917 33.4828C63.8917 38.3889 67.8689 42.3661 72.775 42.3661Z" fill="white"/>
<path d="M69.3583 28.3582V78.5832C69.3583 83.025 73.1165 86.7832 77.5583 86.7832H121.291L153.408 103.525V86.7832H155.8C160.242 86.7832 164 83.025 164 78.5832V28.3582C164 23.9164 160.242 20.1582 155.8 20.1582H77.2168C72.775 20.1582 69.3583 23.9167 69.3583 28.3582Z" fill="#FFD15C"/>
<path d="M141.792 62.5252C146.698 62.5252 150.675 58.5481 150.675 53.642C150.675 48.7359 146.698 44.7588 141.792 44.7588C136.886 44.7588 132.909 48.7359 132.909 53.642C132.909 58.5481 136.886 62.5252 141.792 62.5252Z" fill="white"/>
<path d="M116.508 62.5252C121.414 62.5252 125.391 58.5481 125.391 53.642C125.391 48.7359 121.414 44.7588 116.508 44.7588C111.602 44.7588 107.625 48.7359 107.625 53.642C107.625 58.5481 111.602 62.5252 116.508 62.5252Z" fill="white"/>
<path d="M91.225 62.5252C96.1311 62.5252 100.108 58.5481 100.108 53.642C100.108 48.7359 96.1311 44.7588 91.225 44.7588C86.319 44.7588 82.3418 48.7359 82.3418 53.642C82.3418 58.5481 86.319 62.5252 91.225 62.5252Z" fill="white"/>
<path d="M118.9 88.8328V139.4C118.9 143.841 115.142 147.6 110.7 147.6H83.7082L71.4082 164L59.1082 147.258H32.4582C28.0164 147.258 24.2582 143.5 24.2582 139.058V88.8328C24.2582 84.391 28.0164 80.6328 32.4582 80.6328H111.041C115.483 80.6328 118.9 84.3914 118.9 88.8328Z" fill="#66C6B9"/>
<path d="M96.6917 123C101.598 123 105.575 119.023 105.575 114.117C105.575 109.211 101.598 105.233 96.6917 105.233C91.7856 105.233 87.8085 109.211 87.8085 114.117C87.8085 119.023 91.7856 123 96.6917 123Z" fill="white"/>
<path d="M71.7499 123C76.656 123 80.6332 119.023 80.6332 114.117C80.6332 109.211 76.656 105.233 71.7499 105.233C66.8439 105.233 62.8667 109.211 62.8667 114.117C62.8667 119.023 66.8439 123 71.7499 123Z" fill="white"/>
<path d="M46.4667 123C51.3728 123 55.35 119.023 55.35 114.117C55.35 109.211 51.3728 105.233 46.4667 105.233C41.5607 105.233 37.5835 109.211 37.5835 114.117C37.5835 119.023 41.5607 123 46.4667 123Z" fill="white"/>
</g>
<defs>
<clipPath id="clip0_304_1299">
<rect width="164" height="164" fill="white"/>
</clipPath>
</defs>
</svg>
