<svg width="40" height="40" viewBox="0 0 40 40" fill="none" xmlns="http://www.w3.org/2000/svg">
<rect x="0.25" y="0.25" width="39.5" height="39.5" rx="19.75" stroke="black" stroke-opacity="0.3" stroke-width="0.5"/>
<path d="M22.7678 10.4566L22.7678 10.4566C22.9376 10.2868 23.1392 10.152 23.361 10.0601C23.5829 9.96821 23.8207 9.9209 24.0608 9.9209C24.3009 9.9209 24.5387 9.96821 24.7606 10.0601C24.9824 10.152 25.184 10.2868 25.3537 10.4566L25.3869 10.4235L25.3537 10.4566L29.5425 14.6463C29.8852 14.9891 30.0777 15.454 30.0777 15.9388C30.0777 16.4235 29.8852 16.8884 29.5425 17.2313L17.9822 28.7925L17.9821 28.7926C17.8128 28.9629 17.6114 29.0979 17.3896 29.1899C17.1678 29.2818 16.9299 29.3288 16.6898 29.3282H16.6897H12.5C12.0152 29.3282 11.5502 29.1355 11.2073 28.7927C10.8645 28.4499 10.6719 27.9849 10.6719 27.5L10.6719 23.3103L10.6719 23.3102C10.6712 23.0701 10.7182 22.8322 10.8101 22.6104C10.902 22.3886 11.0371 22.1872 11.2074 22.018L11.2075 22.0179L22.7678 10.4566ZM16.5313 27.1719H16.5507L16.5644 27.1582L24.4394 19.2832L24.4725 19.25L24.4394 19.2169L20.7832 15.5606L20.75 15.5275L20.7169 15.5606L12.8419 23.4356L12.8281 23.4494V23.4688V27.125V27.1719H12.875H16.5313ZM25.9669 17.6894L26 17.7226L26.0332 17.6894L27.7525 15.97L27.7857 15.9369L27.7525 15.9038L24.0963 12.2475L24.0631 12.2144L24.03 12.2475L22.3106 13.9669L22.2775 14L22.3106 14.0332L25.9669 17.6894ZM12.5 29.375H16.6897L11.1744 21.9847C10.9996 22.1583 10.8611 22.3649 10.7668 22.5924C10.6725 22.82 10.6243 23.064 10.625 23.3103V27.5C10.625 27.9973 10.8226 28.4742 11.1742 28.8259C11.5258 29.1775 12.0027 29.375 12.5 29.375Z" fill="#475569" stroke="#475569" stroke-width="0.09375"/>
</svg>
