<svg width="164" height="164" viewBox="0 0 164 164" fill="none" xmlns="http://www.w3.org/2000/svg">
<path d="M102.634 19.3174H39.6198C38.2927 19.3174 37.2174 20.3927 37.2174 21.7197C37.2174 23.0468 38.2927 24.1221 39.6198 24.1221H102.634C103.961 24.1221 105.036 23.0468 105.036 21.7197C105.036 20.3927 103.961 19.3174 102.634 19.3174Z" fill="#317B22"/>
<path d="M102.634 43.2734H39.6198C38.2927 43.2734 37.2174 44.3487 37.2174 45.6758C37.2174 47.0028 38.2927 48.0781 39.6198 48.0781H102.634C103.961 48.0781 105.036 47.0028 105.036 45.6758C105.036 44.3487 103.961 43.2734 102.634 43.2734Z" fill="#317B22"/>
<path d="M102.634 67.2285H39.6198C38.2927 67.2285 37.2174 68.3038 37.2174 69.6309C37.2174 70.9579 38.2927 72.0332 39.6198 72.0332H102.634C103.961 72.0332 105.036 70.9579 105.036 69.6309C105.036 68.3038 103.961 67.2285 102.634 67.2285Z" fill="#317B22"/>
<path d="M118.974 84.751C100.119 84.751 84.7794 100.091 84.7794 118.946C84.7794 137.801 100.119 153.141 118.974 153.141C137.83 153.141 153.169 137.801 153.169 118.946C153.169 100.091 137.83 84.751 118.974 84.751ZM118.974 148.337C102.768 148.337 89.584 135.152 89.584 118.946C89.584 102.74 102.768 89.5557 118.974 89.5557C135.18 89.5557 148.365 102.74 148.365 118.946C148.365 135.152 135.18 148.337 118.974 148.337Z" fill="#317B22"/>
<path d="M118.974 99.3398C120.301 99.3398 121.377 98.2646 121.377 96.9375V95.8369C121.377 94.5099 120.301 93.4346 118.974 93.4346C117.647 93.4346 116.572 94.5099 116.572 95.8369V96.9375C116.572 98.2646 117.647 99.3398 118.974 99.3398Z" fill="#317B22"/>
<path d="M133.616 100.907L132.838 101.685C131.9 102.623 131.899 104.145 132.837 105.083C133.774 106.02 135.296 106.022 136.234 105.084L137.013 104.305C137.951 103.367 137.952 101.846 137.014 100.908C136.075 99.9694 134.554 99.9697 133.616 100.907Z" fill="#317B22"/>
<path d="M138.58 118.946C138.58 120.273 139.655 121.349 140.982 121.349H142.083C143.41 121.349 144.485 120.273 144.485 118.946C144.485 117.619 143.41 116.544 142.083 116.544H140.982C139.655 116.544 138.58 117.62 138.58 118.946Z" fill="#317B22"/>
<path d="M96.966 116.544H95.8654C94.5383 116.544 93.463 117.619 93.463 118.946C93.463 120.273 94.5383 121.349 95.8654 121.349H96.966C98.293 121.349 99.3683 120.273 99.3683 118.946C99.3683 117.619 98.2927 116.544 96.966 116.544Z" fill="#317B22"/>
<path d="M136.234 132.809C135.296 131.871 133.775 131.871 132.837 132.81C131.899 133.748 131.9 135.269 132.838 136.207L133.616 136.985C134.554 137.923 136.075 137.924 137.014 136.984C137.952 136.046 137.951 134.525 137.013 133.587L136.234 132.809Z" fill="#317B22"/>
<path d="M118.974 138.552C117.647 138.552 116.572 139.627 116.572 140.954V142.055C116.572 143.382 117.647 144.457 118.974 144.457C120.301 144.457 121.377 143.382 121.377 142.055V140.954C121.377 139.627 120.301 138.552 118.974 138.552Z" fill="#317B22"/>
<path d="M101.713 132.81L100.935 133.588C99.9968 134.526 99.9968 136.047 100.935 136.985C101.874 137.923 103.394 137.923 104.333 136.985L105.111 136.207C106.049 135.269 106.049 133.748 105.111 132.81C104.172 131.872 102.652 131.872 101.713 132.81Z" fill="#317B22"/>
<path d="M104.333 100.908C103.394 99.9696 101.873 99.9696 100.935 100.908C99.9971 101.846 99.9971 103.367 100.935 104.305L101.713 105.083C102.652 106.021 104.173 106.021 105.111 105.083C106.049 104.145 106.049 102.624 105.111 101.686L104.333 100.908Z" fill="#317B22"/>
<path d="M125.522 116.544H121.377V106.267C121.377 104.94 120.301 103.864 118.974 103.864C117.647 103.864 116.572 104.94 116.572 106.267V118.946C116.572 120.273 117.647 121.348 118.974 121.348H125.522C126.849 121.348 127.924 120.273 127.924 118.946C127.924 117.619 126.849 116.544 125.522 116.544Z" fill="#317B22"/>
<path d="M155.518 92.6419C154.742 91.5656 153.241 91.3231 152.164 92.0983C151.089 92.8744 150.845 94.3757 151.621 95.4523C156.576 102.325 159.195 110.449 159.195 118.946C159.195 141.124 141.152 159.167 118.974 159.167C96.7962 159.167 78.753 141.124 78.753 118.946C78.753 96.7681 96.7962 78.7249 118.974 78.7249C128.753 78.7249 138.181 82.2788 145.52 88.7315C146.515 89.6066 148.034 89.5102 148.91 88.5134C149.786 87.5172 149.689 85.9989 148.692 85.1228C140.792 78.1769 130.731 74.2335 120.238 73.9398V36.3934H140.751C143.31 36.3934 145.392 34.3114 145.392 31.7524V15.0074C145.392 6.56684 138.401 0.0273438 130.66 0.0273438H74.1982C72.8711 0.0273438 71.7958 1.10263 71.7958 2.42969C71.7958 3.75674 72.8711 4.83203 74.1982 4.83203H119.432C116.953 7.506 115.433 11.0816 115.433 15.0074V74.0589C102.517 75.0686 91.1142 81.5514 83.5484 91.1844H39.6198C38.2927 91.1844 37.2174 92.2597 37.2174 93.5868C37.2174 94.9138 38.2927 95.9891 39.6198 95.9891H80.2549C77.53 100.567 75.5925 105.665 74.6338 111.098H24.9152V12.4318C24.9152 8.24144 28.3246 4.83203 32.5149 4.83203H64.5929C65.92 4.83203 66.9953 3.75674 66.9953 2.42969C66.9953 1.10263 65.92 0.0273438 64.5929 0.0273438H32.5149C25.675 0.0273438 20.1105 5.59181 20.1105 12.4318V111.098H2.40234C1.07529 111.098 0 112.174 0 113.501V118.157C0 129.287 9.05523 138.342 20.1851 138.342H27.922C29.249 138.342 30.3243 137.267 30.3243 135.939C30.3243 134.612 29.249 133.537 27.922 133.537H20.1851C11.7042 133.537 4.80469 126.638 4.80469 118.157V115.903H74.053C73.9855 116.909 73.948 117.923 73.948 118.946C73.948 124.051 74.8035 128.959 76.376 133.537H37.5272C36.2001 133.537 35.1248 134.612 35.1248 135.939C35.1248 137.267 36.2001 138.342 37.5272 138.342H78.3446C85.6042 153.487 101.087 163.972 118.974 163.972C143.801 163.972 164 143.773 164 118.946C164 109.434 161.067 100.338 155.518 92.6419ZM140.588 15.0074V31.5887H120.238V15.0074C120.238 9.39649 124.802 4.83203 130.413 4.83203C136.023 4.83203 140.588 9.39649 140.588 15.0074Z" fill="#317B22"/>
</svg>
