<svg width="55" height="55" viewBox="0 0 55 55" fill="none" xmlns="http://www.w3.org/2000/svg">
<path d="M0 27.5C0 12.3122 12.3122 0 27.5 0C42.6878 0 55 12.3122 55 27.5C55 42.6878 42.6878 55 27.5 55C12.3122 55 0 42.6878 0 27.5Z" fill="#317B22" fill-opacity="0.1"/>
<path d="M22.047 28.0405C21.9168 28.0205 21.7854 28.0093 21.6538 28.0069C21.358 28.0033 21.2322 28.1119 21.2331 28.1117C21.1458 28.1733 21.1035 28.2651 21.1035 28.3919C21.1035 28.4727 21.1182 28.5358 21.147 28.5802C21.1658 28.6097 21.1737 28.6208 21.2306 28.6662L21.2314 28.6666C21.2305 28.6664 21.3609 28.769 21.6558 28.7512C21.8634 28.7387 22.0472 28.6992 22.0472 28.6992H22.047V28.0405Z" fill="#00A1E2"/>
<path d="M30.7173 27.1797C30.5262 27.1797 30.391 27.2449 30.3021 27.3809C30.2125 27.5177 30.167 27.7125 30.167 27.9605C30.167 28.2085 30.2123 28.4051 30.3021 28.5429C30.3912 28.6794 30.5271 28.7459 30.7173 28.7459C30.9075 28.7459 31.0439 28.6789 31.1343 28.542C31.2249 28.4034 31.2711 28.2079 31.2712 27.9601C31.2711 27.7123 31.2254 27.5176 31.1343 27.3809C31.0443 27.2456 30.9084 27.1797 30.7173 27.1797Z" fill="#00A1E2"/>
<path d="M24.8951 27.168C24.705 27.168 24.5697 27.2423 24.4808 27.3783C24.4216 27.4674 24.3837 27.5822 24.3633 27.7199L25.3967 27.7201C25.3869 27.5868 25.3608 27.4679 25.3012 27.3783C25.2111 27.2427 25.0853 27.168 24.8951 27.168Z" fill="#00A1E2"/>
<path d="M34.6076 22.1189C33.8573 22.1186 33.1153 22.2767 32.4304 22.5829C31.6587 21.2141 30.2256 20.2955 28.5721 20.2955C27.3319 20.2955 26.2093 20.8154 25.4027 21.655L25.4037 21.6598C24.5218 20.4978 23.1163 19.749 21.5454 19.749C18.8629 19.749 16.6857 21.917 16.6857 24.5995C16.6851 25.2632 16.8211 25.9199 17.0854 26.5287C15.8396 27.2635 15 28.6231 15 30.1848C15 32.509 16.8648 34.4014 19.1707 34.4014C19.459 34.4016 19.7465 34.3716 20.0287 34.3121C20.6625 36.03 22.3069 37.2518 24.2452 37.2518C26.1009 37.2518 27.6947 36.1218 28.3791 34.5142C28.917 34.7765 29.5077 34.9122 30.1062 34.9111C31.576 34.9111 32.8667 34.0935 33.5419 32.89C33.8892 32.9591 34.2438 32.9957 34.6075 32.9957C37.584 32.9957 40 30.5613 40 27.5573C40 24.5534 37.584 22.1189 34.6076 22.1189ZM20.3737 28.4261C20.3737 28.8652 20.0549 29.138 19.5423 29.138C19.2906 29.138 19.05 29.0985 18.7946 28.9635C18.7468 28.9359 18.6991 28.9113 18.6522 28.8772C18.6471 28.87 18.6258 28.8614 18.6416 28.8205L18.6412 28.8197L18.7422 28.5386C18.7582 28.4905 18.795 28.5065 18.8097 28.5154C18.8375 28.5324 18.8581 28.5476 18.8942 28.5687C19.1928 28.7573 19.4683 28.7588 19.5547 28.7588C19.777 28.7588 19.9157 28.6403 19.9157 28.4813V28.4727C19.9157 28.3 19.7026 28.2342 19.4564 28.1585L19.402 28.1416C19.064 28.0451 18.702 27.9055 18.702 27.4774V27.4687C18.702 27.0626 19.03 26.7788 19.4994 26.7788L19.5505 26.7786C19.8261 26.7786 20.0925 26.8585 20.2854 26.9761C20.303 26.9866 20.3201 27.0068 20.3104 27.0338C20.3012 27.0595 20.2155 27.2889 20.2056 27.3149C20.1875 27.3629 20.1377 27.3308 20.1377 27.3308C19.9696 27.2379 19.7069 27.1645 19.4864 27.1645C19.288 27.1645 19.1594 27.2702 19.1594 27.4135V27.422C19.1594 27.5893 19.3789 27.6611 19.6334 27.7436L19.6774 27.7578C20.0136 27.8635 20.3737 28.0113 20.3737 28.4174L20.3737 28.4261ZM22.4766 28.9911C22.4766 28.9911 22.4229 29.0057 22.3746 29.0167C22.2536 29.043 22.132 29.0666 22.0099 29.0876C21.8666 29.1118 21.7187 29.1243 21.5699 29.1243C21.4284 29.1243 21.2998 29.1112 21.1859 29.0852C21.071 29.0595 20.9716 29.0161 20.891 28.9575C20.81 28.8988 20.745 28.8208 20.7018 28.7306C20.6577 28.6397 20.6354 28.5285 20.6354 28.3999C20.6354 28.2731 20.6615 28.1611 20.7129 28.0655C20.7638 27.9708 20.8357 27.8891 20.9232 27.8267C21.0105 27.7638 21.1125 27.7166 21.2255 27.6861C21.3375 27.6558 21.4579 27.6403 21.5819 27.6403C21.6729 27.6403 21.7491 27.6424 21.8079 27.6468L21.8093 27.6501C21.8093 27.6501 21.9241 27.6605 22.0481 27.6785V27.6172C22.0481 27.4244 22.0078 27.3326 21.9287 27.2718C21.8479 27.2098 21.7266 27.1781 21.5705 27.1781C21.5705 27.1781 21.2177 27.1735 20.9394 27.3251C20.9265 27.3328 20.9156 27.3371 20.9156 27.3371C20.9156 27.3371 20.8808 27.3493 20.868 27.3136L20.7651 27.038C20.7495 26.998 20.7781 26.9804 20.7781 26.9804C20.9085 26.8782 21.2246 26.8168 21.2246 26.8168C21.3293 26.7958 21.5047 26.7811 21.6131 26.7811C21.9025 26.7811 22.1257 26.8481 22.2782 26.9814C22.4313 27.1146 22.5088 27.3305 22.5088 27.6208L22.5096 28.9437C22.5097 28.9437 22.5124 28.9819 22.4766 28.9911ZM23.4485 29.0377C23.4485 29.062 23.4312 29.0817 23.407 29.0817H23.0227C22.9983 29.0817 22.9811 29.062 22.9811 29.0377V25.9448C22.9811 25.9207 22.9984 25.9011 23.0227 25.9011H23.407C23.4313 25.9011 23.4485 25.9206 23.4485 25.9448V29.0377ZM25.8502 28.0412C25.8462 28.0785 25.808 28.0788 25.808 28.0788L24.3565 28.0777C24.3648 28.2982 24.4181 28.4535 24.5247 28.56C24.6294 28.6641 24.7966 28.7305 25.0208 28.7309C25.3652 28.7318 25.5122 28.6622 25.616 28.6234C25.616 28.6234 25.6561 28.6091 25.6707 28.6487L25.7653 28.9142C25.7843 28.959 25.7691 28.9745 25.7531 28.9835C25.6631 29.034 25.4426 29.1272 25.0237 29.1287C24.8198 29.1293 24.6434 29.1 24.4974 29.0435C24.3504 28.9865 24.2282 28.9057 24.1327 28.8019C24.038 28.699 23.9671 28.575 23.9232 28.4335C23.8794 28.293 23.8574 28.1377 23.8574 27.9706C23.8574 27.807 23.8787 27.6509 23.9208 27.5084C23.963 27.3643 24.0295 27.2384 24.1174 27.1318C24.2056 27.0252 24.3177 26.94 24.4509 26.8773C24.5841 26.8152 24.7485 26.7846 24.9295 26.7846C25.0722 26.7843 25.2134 26.813 25.3447 26.8688C25.4357 26.9074 25.5266 26.9782 25.6203 27.0783C25.6791 27.1417 25.7695 27.2804 25.8059 27.4172L25.8069 27.4175C25.8999 27.7435 25.8518 28.0257 25.8502 28.0412ZM27.0475 29.1373C26.7958 29.1373 26.5551 29.0978 26.2997 28.9627C26.2519 28.9351 26.2041 28.9105 26.1573 28.8765C26.1521 28.8692 26.1307 28.8607 26.1464 28.8197L26.1453 28.8189L26.2464 28.5378C26.2612 28.4919 26.3044 28.5088 26.3137 28.5147C26.3411 28.5323 26.3622 28.5468 26.3983 28.5679C26.696 28.7565 26.9722 28.7581 27.0588 28.7581C27.2812 28.7581 27.4199 28.6396 27.4199 28.4806V28.472C27.4199 28.2993 27.2077 28.2335 26.9605 28.1578L26.9062 28.1409C26.5682 28.0444 26.2063 27.9047 26.2063 27.4767V27.4679C26.2063 27.0619 26.5342 26.778 27.0036 26.778L27.0549 26.7778C27.3305 26.7778 27.5969 26.8578 27.7898 26.9753C27.8072 26.9858 27.8244 27.0061 27.8146 27.0331C27.8063 27.0587 27.7205 27.2882 27.7108 27.3142C27.6926 27.3622 27.6428 27.33 27.6428 27.33C27.4738 27.2372 27.212 27.1638 26.9915 27.1638C26.7931 27.1638 26.6645 27.2694 26.6645 27.4127V27.4213C26.6645 27.5885 26.884 27.6604 27.1385 27.7428L27.1825 27.7571C27.5196 27.8627 27.8788 28.0106 27.8788 28.4166V28.4253C27.8789 28.8645 27.5601 29.1373 27.0475 29.1373ZM29.5839 27.178C29.5756 27.2217 29.5354 27.2202 29.5354 27.2202H29.058L28.7315 29.0675C28.6973 29.2584 28.6545 29.4224 28.6042 29.5543C28.5534 29.6876 28.5003 29.7853 28.4159 29.8785C28.3378 29.9649 28.2495 30.0288 28.1481 30.0654C28.0473 30.1018 27.9258 30.1206 27.7924 30.1206C27.7287 30.1206 27.6607 30.1194 27.5801 30.1003C27.522 30.0867 27.4903 30.0769 27.4477 30.0617C27.4295 30.0551 27.4151 30.0325 27.4254 30.0039C27.4355 29.9748 27.5209 29.7401 27.5329 29.7093C27.5477 29.6717 27.5852 29.686 27.5852 29.686C27.611 29.6968 27.629 29.7045 27.6634 29.7114C27.6979 29.7183 27.7445 29.7242 27.7796 29.7242C27.8426 29.7242 27.9001 29.7165 27.9501 29.6996C28.0106 29.6793 28.0457 29.6445 28.0828 29.5972C28.121 29.5483 28.1521 29.481 28.1838 29.3911C28.2161 29.3001 28.2452 29.1799 28.2707 29.0339L28.5956 27.2202H28.2753C28.2368 27.2204 28.2244 27.2023 28.2281 27.1735L28.2821 26.8722C28.2906 26.8284 28.3307 26.83 28.3307 26.83H28.6597L28.6774 26.7318C28.7266 26.4409 28.8246 26.2198 28.9686 26.0746C29.1137 25.9284 29.3203 25.8543 29.5824 25.8543C29.6483 25.8536 29.7143 25.8587 29.7793 25.8695C29.8277 25.878 29.8755 25.8893 29.9226 25.9035C29.9329 25.9076 29.9606 25.9213 29.9492 25.954L29.8384 26.2583C29.8292 26.2812 29.8228 26.2951 29.7756 26.2807C29.7638 26.2772 29.7464 26.2721 29.7015 26.2626C29.6688 26.2558 29.626 26.2505 29.5824 26.2505C29.5297 26.2498 29.4772 26.2574 29.4269 26.2729C29.381 26.288 29.3394 26.3139 29.3056 26.3485C29.2694 26.3848 29.2267 26.4376 29.204 26.5031C29.1508 26.6565 29.1297 26.8194 29.1274 26.8299H29.5907C29.6295 26.8297 29.6418 26.8478 29.638 26.8766L29.5839 27.178ZM31.6986 28.4203C31.6563 28.5626 31.591 28.6876 31.5038 28.7923C31.4166 28.8971 31.3054 28.9808 31.175 29.0403C31.0445 29.0999 30.8902 29.1302 30.7166 29.1302C30.5429 29.1302 30.3886 29.0999 30.2572 29.0403C30.1268 28.9806 30.0157 28.897 29.9284 28.7923C29.8411 28.6875 29.7756 28.5626 29.7336 28.4203C29.6918 28.2788 29.6706 28.1245 29.6706 27.96C29.6706 27.7956 29.6918 27.6413 29.7336 27.4998C29.7758 27.3574 29.8413 27.2324 29.9284 27.1277C30.0156 27.023 30.1268 26.9389 30.2572 26.8779C30.3886 26.8169 30.542 26.786 30.7166 26.786C30.8911 26.786 31.0454 26.8167 31.1759 26.8779C31.3072 26.9385 31.4174 27.023 31.5047 27.1277C31.592 27.2325 31.6573 27.3574 31.6995 27.4998H31.6986C31.7403 27.6412 31.7615 27.7965 31.7615 27.96C31.7615 28.1245 31.7403 28.2788 31.6986 28.4203ZM33.4747 26.9L33.4756 26.894C33.4619 26.9335 33.3912 27.1318 33.3663 27.1981C33.3568 27.2233 33.3413 27.2403 33.3134 27.2372C33.3134 27.2372 33.2302 27.2178 33.1544 27.2178C33.0886 27.2178 33.023 27.227 32.9597 27.2452C32.8922 27.2661 32.8308 27.303 32.7805 27.3526C32.7279 27.4041 32.6852 27.4758 32.6538 27.5658C32.6219 27.6567 32.6059 27.8009 32.6059 27.9461V29.0301C32.6059 29.0543 32.5863 29.074 32.562 29.074H32.1817C32.1574 29.074 32.1377 29.0543 32.1377 29.0301V26.8712C32.1377 26.847 32.1551 26.8274 32.1792 26.8274H32.5503C32.5748 26.8274 32.5919 26.847 32.5919 26.8712L32.5921 27.0476C32.6473 26.9723 32.7466 26.9071 32.8365 26.8666C32.9274 26.8258 33.0285 26.7952 33.2104 26.8066C33.305 26.8125 33.4282 26.8384 33.4529 26.8479C33.4533 26.848 33.4537 26.8482 33.4541 26.8483C33.4741 26.8569 33.4833 26.88 33.4747 26.9ZM35.3055 29.0168C35.1438 29.0809 34.9188 29.1252 34.6992 29.1252C34.3281 29.1252 34.0433 29.0187 33.8541 28.8074C33.6648 28.597 33.5693 28.3095 33.5693 27.9549C33.5693 27.7905 33.5927 27.6352 33.6391 27.4937C33.6859 27.3514 33.7558 27.2264 33.8477 27.1217C33.9395 27.0169 34.0553 26.9328 34.1921 26.8718C34.329 26.8108 34.4889 26.7801 34.6689 26.7801C34.7901 26.7801 34.8977 26.7874 34.9904 26.8016C35.0896 26.8166 35.2207 26.852 35.2761 26.8738C35.2863 26.8777 35.3143 26.8915 35.3029 26.9241C35.2625 27.038 35.2348 27.1124 35.1972 27.2162C35.1812 27.2604 35.1476 27.2458 35.1476 27.2458C35.0062 27.2015 34.8711 27.181 34.6947 27.181C34.4834 27.181 34.3236 27.2527 34.2198 27.3905C34.1146 27.5301 34.056 27.712 34.0553 27.9545C34.0544 28.2209 34.1206 28.4175 34.2391 28.5397C34.3566 28.6618 34.522 28.7234 34.7287 28.7234C34.8123 28.7234 34.8917 28.7178 34.9629 28.7066C35.0337 28.6956 35.1001 28.6735 35.1623 28.6498C35.1623 28.6498 35.2029 28.634 35.2169 28.6756H35.2173L35.3229 28.9659C35.3364 29.002 35.3055 29.0168 35.3055 29.0168ZM37.4535 28.0412C37.4496 28.0785 37.4113 28.0788 37.4113 28.0788L35.9599 28.0777C35.9681 28.2982 36.0214 28.4535 36.128 28.56C36.2327 28.6641 36.399 28.7305 36.624 28.7309C36.9685 28.7318 37.1155 28.6622 37.2193 28.6234C37.2193 28.6234 37.2593 28.6091 37.2739 28.6487L37.3685 28.9142C37.3875 28.959 37.3723 28.9745 37.3562 28.9835C37.2662 29.034 37.0457 29.1272 36.6268 29.1287C36.4238 29.1293 36.2465 29.1 36.1004 29.0435C35.9535 28.9865 35.8312 28.9057 35.7357 28.8019C35.6402 28.699 35.5694 28.575 35.5254 28.4335C35.4818 28.293 35.4597 28.1377 35.4597 27.9706C35.4597 27.807 35.4811 27.6509 35.5233 27.5084C35.5655 27.3643 35.6318 27.2384 35.7199 27.1318C35.8081 27.0252 35.9201 26.94 36.0533 26.8773C36.1865 26.8152 36.351 26.7846 36.5319 26.7846C36.6746 26.7843 36.8159 26.813 36.9472 26.8688C37.0381 26.9074 37.1291 26.9782 37.2228 27.0783C37.2815 27.1417 37.3718 27.2804 37.4083 27.4172L37.4103 27.4175C37.5032 27.7435 37.4551 28.0257 37.4535 28.0412Z" fill="#00A1E2"/>
<path d="M36.4977 27.168C36.3075 27.168 36.1722 27.2423 36.0834 27.3783C36.024 27.4674 35.9863 27.5822 35.9658 27.7199L36.9993 27.7201C36.9896 27.5868 36.9634 27.4679 36.9037 27.3783C36.8137 27.2427 36.6878 27.168 36.4977 27.168Z" fill="#00A1E2"/>
</svg>
