<svg width="40" height="40" viewBox="0 0 40 40" fill="none" xmlns="http://www.w3.org/2000/svg">
<rect x="0.249756" y="0.25" width="39.5" height="39.5" rx="19.75" stroke="black" stroke-opacity="0.3" stroke-width="0.5"/>
<path d="M29.8787 17.6546L29.877 17.6537L27.2717 16.1678L27.0205 16.0244L27.0195 15.7352L27.0091 12.7999C27.0088 12.7094 26.9889 12.6201 26.9507 12.538C26.9124 12.456 26.8569 12.3833 26.7878 12.3249L26.7877 12.3248C25.7861 11.4774 24.6328 10.8276 23.389 10.4099L23.3884 10.4097C23.3058 10.3818 23.2182 10.3716 23.1314 10.3795C23.0447 10.3875 22.9606 10.4135 22.8845 10.4559L29.8787 17.6546ZM29.8787 17.6546C29.9568 17.6988 30.0245 17.7593 30.0772 17.832C30.1298 17.9047 30.1662 17.9878 30.1838 18.0758C30.4364 19.3455 30.437 20.6524 30.1855 21.9222L30.1855 21.9224C30.1681 22.0106 30.1318 22.094 30.0793 22.1669C30.0267 22.2398 29.959 22.3005 29.8808 22.3448L29.8805 22.345L27.2733 23.8272L27.0217 23.9702L27.0204 24.2596L27.0073 27.1978C27.0069 27.288 26.9869 27.3771 26.9488 27.4589C26.9107 27.5408 26.8553 27.6134 26.7864 27.6717L26.7863 27.6718C25.785 28.5211 24.6317 29.1727 23.3875 29.5921L23.3874 29.5922C23.3046 29.6201 23.2168 29.6304 23.1298 29.6223C23.0428 29.6142 22.9584 29.588 22.8822 29.5453L22.882 29.5452L20.2438 28.0696L19.9998 27.9331L19.7558 28.0695L17.1181 29.5439L29.8787 17.6546ZM20.2435 11.9306L22.8842 10.4561L17.1177 29.5442C17.0416 29.5865 16.9576 29.6125 16.8709 29.6204C16.7841 29.6284 16.6966 29.6182 16.614 29.5903L16.6133 29.5901C15.3695 29.1724 14.2162 28.5226 13.2146 27.6752L13.2145 27.6751C13.1455 27.6167 13.0899 27.544 13.0517 27.4619C13.0135 27.3799 12.9935 27.2906 12.9932 27.2001L12.9829 24.2648L12.9819 23.9754L12.7304 23.8321L10.1223 22.3462L10.1213 22.3456C10.0433 22.3014 9.97567 22.2409 9.9231 22.1682C9.87055 22.0955 9.83426 22.0124 9.81668 21.9245C9.56466 20.6547 9.56469 19.3477 9.81676 18.078L9.81684 18.0776C9.83426 17.9894 9.8705 17.906 9.92309 17.8331C9.97567 17.7602 10.0434 17.6995 10.1215 17.6552L10.1223 17.6547L12.7238 16.1726L12.975 16.0294L12.9763 15.7403L12.9894 12.8022V12.8022C12.9898 12.712 13.0098 12.6228 13.0479 12.541C13.086 12.4592 13.1414 12.3866 13.2103 12.3283L13.2104 12.3282C14.2117 11.4789 15.365 10.8273 16.6092 10.4079L16.6093 10.4078C16.6921 10.3799 16.7799 10.3696 16.8669 10.3777C16.9539 10.3857 17.0383 10.412 17.1145 10.4547L17.1149 10.4549L19.7559 11.9305L19.9997 12.0668L20.2435 11.9306ZM27.5073 27.2L27.5204 24.2619L16.9167 30.1183C17.073 30.104 17.2246 30.0571 17.3616 29.9806L19.9998 28.5059L22.6379 29.9816C22.7751 30.0584 22.927 30.1056 23.0836 30.1202C23.2403 30.1347 23.3982 30.1162 23.5473 30.0659C24.8514 29.6263 26.0602 28.9433 27.1098 28.0531C27.2337 27.9481 27.3334 27.8174 27.402 27.6701C27.4706 27.5229 27.5065 27.3625 27.5073 27.2ZM28.7997 21.5231L29.0151 21.4006L29.0481 21.1551C29.1515 20.3861 29.1505 19.6067 29.0451 18.838L29.0116 18.5937L28.7973 18.4715L26.2755 17.0343L26.2738 17.0334C26.1754 16.9778 26.0941 16.8962 26.0389 16.7976C25.9834 16.698 25.925 16.6004 25.8684 16.5087L25.8666 16.5058C25.8048 16.4071 25.7718 16.2931 25.7713 16.1767L25.761 13.3419L25.7601 13.0925L25.5603 12.9432C24.9167 12.4622 24.2125 12.0681 23.4659 11.771L23.2448 11.6831L23.0371 11.7992L20.4906 13.2223C20.4903 13.2225 20.4901 13.2226 20.4899 13.2227C20.3918 13.2769 20.2811 13.304 20.1691 13.3014L20.1691 13.3012H20.1573H20.1566H20.156H20.1554H20.1548H20.1541H20.1535H20.1529H20.1523H20.1516H20.151H20.1504H20.1497H20.1491H20.1485H20.1479H20.1472H20.1466H20.146H20.1454H20.1447H20.1441H20.1435H20.1428H20.1422H20.1416H20.141H20.1403H20.1397H20.1391H20.1385H20.1378H20.1372H20.1366H20.1359H20.1353H20.1347H20.1341H20.1334H20.1328H20.1322H20.1316H20.1309H20.1303H20.1297H20.129H20.1284H20.1278H20.1272H20.1265H20.1259H20.1253H20.1246H20.124H20.1234H20.1228H20.1221H20.1215H20.1209H20.1202H20.1196H20.119H20.1184H20.1177H20.1171H20.1165H20.1158H20.1152H20.1146H20.114H20.1133H20.1127H20.1121H20.1114H20.1108H20.1102H20.1096H20.1089H20.1083H20.1077H20.107H20.1064H20.1058H20.1052H20.1045H20.1039H20.1033H20.1026H20.102H20.1014H20.1007H20.1001H20.0995H20.0989H20.0982H20.0976H20.097H20.0963H20.0957H20.0951H20.0945H20.0938H20.0932H20.0926H20.0919H20.0913H20.0907H20.09H20.0894H20.0888H20.0882H20.0875H20.0869H20.0863H20.0856H20.085H20.0844H20.0837H20.0831H20.0825H20.0819H20.0812H20.0806H20.08H20.0793H20.0787H20.0781H20.0774H20.0768H20.0762H20.0756H20.0749H20.0743H20.0737H20.073H20.0724H20.0718H20.0711H20.0705H20.0699H20.0692H20.0686H20.068H20.0674H20.0667H20.0661H20.0655H20.0648H20.0642H20.0636H20.0629H20.0623H20.0617H20.061H20.0604H20.0598H20.0592H20.0585H20.0579H20.0573H20.0566H20.056H20.0554H20.0547H20.0541H20.0535H20.0528H20.0522H20.0516H20.051H20.0503H20.0497H20.0491H20.0484H20.0478H20.0472H20.0465H20.0459H20.0453H20.0446H20.044H20.0434H20.0427H20.0421H20.0415H20.0409H20.0402H20.0396H20.039H20.0383H20.0377H20.0371H20.0364H20.0358H20.0352H20.0345H20.0339H20.0333H20.0326H20.032H20.0314H20.0308H20.0301H20.0295H20.0289H20.0282H20.0276H20.027H20.0263H20.0257H20.0251H20.0244H20.0238H20.0232H20.0225H20.0219H20.0213H20.0206H20.02H20.0194H20.0188H20.0181H20.0175H20.0169H20.0162H20.0156H20.015H20.0143H20.0137H20.0131H20.0124H20.0118H20.0112H20.0105H20.0099H20.0093H20.0086H20.008H20.0074H20.0068H20.0061H20.0055H20.0049H20.0042H20.0036H20.003H20.0023H20.0017H20.0011H20.0004H19.9998H19.9992H19.9985H19.9979H19.9973H19.9966H19.996H19.9954H19.9947H19.9941H19.9935H19.9929H19.9922H19.9916H19.991H19.9903H19.9897H19.9891H19.9884H19.9878H19.9872H19.9865H19.9859H19.9853H19.9846H19.984H19.9834H19.9827H19.9821H19.9815H19.9809H19.9802H19.9796H19.979H19.9783H19.9777H19.9771H19.9764H19.9758H19.9752H19.9745H19.9739H19.9733H19.9726H19.972H19.9714H19.9707H19.9701H19.9695H19.9689H19.9682H19.9676H19.967H19.9663H19.9657H19.9651H19.9644H19.9638H19.9632H19.9625H19.9619H19.9613H19.9606H19.96H19.9594H19.9587H19.9581H19.9575H19.9569H19.9562H19.9556H19.955H19.9543H19.9537H19.9531H19.9524H19.9518H19.9512H19.9505H19.9499H19.9493H19.9486H19.948H19.9474H19.9468H19.9461H19.9455H19.9449H19.9442H19.9436H19.943H19.9423H19.9417H19.9411H19.9404H19.9398H19.9392H19.9385H19.9379H19.9373H19.9367H19.936H19.9354H19.9348H19.9341H19.9335H19.9329H19.9322H19.9316H19.931H19.9303H19.9297H19.9291H19.9285H19.9278H19.9272H19.9266H19.9259H19.9253H19.9247H19.924H19.9234H19.9228H19.9221H19.9215H19.9209H19.9203H19.9196H19.919H19.9184H19.9177H19.9171H19.9165H19.9158H19.9152H19.9146H19.914H19.9133H19.9127H19.9121H19.9114H19.9108H19.9102H19.9095H19.9089H19.9083H19.9076H19.907H19.9064H19.9058H19.9051H19.9045H19.9039H19.9032H19.9026H19.902H19.9014H19.9007H19.9001H19.8995H19.8988H19.8982H19.8976H19.8969H19.8963H19.8957H19.8951H19.8944H19.8938H19.8932H19.8925H19.8919H19.8913H19.8906H19.89H19.8894H19.8888H19.8881H19.8875H19.8869H19.8862H19.8856H19.885H19.8844H19.8837H19.8831H19.8825H19.8818H19.8812H19.8806H19.88H19.8793H19.8787H19.8781H19.8774H19.8768H19.8762H19.8756H19.8749H19.8743H19.8737H19.873H19.8724H19.8718H19.8712H19.8705H19.8699H19.8693H19.8686H19.868H19.8674H19.8668H19.8661H19.8655H19.8649H19.8642H19.8636H19.863H19.8624H19.8617H19.8611H19.8605H19.8598H19.8592H19.8586H19.858H19.8573H19.8567H19.8561H19.8555H19.8548H19.8542H19.8536H19.8529H19.8523H19.8517H19.8511H19.8504H19.8498H19.8492H19.8485H19.8479H19.8473H19.8467H19.846H19.8454H19.8448H19.8442H19.8435H19.8429H19.8423H19.8417H19.841H19.8404H19.8398H19.8391H19.8385H19.8379H19.8373H19.8366H19.836H19.8354H19.8348V13.3011L19.8214 13.3014C19.7101 13.3044 19.6 13.2772 19.5028 13.2227L19.5023 13.2224L16.957 11.7983L16.749 11.6819L16.5276 11.7703C15.7823 12.0677 15.0795 12.4622 14.4376 12.9438L14.2385 13.0931L14.2376 13.3419L14.2273 16.1847C14.2273 16.1848 14.2273 16.1849 14.2273 16.1849C14.2266 16.3011 14.1936 16.4149 14.132 16.5133L14.1309 16.5149C14.0749 16.6052 14.0158 16.7024 13.9584 16.8083C13.9027 16.9068 13.8213 16.9884 13.7229 17.0442L13.7227 17.0444L11.2027 18.4769L10.9875 18.5992L10.9543 18.8444C10.8503 19.6119 10.8503 20.3899 10.9543 21.1574L10.9874 21.402L11.2017 21.5244L13.7236 22.9654L13.7257 22.9666C13.8241 23.0222 13.9054 23.1038 13.9607 23.2025C14.0161 23.302 14.0746 23.3996 14.1311 23.4913L14.1311 23.4913L14.1329 23.4941C14.1947 23.5928 14.2277 23.7069 14.2282 23.8233L14.2385 26.6581L14.2394 26.9075L14.4392 27.0568C15.0829 27.5378 15.7871 27.9319 16.5337 28.2289L16.7545 28.3168L16.9621 28.201L19.509 26.7805C19.5092 26.7804 19.5093 26.7803 19.5095 26.7801C19.6076 26.7259 19.7184 26.6988 19.8304 26.7014L19.8304 26.7016H19.8423H19.8429H19.8435H19.8441H19.8448H19.8454H19.846H19.8466H19.8473H19.8479H19.8485H19.8492H19.8498H19.8504H19.851H19.8517H19.8523H19.8529H19.8535H19.8542H19.8548H19.8554H19.8561H19.8567H19.8573H19.8579H19.8586H19.8592H19.8598H19.8604H19.8611H19.8617H19.8623H19.863H19.8636H19.8642H19.8648H19.8655H19.8661H19.8667H19.8673H19.868H19.8686H19.8692H19.8699H19.8705H19.8711H19.8717H19.8724H19.873H19.8736H19.8743H19.8749H19.8755H19.8761H19.8768H19.8774H19.878H19.8787H19.8793H19.8799H19.8805H19.8812H19.8818H19.8824H19.883H19.8837H19.8843H19.8849H19.8856H19.8862H19.8868H19.8875H19.8881H19.8887H19.8893H19.89H19.8906H19.8912H19.8919H19.8925H19.8931H19.8937H19.8944H19.895H19.8956H19.8963H19.8969H19.8975H19.8981H19.8988H19.8994H19.9H19.9007H19.9013H19.9019H19.9026H19.9032H19.9038H19.9044H19.9051H19.9057H19.9063H19.907H19.9076H19.9082H19.9088H19.9095H19.9101H19.9107H19.9114H19.912H19.9126H19.9133H19.9139H19.9145H19.9151H19.9158H19.9164H19.917H19.9177H19.9183H19.9189H19.9196H19.9202H19.9208H19.9215H19.9221H19.9227H19.9233H19.924H19.9246H19.9252H19.9259H19.9265H19.9271H19.9278H19.9284H19.929H19.9296H19.9303H19.9309H19.9315H19.9322H19.9328H19.9334H19.9341H19.9347H19.9353H19.936H19.9366H19.9372H19.9378H19.9385H19.9391H19.9397H19.9404H19.941H19.9416H19.9423H19.9429H19.9435H19.9442H19.9448H19.9454H19.946H19.9467H19.9473H19.9479H19.9486H19.9492H19.9498H19.9505H19.9511H19.9517H19.9524H19.953H19.9536H19.9543H19.9549H19.9555H19.9561H19.9568H19.9574H19.958H19.9587H19.9593H19.9599H19.9606H19.9612H19.9618H19.9625H19.9631H19.9637H19.9644H19.965H19.9656H19.9662H19.9669H19.9675H19.9681H19.9688H19.9694H19.97H19.9707H19.9713H19.9719H19.9726H19.9732H19.9738H19.9745H19.9751H19.9757H19.9764H19.977H19.9776H19.9782H19.9789H19.9795H19.9801H19.9808H19.9814H19.982H19.9827H19.9833H19.9839H19.9846H19.9852H19.9858H19.9865H19.9871H19.9877H19.9884H19.989H19.9896H19.9902H19.9909H19.9915H19.9921H19.9928H19.9934H19.994H19.9947H19.9953H19.9959H19.9966H19.9972H19.9978H19.9985H19.9991H19.9997H20.0004H20.001H20.0016H20.0022H20.0029H20.0035H20.0041H20.0048H20.0054H20.006H20.0067H20.0073H20.0079H20.0086H20.0092H20.0098H20.0105H20.0111H20.0117H20.0124H20.013H20.0136H20.0143H20.0149H20.0155H20.0161H20.0168H20.0174H20.018H20.0187H20.0193H20.0199H20.0206H20.0212H20.0218H20.0225H20.0231H20.0237H20.0244H20.025H20.0256H20.0263H20.0269H20.0275H20.0281H20.0288H20.0294H20.03H20.0307H20.0313H20.0319H20.0326H20.0332H20.0338H20.0345H20.0351H20.0357H20.0364H20.037H20.0376H20.0383H20.0389H20.0395H20.0401H20.0408H20.0414H20.042H20.0427H20.0433H20.0439H20.0446H20.0452H20.0458H20.0465H20.0471H20.0477H20.0484H20.049H20.0496H20.0502H20.0509H20.0515H20.0521H20.0528H20.0534H20.054H20.0547H20.0553H20.0559H20.0566H20.0572H20.0578H20.0585H20.0591H20.0597H20.0603H20.061H20.0616H20.0622H20.0629H20.0635H20.0641H20.0648H20.0654H20.066H20.0667H20.0673H20.0679H20.0685H20.0692H20.0698H20.0704H20.0711H20.0717H20.0723H20.073H20.0736H20.0742H20.0749H20.0755H20.0761H20.0767H20.0774H20.078H20.0786H20.0793H20.0799H20.0805H20.0812H20.0818H20.0824H20.0831H20.0837H20.0843H20.0849H20.0856H20.0862H20.0868H20.0875H20.0881H20.0887H20.0894H20.09H20.0906H20.0912H20.0919H20.0925H20.0931H20.0938H20.0944H20.095H20.0957H20.0963H20.0969H20.0975H20.0982H20.0988H20.0994H20.1001H20.1007H20.1013H20.102H20.1026H20.1032H20.1038H20.1045H20.1051H20.1057H20.1064H20.107H20.1076H20.1082H20.1089H20.1095H20.1101H20.1108H20.1114H20.112H20.1127H20.1133H20.1139H20.1145H20.1152H20.1158H20.1164H20.1171H20.1177H20.1183H20.1189H20.1196H20.1202H20.1208H20.1215H20.1221H20.1227H20.1233H20.124H20.1246H20.1252H20.1259H20.1265H20.1271H20.1277H20.1284H20.129H20.1296H20.1303H20.1309H20.1315H20.1321H20.1328H20.1334H20.134H20.1347H20.1353H20.1359H20.1365H20.1372H20.1378H20.1384H20.1391H20.1397H20.1403H20.1409H20.1416H20.1422H20.1428H20.1434H20.1441H20.1447H20.1453H20.146H20.1466H20.1472H20.1478H20.1485H20.1491H20.1497H20.1503H20.151H20.1516H20.1522H20.1529H20.1535H20.1541H20.1547H20.1554H20.156H20.1566H20.1572H20.1579H20.1585H20.1591H20.1598H20.1604H20.161H20.1616H20.1623H20.1629H20.1635H20.1641H20.1648H20.1918C20.1919 26.7016 20.1919 26.7016 20.192 26.7016C20.2988 26.7016 20.4038 26.729 20.497 26.7812L20.4972 26.7813L23.0425 28.2054L23.2509 28.322L23.4726 28.2332C24.2181 27.9346 24.9209 27.5387 25.5626 27.0558L25.7608 26.9066L25.7619 26.6586L25.7751 23.8153C25.7757 23.699 25.8087 23.5852 25.8704 23.4866L25.8714 23.485C25.9265 23.3963 25.9864 23.2989 26.0443 23.1919C26.0996 23.0933 26.1808 23.0117 26.2792 22.9559L26.2797 22.9556L28.7997 21.5231ZM17.5691 16.3623C18.2886 15.8816 19.1344 15.625 19.9996 15.625C21.1595 15.6264 22.2715 16.0878 23.0917 16.908C23.912 17.7283 24.3734 18.8405 24.3748 20.0006C24.3747 20.8657 24.1181 21.7113 23.6374 22.4306C23.1567 23.1501 22.4734 23.7108 21.674 24.042C20.8746 24.3731 19.9949 24.4597 19.1462 24.2909C18.2976 24.1221 17.518 23.7054 16.9062 23.0936C16.2943 22.4817 15.8776 21.7022 15.7088 20.8535C15.54 20.0048 15.6267 19.1252 15.9578 18.3258C16.2889 17.5263 16.8497 16.843 17.5691 16.3623ZM18.2636 22.5983C18.7775 22.9417 19.3817 23.125 19.9998 23.125C20.8286 23.125 21.6234 22.7958 22.2095 22.2097C22.7955 21.6236 23.1248 20.8288 23.1248 20C23.1248 19.3819 22.9415 18.7777 22.5981 18.2638C22.2547 17.7499 21.7667 17.3494 21.1956 17.1129C20.6246 16.8763 19.9963 16.8145 19.3901 16.935C18.7839 17.0556 18.2271 17.3532 17.7901 17.7903C17.353 18.2273 17.0554 18.7841 16.9348 19.3903C16.8142 19.9965 16.8761 20.6249 17.1126 21.1959C17.3492 21.7669 17.7497 22.255 18.2636 22.5983Z" fill="#475569" stroke="#475569"/>
</svg>
