<svg width="48" height="48" viewBox="0 0 48 48" fill="none" xmlns="http://www.w3.org/2000/svg">
<rect width="48" height="48" rx="24" fill="#F5F8F4"/>
<g clip-path="url(#clip0_230_2647)">
<path d="M40 8H8V40H40V8Z" fill="#F5F8F4"/>
<path d="M32.4965 15.7676C29.5221 15.7676 26.8615 17.1282 25.1002 19.2559V24.6793C25.1002 24.6793 25.1229 24.6529 25.1379 24.6377C25.4667 21.2628 28.0746 18.5454 31.4005 18.0465V21.2552C31.7632 21.2136 32.1261 21.191 32.5002 21.191H33.6V15.7676H32.5002H32.4965Z" fill="#317B22"/>
<path d="M32.4955 21.1909C32.1253 21.1909 31.7586 21.2136 31.3958 21.2552C28.8901 21.5424 26.6754 22.7971 25.1334 24.6377C25.1221 24.6529 25.1107 24.6641 25.0955 24.6793V19.1954C25.0955 13.9043 20.7909 9.59961 15.4998 9.59961H14.4V22.2869C14.4 27.2076 18.1227 31.2705 22.896 31.8185V38.0468H23.9958C29.2869 38.0468 33.5917 33.7422 33.5917 28.4511V21.1871H32.4918L32.4955 21.1909ZM16.6034 22.2907V11.8823C20.1635 12.4152 22.8998 15.4916 22.8998 19.1954V29.6038C19.3396 29.071 16.6034 25.9945 16.6034 22.2907ZM31.3958 28.4548C31.3958 32.1586 28.6595 35.2388 25.0994 35.7679V30.783C25.0994 27.0791 27.8394 24.0028 31.3958 23.4699V28.4548Z" fill="#317B22"/>
<path style="mix-blend-mode:screen" opacity="0.4" d="M32.4955 21.1909C32.1253 21.1909 31.7586 21.2136 31.3958 21.2552C28.8901 21.5424 26.6754 22.7971 25.1334 24.6377C25.1221 24.6529 25.1107 24.6641 25.0955 24.6793V19.1954C25.0955 13.9043 20.7909 9.59961 15.4998 9.59961H14.4V22.2869C14.4 27.2076 18.1227 31.2705 22.896 31.8185V38.0468H23.9958C29.2869 38.0468 33.5917 33.7422 33.5917 28.4511V21.1871H32.4918L32.4955 21.1909ZM33.516 28.4548C33.516 33.7044 29.2453 37.9751 23.9958 37.9751H22.9716V31.7542L22.9036 31.7466C18.1 31.195 14.4756 27.1321 14.4756 22.2907V9.67897H15.4998C20.7493 9.67897 25.02 13.9497 25.02 19.1992V24.891L25.1712 24.7095L25.1901 24.6868C26.7699 22.8009 28.9733 21.6067 31.4034 21.3308C31.7774 21.2892 32.1442 21.2665 32.4955 21.2665H33.5198V28.4548H33.516ZM16.6147 11.8068L16.5278 11.7954V22.2907C16.5278 25.9604 19.264 29.139 22.8884 29.6794L22.9754 29.6906V19.1954C22.9754 15.5257 20.2391 12.3472 16.6147 11.8068ZM22.8998 29.6038C19.3396 29.071 16.6034 25.9945 16.6034 22.2907V11.8823C20.1635 12.4152 22.8998 15.4916 22.8998 19.1954V29.6038ZM25.02 30.783V35.8548L25.1069 35.8434C28.7352 35.2993 31.4677 32.1246 31.4677 28.4548V23.383L31.3806 23.3943C27.7525 23.9385 25.02 27.1132 25.02 30.783ZM31.3958 28.4548C31.3958 32.1586 28.6595 35.2388 25.0994 35.7679V30.783C25.0994 27.0791 27.8394 24.0028 31.3958 23.4699V28.4548Z" fill="url(#paint0_linear_230_2647)"/>
</g>
<defs>
<linearGradient id="paint0_linear_230_2647" x1="23.9996" y1="11.2928" x2="23.9996" y2="39.0409" gradientUnits="userSpaceOnUse">
<stop stop-color="#5D17CF" stop-opacity="0"/>
<stop offset="0.25" stop-color="#9263DE" stop-opacity="0.33"/>
<stop offset="0.49" stop-color="#C0A6EC" stop-opacity="0.62"/>
<stop offset="0.69" stop-color="#E2D6F6" stop-opacity="0.82"/>
<stop offset="0.83" stop-color="#F7F3FC" stop-opacity="0.95"/>
<stop offset="0.92" stop-color="white"/>
</linearGradient>
<clipPath id="clip0_230_2647">
<rect width="32" height="32" fill="white" transform="translate(8 8)"/>
</clipPath>
</defs>
</svg>
