<svg width="45" height="45" viewBox="0 0 45 45" fill="none" xmlns="http://www.w3.org/2000/svg">
<path d="M22.5 9.37497C22.5023 8.62503 22.3545 7.88222 22.0654 7.19022C21.7763 6.49823 21.3518 5.87102 20.8168 5.3455C20.2818 4.81997 19.6471 4.40673 18.95 4.13009C18.253 3.85345 17.5076 3.71899 16.7579 3.73462C16.0081 3.75025 15.269 3.91565 14.5841 4.2211C13.8991 4.52654 13.2822 4.96587 12.7696 5.51323C12.2569 6.06059 11.8589 6.70494 11.5989 7.40838C11.3389 8.11182 11.2222 8.86015 11.2557 9.60935C10.1536 9.89273 9.13036 10.4232 8.26361 11.1606C7.39685 11.8979 6.70925 12.8229 6.25288 13.8653C5.79651 14.9078 5.58335 16.0404 5.62953 17.1774C5.67571 18.3145 5.98002 19.4261 6.51942 20.4281C5.57101 21.1986 4.82522 22.1891 4.34693 23.3136C3.86864 24.438 3.67234 25.6623 3.77511 26.8799C3.87787 28.0976 4.27658 29.2716 4.93656 30.3C5.59654 31.3284 6.49779 32.18 7.56192 32.7806C7.43052 33.7973 7.50894 34.8301 7.79234 35.8153C8.07574 36.8005 8.5581 37.7172 9.20964 38.5086C9.86119 39.3001 10.6681 39.9496 11.5805 40.417C12.4929 40.8844 13.4914 41.1598 14.5144 41.2262C15.5374 41.2926 16.5631 41.1486 17.5283 40.803C18.4934 40.4574 19.3775 39.9176 20.1258 39.217C20.8742 38.5164 21.471 37.6698 21.8794 36.7295C22.2877 35.7892 22.499 34.7751 22.5 33.75V9.37497Z" stroke="black" stroke-width="2.5" stroke-linecap="round" stroke-linejoin="round"/>
<path d="M16.875 24.375C18.4492 23.8212 19.8238 22.8131 20.825 21.4781C21.8263 20.1432 22.4091 18.5413 22.5 16.875" stroke="black" stroke-width="2.5" stroke-linecap="round" stroke-linejoin="round"/>
<path d="M11.2556 9.60938C11.2927 10.5164 11.5487 11.4009 12.0019 12.1875" stroke="black" stroke-width="2.5" stroke-linecap="round" stroke-linejoin="round"/>
<path d="M6.51941 20.43C6.86242 20.1506 7.22948 19.9022 7.61628 19.6875" stroke="black" stroke-width="2.5" stroke-linecap="round" stroke-linejoin="round"/>
<path d="M11.25 33.75C9.95782 33.7506 8.68739 33.4173 7.56189 32.7825" stroke="black" stroke-width="2.5" stroke-linecap="round" stroke-linejoin="round"/>
<path d="M22.5 24.375H30" stroke="black" stroke-width="2.5" stroke-linecap="round" stroke-linejoin="round"/>
<path d="M22.5 33.75H33.75C34.7446 33.75 35.6984 34.1451 36.4016 34.8484C37.1049 35.5516 37.5 36.5054 37.5 37.5V39.375" stroke="black" stroke-width="2.5" stroke-linecap="round" stroke-linejoin="round"/>
<path d="M22.5 15H37.5" stroke="black" stroke-width="2.5" stroke-linecap="round" stroke-linejoin="round"/>
<path d="M30 15V9.375C30 8.38044 30.3951 7.42661 31.0984 6.72335C31.8016 6.02009 32.7554 5.625 33.75 5.625" stroke="black" stroke-width="2.5" stroke-linecap="round" stroke-linejoin="round"/>
<path d="M30 25.3125C30.5178 25.3125 30.9375 24.8928 30.9375 24.375C30.9375 23.8572 30.5178 23.4375 30 23.4375C29.4822 23.4375 29.0625 23.8572 29.0625 24.375C29.0625 24.8928 29.4822 25.3125 30 25.3125Z" stroke="black" stroke-width="2.5" stroke-linecap="round" stroke-linejoin="round"/>
<path d="M33.75 6.5625C34.2678 6.5625 34.6875 6.14277 34.6875 5.625C34.6875 5.10723 34.2678 4.6875 33.75 4.6875C33.2322 4.6875 32.8125 5.10723 32.8125 5.625C32.8125 6.14277 33.2322 6.5625 33.75 6.5625Z" stroke="black" stroke-width="2.5" stroke-linecap="round" stroke-linejoin="round"/>
<path d="M37.5 40.3125C38.0178 40.3125 38.4375 39.8928 38.4375 39.375C38.4375 38.8572 38.0178 38.4375 37.5 38.4375C36.9822 38.4375 36.5625 38.8572 36.5625 39.375C36.5625 39.8928 36.9822 40.3125 37.5 40.3125Z" stroke="black" stroke-width="2.5" stroke-linecap="round" stroke-linejoin="round"/>
<path d="M37.5 15.9375C38.0178 15.9375 38.4375 15.5178 38.4375 15C38.4375 14.4822 38.0178 14.0625 37.5 14.0625C36.9822 14.0625 36.5625 14.4822 36.5625 15C36.5625 15.5178 36.9822 15.9375 37.5 15.9375Z" stroke="black" stroke-width="2.5" stroke-linecap="round" stroke-linejoin="round"/>
</svg>
