<svg width="16" height="16" viewBox="0 0 16 16" fill="none" xmlns="http://www.w3.org/2000/svg">
<g clip-path="url(#clip0_123_2668)">
<path d="M13.1675 6.3275C13.2 6.3275 13.2325 6.315 13.255 6.2925L14.655 4.8925C14.7025 4.9 14.7475 4.91 14.7975 4.91C15.3225 4.91 15.75 4.48 15.75 3.9525C15.75 3.425 15.3225 2.9975 14.7975 2.9975C14.2725 2.9975 13.84 3.4275 13.84 3.9525C13.84 4.03 13.8525 4.1075 13.8725 4.185L12.7825 5.275H11.7325V5.0825C11.7325 4.6325 11.3675 4.2675 10.9175 4.2675H10.725V2.635C10.99 2.46 11.1525 2.165 11.1525 1.8425C11.1525 1.315 10.725 0.8875 10.1975 0.8875C9.67 0.8875 9.2425 1.315 9.2425 1.8425C9.2425 2.165 9.4075 2.4625 9.6725 2.635V4.2675H8.5275V0.7775C8.5275 0.4875 8.29 0.25 8 0.25C7.71 0.25 7.4725 0.4875 7.4725 0.7775V4.2675H6.3275V2.8325C6.3275 2.8 6.315 2.7675 6.2925 2.745L4.8925 1.345C4.9 1.2975 4.91 1.2525 4.91 1.2025C4.91 0.6775 4.48 0.25 3.9525 0.25C3.425 0.25 2.9975 0.6775 2.9975 1.2025C2.9975 1.7275 3.4275 2.16 3.9525 2.16C4.03 2.16 4.1075 2.1475 4.185 2.1275L5.275 3.2175V4.2675H5.0825C4.6325 4.2675 4.2675 4.6325 4.2675 5.0825V5.275H2.635C2.46 5.01 2.165 4.8475 1.8425 4.8475C1.315 4.8475 0.8875 5.275 0.8875 5.8025C0.8875 6.33 1.315 6.7575 1.8425 6.7575C2.165 6.7575 2.4625 6.5925 2.635 6.3275H4.2675V7.4725H0.7775C0.4875 7.4725 0.25 7.71 0.25 8C0.25 8.29 0.4875 8.5275 0.7775 8.5275H4.2675V9.6725H2.8325C2.8 9.6725 2.7675 9.685 2.745 9.7075L1.345 11.1075C1.2975 11.1 1.2525 11.09 1.2025 11.09C0.6775 11.09 0.25 11.52 0.25 12.0475C0.25 12.575 0.6775 13.0025 1.2025 13.0025C1.7275 13.0025 2.16 12.5725 2.16 12.0475C2.16 11.97 2.1475 11.8925 2.1275 11.815L3.2175 10.725H4.2675V10.9175C4.2675 11.3675 4.6325 11.7325 5.0825 11.7325H5.275V13.365C5.01 13.54 4.8475 13.835 4.8475 14.1575C4.8475 14.685 5.275 15.1125 5.8025 15.1125C6.33 15.1125 6.7575 14.685 6.7575 14.1575C6.7575 13.835 6.5925 13.5375 6.3275 13.365V11.7325H7.4725V15.2225C7.4725 15.515 7.71 15.75 8 15.75C8.29 15.75 8.5275 15.515 8.5275 15.2225V11.7325H9.6725V13.1675C9.6725 13.2 9.685 13.2325 9.7075 13.255L11.1075 14.655C11.1 14.7025 11.09 14.7475 11.09 14.7975C11.09 15.3225 11.52 15.75 12.0475 15.75C12.575 15.75 13.0025 15.3225 13.0025 14.7975C13.0025 14.1925 12.4275 13.725 11.815 13.87L10.725 12.7825V11.7325H10.9175C11.3675 11.7325 11.7325 11.3675 11.7325 10.9175V10.725H13.365C13.54 10.99 13.835 11.1525 14.1575 11.1525C14.685 11.1525 15.1125 10.725 15.1125 10.1975C15.1125 9.67 14.685 9.2425 14.1575 9.2425C13.835 9.2425 13.5375 9.4075 13.3625 9.6725H11.7325V8.5275H15.2225C15.5125 8.5275 15.75 8.29 15.75 8C15.75 7.71 15.5125 7.4725 15.2225 7.4725H11.7325V6.3275H13.1675ZM11.7325 5.52H12.8325C12.865 5.52 12.8975 5.5075 12.92 5.485L13.97 4.435C13.97 4.435 13.98 4.4475 13.985 4.455C14 4.4775 14.0175 4.5025 14.035 4.525C14.0425 4.5375 14.0525 4.55 14.0625 4.5625C14.085 4.59 14.1075 4.6125 14.1325 4.6375C14.14 4.645 14.145 4.6525 14.155 4.66C14.1875 4.69 14.2225 4.7175 14.2575 4.7425C14.265 4.7475 14.275 4.7525 14.2825 4.7575L14.3725 4.81C14.3725 4.81 14.38 4.815 14.385 4.815L13.1175 6.0825H11.7325V5.52ZM4.2675 10.48H3.1675C3.135 10.48 3.1025 10.4925 3.08 10.515L2.03 11.565C2.03 11.565 2.02 11.5525 2.015 11.545C2 11.52 1.9825 11.4975 1.9675 11.475C1.9575 11.4625 1.9475 11.45 1.9375 11.4375C1.915 11.41 1.8925 11.3875 1.8675 11.365C1.86 11.355 1.855 11.3475 1.845 11.34C1.8125 11.31 1.7775 11.2825 1.7425 11.2575C1.735 11.2525 1.725 11.2475 1.7175 11.2425C1.6875 11.225 1.6575 11.2075 1.6275 11.19C1.6225 11.1875 1.62 11.185 1.615 11.185L2.8825 9.9175H4.2675V10.48ZM4.2675 8.28H0.7775C0.6225 8.28 0.495 8.155 0.495 8C0.495 7.845 0.6225 7.72 0.7775 7.72H4.2675V8.28ZM4.2675 6.0825H2.755C2.755 6.0825 2.7575 6.07 2.76 6.065C2.7675 6.035 2.7725 6.0075 2.7775 5.9775C2.78 5.9625 2.785 5.95 2.7875 5.935C2.7925 5.89 2.795 5.8475 2.795 5.8025C2.795 5.755 2.7925 5.7125 2.7875 5.6675C2.785 5.6525 2.78 5.64 2.7775 5.625C2.7725 5.5975 2.7675 5.5675 2.76 5.54C2.76 5.5325 2.76 5.5275 2.755 5.52H4.2675V6.0825ZM5.52 13.245V11.7325H6.0825V13.245C6.0825 13.245 6.065 13.2425 6.0575 13.24C6.035 13.2325 6.0125 13.23 5.9925 13.225C5.97 13.22 5.95 13.215 5.93 13.2125C5.8975 13.21 5.8625 13.2075 5.83 13.2075C5.81 13.2075 5.7925 13.2075 5.7725 13.2075C5.74 13.2075 5.705 13.2125 5.6725 13.215C5.6525 13.2175 5.6325 13.2225 5.6125 13.2275C5.59 13.2325 5.5675 13.235 5.545 13.2425C5.5375 13.245 5.5275 13.245 5.52 13.2475V13.245ZM5.7825 10.085V5.915C5.7825 5.8425 5.8425 5.7825 5.915 5.7825H10.085C10.1575 5.7825 10.2175 5.8425 10.2175 5.915V10.085C10.2175 10.1575 10.1575 10.215 10.085 10.215H5.915C5.8425 10.215 5.7825 10.1575 5.7825 10.085ZM9.9175 2.755C9.9175 2.755 9.93 2.7575 9.935 2.76C9.965 2.7675 9.9975 2.775 10.0275 2.78L10.065 2.7875C10.1075 2.7925 10.1525 2.795 10.1975 2.795C10.245 2.795 10.29 2.7925 10.3325 2.7875C10.345 2.7875 10.3575 2.7825 10.37 2.78C10.4 2.775 10.4325 2.7675 10.4625 2.76C10.4675 2.7575 10.4725 2.7575 10.48 2.755V4.2675H9.9175V2.755ZM7.72 0.7775C7.72 0.6225 7.845 0.495 8 0.495C8.155 0.495 8.28 0.6225 8.28 0.7775V4.2675H7.72V0.7775ZM4.435 2.03C4.435 2.03 4.4475 2.02 4.455 2.015C4.4775 2 4.5025 1.9825 4.525 1.965C4.5375 1.9575 4.55 1.9475 4.5625 1.9375C4.59 1.915 4.6125 1.8925 4.6375 1.8675C4.645 1.86 4.6525 1.855 4.66 1.845C4.69 1.8125 4.7175 1.7775 4.7425 1.7425C4.7475 1.735 4.7525 1.725 4.7575 1.7175C4.775 1.6875 4.7925 1.6575 4.81 1.6275C4.81 1.6225 4.815 1.62 4.815 1.615L6.0825 2.8825V4.2675H5.52V3.1675C5.52 3.135 5.5075 3.1025 5.485 3.08L4.435 2.03ZM8.28 15.2225C8.28 15.3775 8.155 15.505 8 15.505C7.845 15.505 7.72 15.3775 7.72 15.2225V11.7325H8.28V15.2225ZM11.565 13.97C11.565 13.97 11.5525 13.98 11.5475 13.985C11.5225 14 11.4975 14.0175 11.4725 14.035C11.4625 14.045 11.45 14.0525 11.4375 14.0625C11.41 14.085 11.385 14.1075 11.3625 14.1325L11.34 14.155C11.31 14.1875 11.2825 14.2225 11.2575 14.2575C11.2525 14.265 11.25 14.275 11.245 14.2825C11.225 14.31 11.2075 14.3425 11.19 14.3725C11.19 14.3775 11.185 14.38 11.185 14.385L9.9175 13.1175V11.7325H10.48V12.8325C10.48 12.865 10.4925 12.8975 10.515 12.92L11.565 13.97ZM13.245 9.9175C13.245 9.9175 13.2425 9.93 13.24 9.935C13.2325 9.965 13.2275 9.9925 13.2225 10.0225C13.22 10.0375 13.215 10.05 13.2125 10.065C13.2075 10.11 13.205 10.1525 13.205 10.1975C13.205 10.245 13.2075 10.2875 13.2125 10.3325C13.215 10.3475 13.22 10.36 13.2225 10.3725C13.2275 10.4025 13.2325 10.4325 13.24 10.4625C13.24 10.4675 13.24 10.4725 13.245 10.48H11.7325V9.9175H13.245ZM15.2225 7.72C15.3775 7.72 15.505 7.845 15.505 8C15.505 8.155 15.3775 8.28 15.2225 8.28H11.7325V7.72H15.2225Z" fill="black"/>
</g>
<defs>
<clipPath id="clip0_123_2668">
<rect width="16" height="16" fill="white"/>
</clipPath>
</defs>
</svg>
