<svg width="64" height="64" viewBox="0 0 64 64" fill="none" xmlns="http://www.w3.org/2000/svg">
<path d="M23.772 26.4697C23.2486 26.468 22.7429 26.6593 22.3518 27.0072C22.1431 27.1928 21.9731 27.4177 21.8514 27.6691C21.7297 27.9204 21.6587 28.1933 21.6424 28.4721C21.6261 28.7509 21.665 29.0302 21.7566 29.294C21.8483 29.5578 21.991 29.8009 22.1767 30.0096L32.3444 41.4403C32.53 41.649 32.7548 41.8191 33.0062 41.9409C33.2575 42.0627 33.5303 42.1338 33.8091 42.1502C34.0879 42.1665 34.3672 42.1278 34.631 42.0362C34.8949 41.9446 35.1381 41.8019 35.3468 41.6163C35.5554 41.4307 35.7254 41.2058 35.8472 40.9544C35.9689 40.703 36.0399 40.4302 36.0561 40.1514C36.0724 39.8726 36.0336 39.5933 35.9419 39.3295C35.8502 39.0657 35.7075 38.8226 35.5218 38.6139L25.3542 27.1832C25.1554 26.9597 24.9118 26.7806 24.6392 26.6577C24.3666 26.5348 24.0711 26.4707 23.772 26.4697Z" fill="#FD6B6A"/>
<path d="M29.2062 21.051C28.7123 21.0587 28.2364 21.2381 27.8603 21.5584C27.4311 21.9242 27.1648 22.4455 27.12 23.0077C27.0752 23.5699 27.2555 24.1268 27.6212 24.556L38.5466 37.3769C38.9124 37.8061 39.4338 38.0724 39.9959 38.1172C40.5581 38.1621 41.115 37.9818 41.5443 37.616C41.7569 37.4349 41.9318 37.2136 42.0589 36.9648C42.186 36.7161 42.2628 36.4447 42.2851 36.1662C42.3073 35.8878 42.2744 35.6076 42.1883 35.3419C42.1022 35.0761 41.9646 34.8299 41.7833 34.6174L30.858 21.7974C30.6547 21.559 30.4012 21.3685 30.1156 21.2394C29.8301 21.1104 29.5195 21.0461 29.2062 21.051Z" fill="#FD6B6A"/>
<path d="M44.674 3.12506C44.216 3.12865 43.7716 3.28129 43.4081 3.55989C43.4081 3.55989 40.9099 5.46237 38.8659 8.64138C36.822 11.8204 35.1218 16.5746 36.9214 21.8924C38.2407 25.7909 39.3582 28.879 39.5144 31.3166C39.6707 33.7541 39.1567 35.5802 36.7059 38.031C35.7099 39.027 34.7076 39.3276 33.1971 39.3139C31.6867 39.3001 29.7626 38.8373 27.6563 38.2108C23.4439 36.9578 18.4829 34.9523 13.4632 36.2973C8.78145 37.5518 6.06131 39.8848 4.64517 42.0075C3.22903 44.1303 3.08091 46.1996 3.08091 46.1996C3.06669 46.4761 3.10707 46.7527 3.19975 47.0136C3.29242 47.2745 3.43558 47.5145 3.62104 47.7201C3.80649 47.9257 4.03062 48.0927 4.28063 48.2116C4.53064 48.3305 4.80162 48.3991 5.07811 48.4133C5.35461 48.4275 5.63119 48.3871 5.89207 48.2944C6.15296 48.2018 6.39304 48.0586 6.5986 47.8732C6.80416 47.6877 6.97117 47.4636 7.09011 47.2136C7.20905 46.9636 7.27758 46.6926 7.29179 46.4161C7.29179 46.4161 7.29034 45.6414 8.15298 44.3483C9.01562 43.0552 10.7063 41.4011 14.555 40.3699C17.7516 39.5133 22.0457 40.9411 26.4535 42.2523C28.6574 42.9078 30.8853 43.5097 33.1585 43.5304C35.4318 43.5511 37.8444 42.8559 39.6876 41.0127C42.7878 37.9125 43.9403 34.4443 43.7225 31.0464C43.5047 27.6485 42.2082 24.3599 40.9158 20.5409C39.6085 16.6777 40.7937 13.4394 42.4123 10.9219C44.031 8.40434 45.9729 6.90677 45.9729 6.90677C46.1927 6.73833 46.3771 6.52825 46.5157 6.28851C46.6543 6.04877 46.7443 5.78407 46.7806 5.50954C46.8168 5.23501 46.7987 4.95603 46.7271 4.68852C46.6555 4.42101 46.532 4.17023 46.3635 3.95049C46.1649 3.69155 45.909 3.48223 45.6159 3.33899C45.3227 3.19576 45.0003 3.12253 44.674 3.12506Z" fill="#FDE580"/>
<path d="M38.5333 19.4841C38.1372 19.4873 37.7547 19.501 37.3981 19.5233C37.058 19.5446 36.6882 19.5938 36.3002 19.6681C36.4233 20.3836 36.6035 21.1124 36.854 21.8525C37.0315 22.3772 37.1917 22.8502 37.3601 23.3458C38.9247 23.6168 40.6355 24.0071 42.1372 24.3026C41.7339 23.0813 41.2887 21.8254 40.8413 20.5033C40.7346 20.1879 40.646 19.8773 40.5715 19.5704C39.8905 19.5054 39.1934 19.4787 38.5333 19.4841ZM22.536 36.6178C22.8432 37.9875 23.3293 39.7421 23.6871 41.3669C24.5827 41.6274 25.4909 41.9033 26.4051 42.1753C27.133 42.3918 27.8639 42.6 28.5978 42.7857C28.4703 41.4942 28.0403 39.6889 27.5669 38.1292C25.9831 37.6569 24.294 37.0811 22.536 36.6178Z" fill="black"/>
<path d="M44.2484 5.06547C43.6966 5.06207 43.1652 5.27366 42.7667 5.65539C42.5654 5.84822 42.404 6.07884 42.2917 6.33407C42.1795 6.5893 42.1186 6.86414 42.1126 7.14289C42.1066 7.42164 42.1556 7.69884 42.2568 7.95867C42.3579 8.21849 42.5093 8.45583 42.7021 8.65715L54.277 20.7415C53.8997 21.0342 53.49 21.3294 53.0467 21.6144C52.4755 21.9817 51.8666 22.3262 51.2221 22.6246L41.5362 12.7759C41.3369 12.5732 41.0988 12.4126 40.8362 12.3036C40.5736 12.1946 40.2918 12.1395 40.0075 12.1416C39.456 12.1455 38.9277 12.3639 38.5344 12.7505C38.1331 13.1452 37.905 13.6832 37.9002 14.246C37.8955 14.8089 38.1145 15.3506 38.5091 15.752L46.2807 23.6548C45.3773 23.6122 44.4318 23.4421 43.4452 23.1082C39.6168 21.8127 36.165 20.5201 32.6421 20.3056C29.1192 20.0912 25.5146 21.2119 22.3923 24.3341C20.6282 26.0983 19.8081 28.2813 19.6753 30.3667C19.5425 32.4521 19.977 34.4479 20.4656 36.3934C21.1275 39.0291 21.8699 41.5648 22.0026 43.9641L15.9993 37.9613C15.7983 37.7603 15.5591 37.6016 15.2957 37.4948C15.0323 37.388 14.7502 37.3352 14.466 37.3394C13.9143 37.348 13.3876 37.571 12.9975 37.9613C12.5995 38.3594 12.3759 38.8993 12.3759 39.4622C12.3759 40.0251 12.5995 40.565 12.9975 40.9631L21.1559 49.122C20.4837 51.1536 19.7384 52.6947 19.0459 53.8452L8.46365 43.7279C8.07003 43.3512 7.54662 43.1402 7.00177 43.1387C6.7142 43.1381 6.42951 43.1959 6.16497 43.3087C5.90043 43.4215 5.66157 43.5868 5.46286 43.7947C5.27014 43.9961 5.119 44.2336 5.01805 44.4935C4.91711 44.7533 4.86835 45.0305 4.87455 45.3093C4.88075 45.588 4.9418 45.8628 5.0542 46.1179C5.16661 46.373 5.32817 46.6035 5.52966 46.7962L16.2745 57.0698C15.8906 57.3935 15.635 57.8438 15.5541 58.3394C15.4731 58.835 15.5721 59.3432 15.833 59.7722C15.9766 60.0084 16.1653 60.2139 16.3883 60.3772C16.6113 60.5404 16.8643 60.6581 17.1328 60.7235C17.4014 60.789 17.6801 60.8009 17.9532 60.7586C18.2264 60.7163 18.4885 60.6206 18.7246 60.477C18.7246 60.477 20.0973 59.5895 21.5075 57.7195C22.9176 55.8494 24.5634 52.8788 25.7678 48.3839C27.0711 43.5197 25.4643 39.0188 24.5475 35.3683C24.0891 33.5431 23.7926 31.9261 23.8749 30.6334C23.9573 29.3406 24.298 28.3804 25.3678 27.3106C27.7864 24.8919 29.7753 24.348 32.3866 24.507C34.9979 24.6659 38.2209 25.7839 42.0961 27.0953C47.4043 28.8916 52.1488 27.1947 55.322 25.1544C58.4953 23.1142 60.3953 20.6203 60.3953 20.6203C60.7347 20.1774 60.8843 19.6178 60.8111 19.0647C60.738 18.5115 60.4481 18.01 60.0053 17.6705C59.644 17.3935 59.2027 17.2412 58.7475 17.2363C58.2194 17.2306 57.7084 17.4237 57.3161 17.7773L45.7685 5.72023C45.5719 5.51485 45.336 5.35106 45.0749 5.23859C44.8138 5.12611 44.5327 5.06724 44.2484 5.06547Z" fill="#599EFC"/>
<path d="M21.8263 3.2567C16.8636 2.50181 15.6629 5.13243 14.6246 7.56816C13.5862 10.0039 14.9972 14.4407 20.3765 15.4648C25.7557 16.4889 27.0086 9.78584 26.626 8.03055C26.2435 6.27526 24.8044 3.73714 21.8263 3.2567Z" fill="#599EFC"/>
<path d="M37.1486 46.9411C32.7213 48.3033 32.7781 50.971 32.8916 53.4117C33.0051 55.8524 35.9566 58.9742 40.838 57.6687C45.7193 56.3632 44.0733 50.2899 43.0516 48.9844C42.0299 47.679 39.8163 46.1465 37.1486 46.9411Z" fill="#FD6B6A"/>
<path d="M50.9964 33.0397C47.8552 34.0062 47.8955 35.899 47.9761 37.6306C48.0566 39.3623 50.1507 41.5772 53.614 40.651C57.0773 39.7247 55.9094 35.4157 55.1846 34.4895C54.4597 33.5633 52.8891 32.476 50.9964 33.0397Z" fill="#FDE580"/>
<path d="M19.0809 53.9436C19.0809 53.9436 16.9155 57.0993 16.3045 57.174C15.6934 57.2488 15.5671 55.8278 16.246 54.6595C16.9249 53.4912 19.0809 53.9436 19.0809 53.9436Z" fill="black"/>
<path d="M21.195 49.2112C21.195 49.2112 21.6359 47.6033 21.9038 46.4869C22.1718 45.3705 22.0432 44.0439 22.0432 44.0439C22.0432 44.0439 21.1447 44.3434 20.7204 45.2142C20.2962 46.085 20.4192 47.336 21.195 49.2112Z" fill="black"/>
<path d="M46.3652 23.6975C46.3652 23.6975 47.5138 23.9132 48.8311 23.6676C50.1485 23.422 51.3157 22.6655 51.3157 22.6655C51.3157 22.6655 51.5328 22.2609 49.9475 21.9706C48.3622 21.6804 46.802 22.5665 46.3652 23.6975Z" fill="black"/>
<path d="M54.3766 20.7786L57.4212 17.809C57.4212 17.809 57.6735 16.9019 56.0212 17.2591C54.3689 17.6164 53.9377 19.453 54.3766 20.7786Z" fill="black"/>
<path d="M51.122 35.9654C50.3326 35.2707 43.0384 29.5554 42.4701 29.7448C41.9017 29.9343 42.1227 31.2921 43.1963 32.1447C44.2699 32.9972 50.5221 37.7653 50.5221 37.7653L51.122 35.9654Z" fill="#FDE580"/>
<path d="M39.6597 48.0593C39.4702 47.6804 35.6783 38.8145 35.6783 38.8145L33.6602 39.0915L37.5125 51.0906L39.6597 48.0593Z" fill="#FD6B6A"/>
<path d="M43.0229 50.8545C43.3544 52.1017 43.4807 54.391 41.9808 56.033C40.481 57.675 37.8443 57.2487 36.3602 56.633C34.8761 56.0172 33.3289 53.649 35.4761 53.87C37.6233 54.0911 40.2126 54.4542 41.0178 52.9385C41.823 51.4228 42.644 49.6703 43.0229 50.8545Z" fill="black"/>
<path d="M55.0386 36.2159C55.6638 37.8235 54.2795 39.9 52.6272 39.9893C50.9749 40.0786 50.1934 39.2748 49.9925 38.3371C49.7915 37.3993 53.0291 38.2477 53.6543 37.176C54.2795 36.1043 54.7037 35.4121 55.0386 36.2159Z" fill="black"/>
<path d="M10.6457 21.6647C6.68526 21.0622 5.72709 23.1616 4.89844 25.1054C4.06979 27.0492 5.19584 30.5899 9.48866 31.4071C13.7815 32.2244 14.7813 26.8751 14.476 25.4744C14.1707 24.0736 13.0223 22.0481 10.6457 21.6647Z" fill="#FDE580"/>
<path d="M23.4444 12.4145C23.7123 12.9057 28.1779 21.569 28.1779 21.569L26.1684 22.1495L19.0234 11.834L23.4444 12.4145Z" fill="#599EFC"/>
<path d="M12.0308 29.2081L14.399 36.4075C14.399 36.4075 13.1675 36.8812 13.1675 36.7233C13.1675 36.5654 6.78906 27.6924 6.78906 27.6924L12.0308 29.2081Z" fill="#FDE580"/>
<path d="M5.78292 26.101C5.77176 26.1903 6.46393 27.9095 8.71906 28.1663C10.9742 28.4231 13.4749 25.4646 13.5977 27.0053C13.7205 28.5459 12.0236 31.0913 9.74614 30.8568C7.46869 30.6224 5.63779 28.8138 5.28054 27.3067C4.92329 25.7995 5.63779 25.6098 5.78292 26.101Z" fill="black"/>
<path d="M16.2544 9.33312C17.728 10.7175 21.5238 10.9407 22.6848 9.60106C23.8459 8.26138 25.4089 8.66328 24.873 11.0747C24.3371 13.4861 21.3898 14.9598 18.2639 13.3075C15.138 11.6552 16.2544 9.33312 16.2544 9.33312Z" fill="black"/>
<path d="M18.5671 4.76807C15.6621 5.84168 16.1989 8.27307 17.2093 7.73627C18.2198 7.19947 18.9145 6.31533 19.9249 6.53636C20.9354 6.7574 20.4301 4.61019 18.5671 4.76807Z" fill="white"/>
<path d="M7.45247 22.6716C6.78936 22.9874 6.31571 24.3136 7.23143 24.1873C8.14715 24.061 9.28391 23.3663 9.94702 23.3031C10.6101 23.24 9.44179 21.7559 7.45247 22.6716Z" fill="white"/>
<path d="M36.4078 48.3751C35.0185 48.8488 34.6396 50.9329 36.3131 50.4592C37.9867 49.9856 37.8604 47.712 36.4078 48.3751Z" fill="white"/>
<path d="M50.7756 33.9769C49.0073 34.5453 48.6916 36.3767 49.6073 36.282C50.523 36.1872 51.123 34.7663 52.2281 34.861C53.3333 34.9558 52.5755 33.1559 50.7756 33.9769Z" fill="white"/>
<path d="M22.8642 25.3648C21.2566 26.3026 21.3905 28.714 22.105 28.4014C22.8195 28.0888 24.4718 24.695 26.392 23.9805C28.3122 23.266 25.1863 21.971 22.8642 25.3648Z" fill="white"/>
</svg>
