<svg width="64" height="64" viewBox="0 0 64 64" fill="none" xmlns="http://www.w3.org/2000/svg">
<path d="M14.9199 47.9278C14.8325 50.3892 16.6531 52.4283 18.9396 52.4283H46.2625C48.4764 52.4283 50.2678 50.5349 50.2969 48.1755C50.2987 48.0401 50.6778 18.4455 50.6902 17.7357C50.6902 17.1822 50.763 16.687 50.4425 16.2355C50.4425 16.2064 50.4135 16.1919 50.3989 16.1627C50.3002 16.0363 44.086 8.42489 42.6943 6.95795C42.1553 6.37543 41.5874 5.80739 41.0048 5.28309C40.5533 4.88983 39.8833 4.07422 39.2716 4.07422H39.257C32.2661 4.17618 25.3188 4.23441 18.2843 4.36553C15.983 4.40918 14.1771 6.53562 14.3227 8.99702C15.0946 22.1633 15.3422 34.747 14.9199 47.9278Z" fill="#FFC372"/>
<path d="M39.5191 14.2839C41.1906 17.015 47.3475 16.3192 50.4425 16.2355C50.4425 16.2064 50.4134 16.1919 50.3988 16.1627C50.3001 16.0363 44.0859 8.42489 42.6943 6.95795C42.1553 6.37543 41.5873 5.80739 41.0047 5.28309C40.5532 4.88983 39.8832 4.07422 39.2716 4.07422H39.257C39.0071 12.2738 38.7868 13.1083 39.5191 14.2839Z" fill="#5BD9C3"/>
<path d="M32.2091 30.6908L27.9042 21.2978C27.5254 22.4635 27.2322 23.6568 27.0266 24.8669C26.9538 25.2909 26.6203 25.6224 26.1963 25.6913L21.8638 26.4035C21.3159 26.5029 20.7964 26.1222 20.7069 25.5732C20.6164 25.0243 20.9883 24.5058 21.5372 24.4163L25.1703 23.8182C25.5451 21.9185 26.1226 20.0602 26.8899 18.2855C27.2454 17.4612 28.3824 17.5067 28.7305 18.2648L32.5013 26.493C32.9951 22.4537 33.7408 18.434 34.7266 14.5009C34.9577 13.5788 36.2312 13.4591 36.6223 14.3337C38.2337 17.9244 39.4467 21.6913 40.2357 25.5467C42.7141 24.8354 44.8421 24.9052 44.7256 24.9052C45.2794 24.9052 45.73 25.3528 45.7329 25.9067C45.7359 26.4635 45.2873 26.917 44.7315 26.92C43.0473 26.9288 41.3906 27.2259 39.8067 27.8024C39.2318 28.0137 38.5851 27.6584 38.4718 27.0371C37.912 23.9677 37.0738 20.9505 35.971 18.0326C35.0935 22.0907 34.4757 26.2225 34.1284 30.3553C34.044 31.3839 32.6397 31.6284 32.2091 30.6908Z" fill="#3A97D4"/>
<path d="M25.5971 46.105C24.8957 45.9701 24.4452 45.1939 24.0853 44.4922C22.7472 45.8144 20.9993 48.201 19.9775 49.8478C20.465 50.8995 21.6608 51.5512 22.393 50.6274C23.5961 49.1092 25.3603 46.0596 25.5971 46.105Z" fill="#E2D2F6"/>
<path d="M29.5462 49.7947C24.5359 50.2602 20.0895 46.5714 19.6122 41.5531C19.1448 36.5328 22.8336 32.0864 27.8538 31.619C32.874 31.1517 37.3204 34.8404 37.7958 39.8489C38.2632 44.8691 34.5763 49.3254 29.5462 49.7947Z" fill="#FF5F6E"/>
<path d="M29.4923 49.2153C34.19 48.7778 37.6548 44.5994 37.2161 39.9039C36.782 35.3221 32.8207 31.9289 28.2479 32.1732C27.9434 32.2312 27.6525 31.9437 27.6366 31.6232C27.6195 31.3028 27.865 31.0289 28.1866 31.0119C33.3843 30.7073 37.882 34.588 38.3752 39.7948C38.8729 45.1301 34.9366 49.8766 29.6014 50.3744C28.8029 50.4213 28.7508 49.2839 29.4923 49.2153Z" fill="black"/>
<path d="M20.3881 49.6002C20.2419 49.3675 20.0873 49.1339 19.7995 49.0691C19.3382 48.9653 19.6004 48.8376 14.0665 56.3525C13.8196 56.6879 13.2578 57.1905 13.3034 57.8696C13.3832 59.0575 15.5186 60.5401 16.6038 59.6637C17.3618 59.0516 18.3265 56.8506 21.9385 52.3591C22.0881 52.173 22.2438 51.9767 22.2936 51.732C22.3432 51.4873 22.2437 51.1822 22.0253 51.1096C21.8732 51.059 21.7178 50.9913 21.5963 50.8762C21.0747 50.3817 20.6471 50.0123 20.3881 49.6002Z" fill="#3A97D4"/>
<path d="M35.2642 41.9354C35.9358 38.308 33.5396 34.8229 29.9122 34.1513C26.2848 33.4797 22.7998 35.8759 22.1282 39.5033C21.4566 43.1307 23.8527 46.6157 27.4801 47.2873C31.1075 47.9589 34.5926 45.5628 35.2642 41.9354Z" fill="white"/>
<path d="M23.8548 40.301C23.8423 40.301 23.8286 40.2999 23.8161 40.2988C23.657 40.2772 23.5445 40.1306 23.5661 39.9715C23.807 38.1953 25.0127 36.5613 26.6389 35.8078C26.7832 35.7397 26.957 35.8022 27.0252 35.9488C27.0934 36.0953 27.0298 36.2681 26.8843 36.3351C25.4332 37.0078 24.357 38.4658 24.1434 40.0488C24.1229 40.1953 23.9979 40.301 23.8548 40.301Z" fill="black"/>
<path d="M44.1976 49.9259C43.8146 49.8821 43.876 49.2994 44.2613 49.3463C45.0306 49.4293 45.8215 49.1668 46.3897 48.6463C47.6656 47.4679 47.5838 45.5266 47.4908 43.8986C47.4817 43.7384 47.6045 43.6009 47.7658 43.5918H47.7817C47.9351 43.5918 48.0635 43.7111 48.0726 43.8668C48.175 45.6798 48.2434 47.7283 46.7829 49.0736C46.1225 49.6818 45.1839 50.0245 44.1976 49.9259Z" fill="black"/>
<path d="M16.9987 13.197C16.8408 13.197 16.7112 13.0709 16.7078 12.9118C16.6703 11.1073 16.5692 9.28114 16.4055 7.48568C16.3908 7.32545 16.509 7.18454 16.6692 7.16977C16.8453 7.15159 16.9703 7.27318 16.9851 7.43341C17.1499 9.2425 17.2521 11.0823 17.2896 12.9005C17.293 13.0607 17.1658 13.1936 17.0044 13.197C17.0021 13.197 17.001 13.197 16.9987 13.197Z" fill="black"/>
<path d="M43.0531 41.722L40.5462 40.697C40.2485 40.5754 40.1065 40.2356 40.2281 39.9379C40.3496 39.6401 40.6951 39.5004 40.9871 39.6197L43.494 40.6447C44.2015 40.9336 43.7695 42.0176 43.0531 41.722Z" fill="black"/>
<path d="M40.3618 37.6925C40.2709 37.3846 40.447 37.0607 40.755 36.9698L43.1925 36.2505C43.4993 36.1596 43.8243 36.3357 43.9152 36.6437C44.0061 36.9516 43.83 37.2755 43.522 37.3664L41.0845 38.0857C40.7722 38.1768 40.4521 37.9976 40.3618 37.6925Z" fill="black"/>
<path d="M39.4259 36.1328C39.1339 35.9987 39.0054 35.6533 39.1384 35.3612L40.1475 33.1556C40.2804 32.8624 40.6293 32.7374 40.9191 32.8681C41.2111 33.0022 41.3395 33.3476 41.2066 33.6397L40.1975 35.8453C40.0653 36.1344 39.7231 36.2664 39.4259 36.1328Z" fill="black"/>
</svg>
