<svg width="64" height="64" viewBox="0 0 64 64" fill="none" xmlns="http://www.w3.org/2000/svg">
<path d="M1.88086 57.6003C1.97498 58.3533 2.35145 59.2945 2.82204 60.1415C3.19851 60.8003 3.95145 61.1768 4.70439 61.2709C22.3044 62.118 39.2456 62.118 56.8456 61.2709C57.975 61.1768 58.822 60.2356 58.7279 59.1062C58.6338 58.3533 58.6338 57.5062 58.5397 56.7533C40.0926 55.2474 20.2338 54.4003 1.88086 57.6003Z" fill="#6760FC"/>
<path d="M18.5419 16.942C26.2596 16.6596 34.0713 16.7537 41.789 17.0361C44.7066 17.1302 50.0713 16.189 52.5184 17.9773C57.1302 21.3655 54.8713 30.9655 54.4949 35.8596C54.2125 40.0949 53.9302 44.2361 53.5537 48.4714C53.4596 49.789 52.4243 50.9184 51.2008 50.9184H24.3772C20.8008 51.1067 17.2243 51.2008 13.6478 51.2008C11.5772 51.2008 8.47135 51.7655 7.24782 49.3184C5.93017 47.0596 5.93017 43.2949 5.64782 40.7537C5.27135 37.0831 5.27135 33.4126 5.45958 29.742C5.64782 26.4479 5.64782 22.7773 7.24782 20.0478C9.60076 16.0949 14.7772 17.1302 18.5419 16.942Z" fill="#31CAFF"/>
<path d="M47.1528 45.9309H13.3646C11.3881 45.9309 9.78809 44.3309 9.78809 42.3545V24.1898C9.78809 22.2133 11.3881 20.6133 13.3646 20.6133H47.1528C49.1293 20.6133 50.7293 22.2133 50.7293 24.1898V42.3545C50.7293 44.3309 49.1293 45.9309 47.1528 45.9309Z" fill="#DCF1FF"/>
<path d="M53.6463 49.6935L58.5404 56.47C59.1992 57.317 58.5404 58.5406 57.5051 58.5406H2.91688C1.88159 58.5406 1.31688 57.317 1.88159 56.47L7.15217 49.2229C7.43453 48.8464 7.811 48.6582 8.18747 48.6582L52.7051 49.1288C53.0816 49.1288 53.4581 49.317 53.6463 49.6935Z" fill="#14B5FF"/>
<path d="M28.2353 19.5759H24.4706C24.1882 19.5759 24 19.3877 24 19.1054C24 18.823 24.1882 18.6348 24.4706 18.6348H28.2353C28.5176 18.6348 28.7059 18.823 28.7059 19.1054C28.7059 19.3877 28.5176 19.5759 28.2353 19.5759Z" fill="black"/>
<path d="M31.5279 19.3876C31.3397 19.1994 31.3397 18.9171 31.5279 18.7288L31.7161 18.5406C31.9044 18.3524 32.1867 18.3524 32.375 18.5406C32.5632 18.7288 32.5632 19.0112 32.375 19.1994L32.1867 19.3876C31.9985 19.5759 31.7161 19.5759 31.5279 19.3876Z" fill="black"/>
<path d="M7.33973 48.7537C7.05738 48.7537 6.86914 48.5654 6.86914 48.2831C6.86914 48.0007 7.15149 47.8125 7.33973 47.8125C22.5868 48.5654 38.0221 48.8478 53.2691 48.5654C53.928 48.5654 53.928 49.5066 53.2691 49.5066C38.0221 49.789 22.5868 49.6007 7.33973 48.7537Z" fill="black"/>
<path d="M5.08282 41.6949C4.32988 35.9538 4.23576 30.0243 5.08282 24.2832C5.36517 21.9302 5.92988 19.4832 7.71811 17.8832C9.7887 16.0008 12.8005 15.9067 15.7181 16.0008L47.9063 17.1302C53.6475 17.3185 55.1534 19.1067 55.4358 23.6243C55.7181 28.2361 55.4358 32.942 54.7769 37.5538C54.7769 37.8361 54.4946 38.0243 54.2122 37.9302C53.9299 37.9302 53.7416 37.6479 53.8358 37.3655C54.4946 32.8479 54.6828 28.2361 54.4946 23.6243C54.3063 19.6714 53.1769 18.1655 47.9063 17.9773L15.624 16.942C9.12988 16.7538 6.87105 18.0714 6.02399 24.3773C5.27105 30.1185 5.27105 35.8596 6.02399 41.6008C6.02399 41.8832 5.83576 42.0714 5.64752 42.1655C5.36517 42.1655 5.17694 41.9773 5.08282 41.6949Z" fill="black"/>
<path d="M19.9523 31.1537L15.0582 26.3537C14.8699 26.1655 14.8699 25.8831 15.0582 25.6949C15.2464 25.5067 15.5288 25.5067 15.717 25.6949L20.6111 30.4949C20.7993 30.6831 20.7993 30.9655 20.6111 31.1537C20.4229 31.3419 20.1405 31.3419 19.9523 31.1537Z" fill="black"/>
<path d="M15.2475 30.7772C15.0593 30.589 15.0593 30.3066 15.2475 30.1184C16.6593 28.5184 18.3534 27.2008 20.2357 26.2596C20.424 26.1655 20.7063 26.2596 20.8946 26.4478C20.9887 26.6361 20.8946 26.9184 20.7063 27.1066C18.9181 27.9537 17.3181 29.2713 16.0004 30.7772C15.7181 30.9655 15.4357 30.9655 15.2475 30.7772Z" fill="black"/>
<path d="M39.3402 29.3642L33.1285 24.6583C32.9402 24.47 32.9402 24.1877 33.1285 23.9995C33.3167 23.8112 33.5991 23.7171 33.7873 23.9053L39.9991 28.6112C40.1873 28.7995 40.2814 29.0818 40.0932 29.27C39.9049 29.4583 39.5285 29.5524 39.3402 29.3642Z" fill="black"/>
<path d="M34.3537 27.859C34.2595 27.5766 34.3537 27.3884 34.636 27.2001C36.5184 26.3531 38.3066 25.4119 40.0948 24.3766C40.2831 24.2825 40.5654 24.2825 40.7537 24.5648C40.8478 24.7531 40.8478 25.0354 40.5654 25.2237C38.7772 26.259 36.8948 27.2942 35.0125 28.0472C34.7301 28.2354 34.4478 28.1413 34.3537 27.859Z" fill="black"/>
<path d="M33.1286 40.1876C29.5521 39.717 25.7874 39.5288 22.2109 39.6229C21.5521 39.6229 21.5521 38.6817 22.2109 38.6817C25.8815 38.5876 29.6462 38.7759 33.3168 39.2464C33.5992 39.2464 33.7874 39.5288 33.6933 39.8111C33.5991 40.0935 33.4109 40.2817 33.1286 40.1876Z" fill="black"/>
<path d="M20.5173 59.2003C20.235 59.2003 20.0468 58.9179 20.0468 58.7297C20.1409 57.5061 20.7056 56.3767 21.5526 55.4355C21.6468 55.3414 21.7409 55.2473 21.9291 55.2473C37.6468 55.1532 37.082 54.965 37.3644 55.3414L39.435 58.165C39.6232 58.3532 39.5291 58.6355 39.3409 58.8238C39.1526 59.012 38.8703 58.9179 38.682 58.7297L36.7056 56.0944L22.1173 56.1885C21.4585 56.9414 21.082 57.7885 20.9879 58.7297C20.9879 59.012 20.7997 59.2003 20.5173 59.2003Z" fill="black"/>
<path d="M33.317 52.2361H18.6347C18.3523 52.2361 18.1641 52.0479 18.1641 51.7655C18.1641 51.4832 18.3523 51.2949 18.6347 51.2949H33.317C33.5994 51.2949 33.7876 51.4832 33.7876 51.7655C33.7876 52.0479 33.5994 52.2361 33.317 52.2361Z" fill="black"/>
<path d="M19.4817 55.4353H9.88172C9.59937 55.4353 9.41113 55.2471 9.41113 54.9647C9.41113 54.6824 9.59937 54.4941 9.88172 54.4941H19.4817C19.7641 54.4941 19.9523 54.6824 19.9523 54.9647C19.9523 55.2471 19.7641 55.4353 19.4817 55.4353Z" fill="black"/>
<path d="M46.8705 53.1765H41.5057C41.2234 53.1765 41.0352 52.9883 41.0352 52.7059C41.0352 52.4236 41.2234 52.2354 41.5057 52.2354H46.8705C47.1528 52.2354 47.341 52.4236 47.341 52.7059C47.341 52.9883 47.1528 53.1765 46.8705 53.1765Z" fill="black"/>
<path d="M46.8704 15.1523C45.6469 14.9641 45.1763 13.2699 45.741 12.1405C46.2116 11.1994 47.1528 10.6347 47.9057 10.0699C48.2822 9.78759 49.1292 8.94053 49.0351 8.09347C48.8469 7.05818 47.341 6.39936 47.0586 5.08171C46.8704 4.23465 47.341 3.19936 48.1881 3.10524C48.8469 3.01112 48.941 3.9523 48.2822 4.04642C47.9998 4.04642 47.8116 4.61112 47.9057 4.89347C48.1881 5.92877 49.6939 6.49347 49.8822 7.90524C50.0704 8.84642 49.5057 9.88171 48.4704 10.7288C47.7175 11.2935 46.9645 11.7641 46.4939 12.517C46.3057 13.1758 46.3998 14.117 47.0586 14.3052C47.6233 14.3994 47.4351 15.2464 46.8704 15.1523Z" fill="#31CAFF"/>
<path d="M54.2103 16.6582C53.0808 15.2465 53.5514 12.7994 55.1514 11.9524C55.7161 11.67 56.2808 11.5759 56.8456 11.4818C59.1044 11.0112 58.822 10.6347 59.0103 9.0347C59.1985 6.77588 60.3279 4.79941 61.4573 3.01118C61.6456 2.82294 61.9279 2.72882 62.1161 2.91706C62.3044 3.01117 62.3985 3.38765 62.3044 3.57588C61.2691 5.27 60.1397 7.15235 60.0456 9.12882C60.0456 9.78765 60.0456 10.5406 59.6691 11.1053C58.822 12.5171 56.8456 12.2347 55.7161 12.8935C54.5867 13.4582 54.3044 15.1524 55.0573 16.0935C55.2456 16.2818 55.1514 16.5641 54.9632 16.7524C54.6808 16.9406 54.3985 16.8465 54.2103 16.6582Z" fill="#31CAFF"/>
<path d="M38.3073 14.117C37.5544 13.9287 36.425 13.6464 35.5779 12.7993C34.825 12.0464 34.4485 10.7287 35.1073 9.69344C35.5779 8.84638 36.5191 8.56402 36.9897 7.99932C37.5544 7.43461 37.6485 6.39932 37.272 5.45814C36.8956 4.51697 36.2367 3.76402 35.5779 2.91696C35.3897 2.72873 35.3897 2.44638 35.672 2.25814C35.8603 2.06991 36.1426 2.06991 36.3309 2.35226C36.9897 3.1052 37.7426 4.04638 38.2132 5.17579C38.4956 6.02285 38.5897 7.52873 37.6485 8.56402C37.0838 9.12873 36.1426 9.59932 35.8603 10.164C35.4838 10.8228 35.7661 11.6699 36.2367 12.1405C36.7073 12.6111 37.4603 12.9876 38.4956 13.2699C38.7779 13.364 38.872 13.5523 38.872 13.8346C38.7779 14.0228 38.4956 14.2111 38.3073 14.117Z" fill="#31CAFF"/>
</svg>
