<svg width="64" height="64" viewBox="0 0 64 64" fill="none" xmlns="http://www.w3.org/2000/svg">
<path d="M37.454 52.832C34.6884 52.8405 31.9492 52.2931 29.3992 51.2222C26.8493 50.1514 24.5406 48.5789 22.6103 46.5983L22.4365 46.4208L37.3553 32.082H58.249C58.084 44.1358 48.499 52.832 37.454 52.832Z" fill="#40C2D6"/>
<path d="M21.2393 19.014L21.393 18.8265C23.3412 16.4514 25.7927 14.5388 28.5703 13.2268C31.348 11.9148 34.3824 11.2363 37.4543 11.2403H37.7043V32.854L21.2393 19.014Z" fill="#EFBD42"/>
<path d="M37.209 32.5727V11.2402C49.5977 11.2402 58.4277 21.284 58.2465 32.2402V32.5702L37.209 32.5727Z" fill="#40C2D6"/>
<path d="M21.7081 20.21L36.1694 32.375L22.8156 45.205C16.3519 37.8475 16.2044 27.75 21.7081 20.21Z" fill="#40C2D6"/>
<path d="M20.582 45.8614C23.4223 48.7574 27.0562 50.7478 31.0257 51.582C34.9953 52.4163 39.123 52.0569 42.8887 50.5493C46.6544 49.0416 49.8896 46.4532 52.1867 43.11C54.4838 39.7668 55.74 35.8186 55.797 31.7627H35.2495L20.582 45.8614Z" fill="#E73F46"/>
<path d="M35.249 10.9219C32.2126 10.9183 29.2134 11.5893 26.468 12.8863C23.7225 14.1834 21.2995 16.0741 19.374 18.4219L35.249 31.7631V10.9219Z" fill="#EFBD42"/>
<path d="M35.249 10.9219V31.7631H55.7965C55.9565 20.2256 46.644 10.9219 35.249 10.9219Z" fill="#917EEC"/>
<path d="M20.6249 44.285C17.7124 40.962 16.0187 36.746 15.8228 32.3317C15.627 27.9173 16.9406 23.5679 19.5474 20L33.5999 31.8175L20.6249 44.285Z" fill="#86EBF9"/>
<path d="M15.4238 37.2402L17.3273 38.0584L11.1441 52.4442L9.2406 51.626L15.4238 37.2402Z" fill="#C6C6C6"/>
<path d="M14.006 43.9073L13.3684 43.6332C12.2988 43.1735 11.0589 43.6679 10.5992 44.7376L5.40838 56.8144C4.94863 57.884 5.44306 59.1239 6.51272 59.5836L7.15027 59.8577C8.21993 60.3174 9.45977 59.823 9.91953 58.7533L15.1103 46.6765C15.5701 45.6069 15.0757 44.367 14.006 43.9073Z" fill="#287EEF"/>
<path d="M18.5379 41.5143C23.4415 41.5143 27.4167 37.5392 27.4167 32.6356C27.4167 27.732 23.4415 23.7568 18.5379 23.7568C13.6343 23.7568 9.65918 27.732 9.65918 32.6356C9.65918 37.5392 13.6343 41.5143 18.5379 41.5143Z" fill="#287EEF"/>
<path d="M18.5379 39.8755C22.5364 39.8755 25.7779 36.634 25.7779 32.6355C25.7779 28.637 22.5364 25.3955 18.5379 25.3955C14.5393 25.3955 11.2979 28.637 11.2979 32.6355C11.2979 36.634 14.5393 39.8755 18.5379 39.8755Z" fill="#E5E5E5"/>
<path d="M15.624 30.3848C15.624 28.9223 16.6978 28.0298 18.089 27.8598V26.8398C18.0865 26.8025 18.0917 26.7651 18.1042 26.73C18.1167 26.6948 18.1363 26.6626 18.1618 26.6353C18.1873 26.608 18.2181 26.5862 18.2524 26.5714C18.2866 26.5565 18.3236 26.5488 18.3609 26.5488C18.3982 26.5488 18.4352 26.5565 18.4694 26.5714C18.5037 26.5862 18.5345 26.608 18.56 26.6353C18.5855 26.6626 18.6051 26.6948 18.6176 26.73C18.6301 26.7651 18.6353 26.8025 18.6328 26.8398V27.8398C19.1462 27.847 19.6471 27.9991 20.0778 28.2785C20.3863 28.4887 20.6395 28.7703 20.8157 29.0994C20.992 29.4285 21.0862 29.7952 21.0903 30.1685C21.0903 30.7348 20.7578 31.0298 20.2815 31.0298C20.2299 31.026 20.1795 31.012 20.1332 30.9887C20.087 30.9654 20.0458 30.9332 20.012 30.894C19.9782 30.8547 19.9525 30.8092 19.9363 30.76C19.9202 30.7108 19.9139 30.6589 19.9178 30.6073C19.9103 29.2985 19.4878 28.6073 18.6328 28.5198V32.156C19.3215 32.5573 19.7753 32.8448 20.0078 33.011C20.6328 33.4573 21.089 34.031 21.089 34.886C21.089 35.921 20.589 36.636 19.839 37.0323C19.4663 37.2342 19.0579 37.3615 18.6365 37.4073V38.4273C18.6391 38.4645 18.6339 38.5019 18.6214 38.5371C18.6089 38.5723 18.5892 38.6045 18.5637 38.6318C18.5383 38.6591 18.5074 38.6808 18.4732 38.6957C18.4389 38.7105 18.402 38.7182 18.3646 38.7182C18.3273 38.7182 18.2904 38.7105 18.2561 38.6957C18.2219 38.6808 18.191 38.6591 18.1655 38.6318C18.1401 38.6045 18.1204 38.5723 18.1079 38.5371C18.0954 38.5019 18.0902 38.4645 18.0928 38.4273V37.4373C17.5797 37.4238 17.0802 37.2695 16.649 36.991C16.3387 36.782 16.0834 36.5012 15.9049 36.1723C15.7265 35.8435 15.6301 35.4764 15.624 35.1023C15.624 34.551 15.964 34.241 16.4403 34.241C16.492 34.2448 16.5425 34.2588 16.5889 34.2822C16.6352 34.3056 16.6765 34.3379 16.7103 34.3773C16.7441 34.4166 16.7698 34.4623 16.7859 34.5117C16.8019 34.561 16.8081 34.613 16.804 34.6648C16.8008 35.1737 16.9255 35.6753 17.1665 36.1235C17.2545 36.3004 17.3847 36.4529 17.5456 36.5676C17.7065 36.6822 17.8931 36.7555 18.089 36.781V33.3748C16.8628 32.576 15.624 31.7973 15.624 30.3885M18.089 31.8023V28.571C17.7765 28.6671 17.5036 28.8619 17.3114 29.1263C17.1191 29.3907 17.0178 29.7104 17.0228 30.0373C17.0228 30.846 17.4615 31.376 18.089 31.7985M18.6328 36.706C18.9349 36.5949 19.1966 36.3956 19.3841 36.1339C19.5715 35.8723 19.676 35.5603 19.684 35.2385C19.684 34.6335 19.2453 34.1735 18.6328 33.7385V36.706Z" fill="#2D1929"/>
<path d="M28.1992 13.9139C30.3942 19.4139 32.59 24.9106 34.7867 30.4039C34.4925 24.4781 34.2009 18.5519 33.9117 12.6252C31.9326 12.5982 29.9751 13.0398 28.1992 13.9139Z" fill="#D7981A"/>
<path d="M51.6444 22.3027L36.4844 30.9765L53.7719 30.5265C53.8254 27.6426 53.0898 24.7989 51.6444 22.3027Z" fill="#6D5FDE"/>
<path d="M34.9507 33.5137C31.0216 37.6045 27.0937 41.6962 23.167 45.7887C25.8007 48.6637 29.432 50.0999 33.3957 50.1262C33.9149 44.5887 34.4332 39.0512 34.9507 33.5137Z" fill="#CC3745"/>
<path d="M22.4365 30.7172C22.3785 30.7172 22.3216 30.7011 22.2722 30.6706C22.2229 30.64 22.183 30.5964 22.157 30.5445C22.1311 30.4926 22.1201 30.4345 22.1253 30.3767C22.1305 30.3189 22.1517 30.2637 22.1865 30.2172L29.874 19.8172C29.8998 19.7822 29.9327 19.7529 29.9705 19.7313C30.0083 19.7097 30.0502 19.6962 30.0935 19.6917C30.1368 19.6873 30.1806 19.6919 30.222 19.7053C30.2634 19.7188 30.3016 19.7407 30.334 19.7697L36.084 24.8947L44.8553 8.73348C44.8778 8.69179 44.9096 8.65579 44.9481 8.62819C44.9867 8.60058 45.031 8.58211 45.0777 8.57416C45.1244 8.56621 45.1723 8.569 45.2178 8.58231C45.2633 8.59562 45.3052 8.6191 45.3403 8.65098L51.0253 13.8197L56.794 6.00098C56.8186 5.96815 56.8495 5.94049 56.8848 5.91958C56.9201 5.89867 56.9592 5.88492 56.9998 5.87912C57.0405 5.87331 57.0818 5.87557 57.1216 5.88575C57.1613 5.89594 57.1987 5.91385 57.2315 5.93848C57.2644 5.9631 57.292 5.99395 57.3129 6.02926C57.3338 6.06457 57.3476 6.10366 57.3534 6.14428C57.3592 6.18491 57.3569 6.22628 57.3467 6.26603C57.3366 6.30579 57.3186 6.34315 57.294 6.37598L51.3203 14.4772C51.2945 14.5125 51.2615 14.542 51.2236 14.5638C51.1856 14.5855 51.1435 14.599 51.1 14.6033C51.0565 14.6077 51.0125 14.6029 50.971 14.5891C50.9295 14.5753 50.8913 14.553 50.859 14.5235L45.214 9.37598L36.444 25.5447C36.4213 25.5859 36.3897 25.6215 36.3514 25.6488C36.3131 25.6761 36.2692 25.6944 36.2229 25.7024C36.1766 25.7105 36.129 25.708 36.0838 25.6952C36.0385 25.6824 35.9968 25.6596 35.9615 25.6285L30.169 20.4635L22.6878 30.5885C22.6589 30.6281 22.6211 30.6603 22.5774 30.6827C22.5338 30.7051 22.4856 30.7169 22.4365 30.7172Z" fill="#2D1929"/>
<path d="M29.9069 21.0755C30.6752 21.0755 31.2981 20.4526 31.2981 19.6842C31.2981 18.9159 30.6752 18.293 29.9069 18.293C29.1385 18.293 28.5156 18.9159 28.5156 19.6842C28.5156 20.4526 29.1385 21.0755 29.9069 21.0755Z" fill="#2D1929"/>
<path d="M36.484 27.2024C37.2524 27.2024 37.8753 26.5795 37.8753 25.8112C37.8753 25.0428 37.2524 24.4199 36.484 24.4199C35.7157 24.4199 35.0928 25.0428 35.0928 25.8112C35.0928 26.5795 35.7157 27.2024 36.484 27.2024Z" fill="#2D1929"/>
<path d="M44.7703 10.0169C45.5386 10.0169 46.1615 9.39399 46.1615 8.62563C46.1615 7.85726 45.5386 7.23438 44.7703 7.23438C44.0019 7.23438 43.379 7.85726 43.379 8.62563C43.379 9.39399 44.0019 10.0169 44.7703 10.0169Z" fill="#2D1929"/>
<path d="M51.2243 16.0315C51.9926 16.0315 52.6155 15.4086 52.6155 14.6403C52.6155 13.8719 51.9926 13.249 51.2243 13.249C50.4559 13.249 49.833 13.8719 49.833 14.6403C49.833 15.4086 50.4559 16.0315 51.2243 16.0315Z" fill="#2D1929"/>
<path d="M57.6061 6.57938C58.3745 6.57938 58.9973 5.95649 58.9973 5.18812C58.9973 4.41976 58.3745 3.79688 57.6061 3.79688C56.8377 3.79688 56.2148 4.41976 56.2148 5.18812C56.2148 5.95649 56.8377 6.57938 57.6061 6.57938Z" fill="#2D1929"/>
<path d="M13.4699 44.4492C13.4699 44.4492 14.2399 46.038 13.3024 47.4492C12.3649 48.8605 11.4749 49.0217 11.5362 50.3105C11.5974 51.5992 11.1987 53.3792 9.91117 54.0242C8.62367 54.6692 8.34617 55.6817 8.77492 56.5092C9.20367 57.3367 8.12492 59.6092 5.95117 58.198C5.95117 58.198 7.37242 59.8292 8.65117 59.3017C9.92992 58.7742 9.87492 57.6455 10.0937 56.418C10.3124 55.1905 11.0737 54.418 11.7512 53.6867C12.4287 52.9555 12.6512 50.4542 12.7512 49.5942C12.8512 48.7342 13.7124 48.6742 14.3874 47.3442C15.0624 46.0142 14.0424 44.5617 13.4699 44.4492Z" fill="#1573D8"/>
</svg>
