<svg width="64" height="64" viewBox="0 0 64 64" fill="none" xmlns="http://www.w3.org/2000/svg">
<path d="M47.7728 11.04H47.6641C47.4397 11.04 47.2578 11.2219 47.2578 11.4463V21.8725C47.2578 22.0969 47.4397 22.2788 47.6641 22.2788H47.7728C47.9972 22.2788 48.1791 22.0969 48.1791 21.8725V11.4463C48.1791 11.2219 47.9972 11.04 47.7728 11.04Z" fill="#86EBF9"/>
<path d="M57.2269 11.04H57.1182C56.8938 11.04 56.7119 11.2219 56.7119 11.4463V21.8725C56.7119 22.0969 56.8938 22.2788 57.1182 22.2788H57.2269C57.4513 22.2788 57.6332 22.0969 57.6332 21.8725V11.4463C57.6332 11.2219 57.4513 11.04 57.2269 11.04Z" fill="#86EBF9"/>
<path d="M45.1963 54.3199H30.75C29.9544 54.3199 29.1913 54.0038 28.6287 53.4412C28.0661 52.8786 27.75 52.1156 27.75 51.3199V39.0699C27.75 38.9705 27.7895 38.8751 27.8598 38.8048C27.9302 38.7344 28.0255 38.6949 28.125 38.6949C28.2245 38.6949 28.3198 38.7344 28.3902 38.8048C28.4605 38.8751 28.5 38.9705 28.5 39.0699V51.3199C28.5 51.9167 28.7371 52.489 29.159 52.9109C29.581 53.3329 30.1533 53.5699 30.75 53.5699H45.1963C45.793 53.5699 46.3653 53.3329 46.7872 52.9109C47.2092 52.489 47.4463 51.9167 47.4463 51.3199V19.2637C47.4463 19.1642 47.4858 19.0688 47.5561 18.9985C47.6264 18.9282 47.7218 18.8887 47.8213 18.8887C47.9207 18.8887 48.0161 18.9282 48.0864 18.9985C48.1567 19.0688 48.1963 19.1642 48.1963 19.2637V51.3174C48.1966 51.7116 48.1192 52.102 47.9686 52.4662C47.818 52.8305 47.5971 53.1615 47.3185 53.4404C47.0398 53.7192 46.709 53.9404 46.3449 54.0913C45.9807 54.2422 45.5904 54.3199 45.1963 54.3199Z" fill="#2D1929"/>
<path d="M48.5526 17.2959H46.8826C46.4048 17.2959 46.0176 17.6832 46.0176 18.1609V33.1234C46.0176 33.6011 46.4048 33.9884 46.8826 33.9884H48.5526C49.0303 33.9884 49.4176 33.6011 49.4176 33.1234V18.1609C49.4176 17.6832 49.0303 17.2959 48.5526 17.2959Z" fill="#E73F46"/>
<path d="M53.22 60.9059H24.3263C23.1791 60.9042 22.0795 60.4477 21.2685 59.6365C20.4575 58.8252 20.0013 57.7255 20 56.5784V43.1246C20 43.0252 20.0395 42.9298 20.1098 42.8594C20.1802 42.7891 20.2755 42.7496 20.375 42.7496C20.4745 42.7496 20.5698 42.7891 20.6402 42.8594C20.7105 42.9298 20.75 43.0252 20.75 43.1246V56.5784C20.751 57.5269 21.1282 58.4362 21.7989 59.1069C22.4696 59.7776 23.379 60.1549 24.3275 60.1559H53.22C54.1685 60.1549 55.0779 59.7776 55.7486 59.1069C56.4193 58.4362 56.7965 57.5269 56.7975 56.5784V28.0371C56.7975 27.9377 56.837 27.8423 56.9073 27.7719C56.9777 27.7016 57.073 27.6621 57.1725 27.6621C57.272 27.6621 57.3673 27.7016 57.4377 27.7719C57.508 27.8423 57.5475 27.9377 57.5475 28.0371V56.5784C57.5462 57.7257 57.0898 58.8256 56.2785 59.6369C55.4673 60.4482 54.3673 60.9045 53.22 60.9059Z" fill="#2D1929"/>
<path d="M49.4493 17.2959H45.988C45.6139 17.2959 45.3105 17.5992 45.3105 17.9734V18.1546C45.3105 18.5288 45.6139 18.8321 45.988 18.8321H49.4493C49.8235 18.8321 50.1268 18.5288 50.1268 18.1546V17.9734C50.1268 17.5992 49.8235 17.2959 49.4493 17.2959Z" fill="#E73F46"/>
<path d="M58.0077 17.2959H56.3377C55.8599 17.2959 55.4727 17.6832 55.4727 18.1609V33.1234C55.4727 33.6011 55.8599 33.9884 56.3377 33.9884H58.0077C58.4854 33.9884 58.8727 33.6011 58.8727 33.1234V18.1609C58.8727 17.6832 58.4854 17.2959 58.0077 17.2959Z" fill="#1573D8"/>
<path d="M58.9024 17.2959H55.4412C55.067 17.2959 54.7637 17.5992 54.7637 17.9734V18.1546C54.7637 18.5288 55.067 18.8321 55.4412 18.8321H58.9024C59.2766 18.8321 59.5799 18.5288 59.5799 18.1546V17.9734C59.5799 17.5992 59.2766 17.2959 58.9024 17.2959Z" fill="#1573D8"/>
<path d="M32.0928 47.0588H8.4153C7.97068 47.053 7.54493 46.8782 7.22454 46.5699C6.90414 46.2615 6.71313 45.8428 6.6903 45.3988L5.0003 6.35125C4.9503 5.21125 5.7403 4.28125 6.7653 4.28125H33.3328C34.3565 4.28125 35.1553 5.21125 35.1165 6.35125L33.8015 45.3988C33.7848 45.8421 33.598 46.262 33.2797 46.5711C32.9615 46.8802 32.5364 47.0549 32.0928 47.0588Z" fill="#D7981A"/>
<path d="M35.4762 47.0588H11.7987C11.3549 47.0555 10.9295 46.8811 10.6111 46.5718C10.2928 46.2625 10.1061 45.8423 10.09 45.3988L8.77373 6.35125C8.73623 5.21125 9.53498 4.28125 10.5587 4.28125H37.125C38.1487 4.28125 38.9387 5.21125 38.89 6.35125L37.2012 45.3988C37.1784 45.8428 36.9874 46.2615 36.667 46.5699C36.3466 46.8782 35.9208 47.053 35.4762 47.0588Z" fill="#EFBD42"/>
<path d="M34.8088 7.45703H12.8775C11.9269 7.45703 11.1562 8.22766 11.1562 9.17828V22.562C11.1562 23.5127 11.9269 24.2833 12.8775 24.2833H34.8088C35.7594 24.2833 36.53 23.5127 36.53 22.562V9.17828C36.53 8.22766 35.7594 7.45703 34.8088 7.45703Z" fill="#E73F46"/>
<mask id="mask0_404_54650" style="mask-type:luminance" maskUnits="userSpaceOnUse" x="13" y="9" width="22" height="12">
<path d="M23.8441 9.59863C22.4341 9.59847 21.0378 9.87605 19.7351 10.4155C18.4324 10.955 17.2487 11.7458 16.2516 12.7428C15.2545 13.7397 14.4636 14.9233 13.9239 16.226C13.3843 17.5287 13.1066 18.9249 13.1066 20.3349C13.1066 20.4536 13.1537 20.5674 13.2376 20.6513C13.3216 20.7352 13.4354 20.7824 13.5541 20.7824H34.1341C34.2528 20.7824 34.3666 20.7352 34.4505 20.6513C34.5344 20.5674 34.5816 20.4536 34.5816 20.3349C34.5812 17.4873 33.4498 14.7565 31.4362 12.7431C29.4225 10.7297 26.6916 9.59863 23.8441 9.59863Z" fill="white"/>
</mask>
<g mask="url(#mask0_404_54650)">
<path d="M23.8441 9.59863C22.4341 9.59847 21.0378 9.87605 19.7351 10.4155C18.4324 10.955 17.2487 11.7458 16.2516 12.7428C15.2545 13.7397 14.4636 14.9233 13.9239 16.226C13.3843 17.5287 13.1066 18.9249 13.1066 20.3349C13.1066 20.4536 13.1537 20.5674 13.2376 20.6513C13.3216 20.7352 13.4354 20.7824 13.5541 20.7824H34.1341C34.2528 20.7824 34.3666 20.7352 34.4505 20.6513C34.5344 20.5674 34.5816 20.4536 34.5816 20.3349C34.5812 17.4873 33.4498 14.7565 31.4362 12.7431C29.4225 10.7297 26.6916 9.59863 23.8441 9.59863Z" fill="#C6C6C6"/>
<path d="M24.8352 9.59863C23.4251 9.59847 22.0289 9.87605 20.7262 10.4155C19.4235 10.955 18.2398 11.7458 17.2427 12.7428C16.2456 13.7397 15.4546 14.9233 14.915 16.226C14.3754 17.5287 14.0977 18.9249 14.0977 20.3349C14.0977 20.3938 14.1093 20.452 14.1318 20.5064C14.1544 20.5608 14.1875 20.6102 14.2292 20.6518C14.2709 20.6933 14.3203 20.7263 14.3748 20.7487C14.4292 20.7711 14.4875 20.7825 14.5464 20.7824H35.1252C35.2438 20.7824 35.3577 20.7352 35.4416 20.6513C35.5255 20.5674 35.5727 20.4536 35.5727 20.3349C35.5723 17.4873 34.4409 14.7565 32.4273 12.7431C30.4136 10.7297 27.6827 9.59863 24.8352 9.59863Z" fill="white"/>
</g>
<path d="M23.8439 12.2275C23.8107 12.2275 23.7789 12.2144 23.7555 12.1909C23.732 12.1675 23.7189 12.1357 23.7189 12.1025V9.97754C23.7189 9.94439 23.732 9.91259 23.7555 9.88915C23.7789 9.86571 23.8107 9.85254 23.8439 9.85254C23.877 9.85254 23.9088 9.86571 23.9323 9.88915C23.9557 9.91259 23.9689 9.94439 23.9689 9.97754V12.1025C23.9689 12.1357 23.9557 12.1675 23.9323 12.1909C23.9088 12.2144 23.877 12.2275 23.8439 12.2275Z" fill="#2D1929"/>
<path d="M19.9884 13.3913C19.969 13.3913 19.9499 13.3867 19.9325 13.3781C19.9151 13.3694 19.9 13.3568 19.8884 13.3413L18.6134 11.6425C18.6018 11.6296 18.5929 11.6145 18.5874 11.598C18.582 11.5815 18.58 11.5641 18.5816 11.5468C18.5832 11.5296 18.5885 11.5128 18.5969 11.4977C18.6054 11.4825 18.6169 11.4693 18.6308 11.4588C18.6446 11.4484 18.6605 11.4409 18.6774 11.4369C18.6943 11.4329 18.7118 11.4325 18.7289 11.4357C18.7459 11.4389 18.7622 11.4456 18.7765 11.4553C18.7908 11.4651 18.803 11.4778 18.8122 11.4925L20.0884 13.1913C20.1023 13.2098 20.1108 13.2319 20.1129 13.255C20.115 13.2781 20.1106 13.3014 20.1002 13.3222C20.0898 13.3429 20.0739 13.3604 20.0541 13.3726C20.0344 13.3848 20.0116 13.3913 19.9884 13.3913Z" fill="#2D1929"/>
<path d="M17.75 15.5002C17.6925 15.5002 17.8287 15.584 16.0562 14.3302C16.0428 14.3208 16.0313 14.3088 16.0225 14.2949C16.0137 14.281 16.0077 14.2656 16.0048 14.2494C16.002 14.2332 16.0023 14.2166 16.0059 14.2005C16.0095 14.1845 16.0162 14.1693 16.0256 14.1559C16.0351 14.1424 16.0471 14.1309 16.0609 14.1221C16.0748 14.1133 16.0903 14.1073 16.1065 14.1044C16.1227 14.1016 16.1392 14.102 16.1553 14.1055C16.1713 14.1091 16.1865 14.1158 16.2 14.1252L17.825 15.274C17.8465 15.2896 17.8625 15.3116 17.8707 15.3369C17.8788 15.3621 17.8787 15.3894 17.8704 15.4146C17.862 15.4398 17.8458 15.4617 17.8242 15.4771C17.8025 15.4925 17.7766 15.5006 17.75 15.5002Z" fill="#2D1929"/>
<path d="M16.3751 18.3061C16.3601 18.3061 16.5063 18.3274 14.2501 17.9824C14.2338 17.9798 14.2182 17.974 14.2042 17.9654C14.1901 17.9567 14.1779 17.9454 14.1683 17.9321C14.1587 17.9187 14.1517 17.9036 14.148 17.8875C14.1442 17.8715 14.1436 17.8549 14.1463 17.8386C14.1515 17.806 14.1695 17.7768 14.1962 17.7573C14.2229 17.7379 14.2562 17.7298 14.2888 17.7349L16.3888 18.0574C16.4052 18.0586 16.4212 18.063 16.4359 18.0705C16.4506 18.0779 16.4637 18.0881 16.4745 18.1006C16.4852 18.1131 16.4934 18.1276 16.4985 18.1432C16.5037 18.1588 16.5057 18.1753 16.5044 18.1917C16.5032 18.2082 16.4988 18.2242 16.4913 18.2389C16.4839 18.2536 16.4737 18.2666 16.4612 18.2774C16.4487 18.2881 16.4342 18.2963 16.4186 18.3014C16.403 18.3066 16.3865 18.3086 16.3701 18.3074L16.3751 18.3061Z" fill="#2D1929"/>
<path d="M27.3135 13.3911C27.2903 13.3911 27.2675 13.3847 27.2478 13.3725C27.228 13.3603 27.2121 13.3428 27.2017 13.322C27.1913 13.3013 27.1869 13.278 27.189 13.2549C27.1911 13.2318 27.1995 13.2097 27.2135 13.1911L28.4897 11.4924C28.5096 11.4659 28.5392 11.4483 28.572 11.4436C28.6049 11.439 28.6382 11.4475 28.6647 11.4674C28.6912 11.4873 28.7088 11.5169 28.7135 11.5497C28.7182 11.5825 28.7096 11.6159 28.6897 11.6424L27.4135 13.3411C27.4018 13.3567 27.3867 13.3693 27.3694 13.3779C27.352 13.3866 27.3329 13.3911 27.3135 13.3911Z" fill="#2D1929"/>
<path d="M29.3953 15.5175C29.3687 15.517 29.3429 15.5081 29.3217 15.492C29.3006 15.4759 29.2851 15.4534 29.2776 15.4279C29.27 15.4024 29.2709 15.3751 29.2799 15.3501C29.2889 15.3251 29.3057 15.3036 29.3278 15.2887L31.1053 14.125C31.1331 14.1068 31.1671 14.1003 31.1997 14.1071C31.2322 14.1139 31.2608 14.1334 31.279 14.1612C31.2973 14.1891 31.3037 14.223 31.2969 14.2556C31.2901 14.2882 31.2706 14.3168 31.2428 14.335C29.309 15.5987 29.449 15.5175 29.3953 15.5175Z" fill="#2D1929"/>
<path d="M30.9288 18.3064C30.9124 18.3076 30.8959 18.3056 30.8802 18.3005C30.8646 18.2953 30.8501 18.2871 30.8377 18.2764C30.8252 18.2657 30.8149 18.2526 30.8075 18.2379C30.8001 18.2232 30.7956 18.2072 30.7944 18.1908C30.7932 18.1743 30.7952 18.1579 30.8003 18.1422C30.8055 18.1266 30.8137 18.1121 30.8244 18.0996C30.8351 18.0872 30.8482 18.0769 30.8629 18.0695C30.8776 18.0621 30.8936 18.0576 30.91 18.0564L33.01 17.7339C33.0427 17.7288 33.076 17.7369 33.1027 17.7564C33.1294 17.7758 33.1473 17.805 33.1525 17.8376C33.1552 17.854 33.1546 17.8707 33.1507 17.8868C33.1469 17.9029 33.1399 17.9181 33.1301 17.9315C33.1203 17.9448 33.108 17.9561 33.0938 17.9647C33.0797 17.9733 33.0639 17.979 33.0475 17.9814C30.8138 18.3251 30.9438 18.3064 30.9288 18.3064Z" fill="#2D1929"/>
<path d="M18.7135 15.7139L18.3535 16.2339L21.516 18.8751L22.106 18.0726L18.7135 15.7139Z" fill="#2D1929"/>
<path d="M23.844 23.6461C25.7605 23.6461 27.314 22.0925 27.314 20.1761C27.314 18.2596 25.7605 16.7061 23.844 16.7061C21.9276 16.7061 20.374 18.2596 20.374 20.1761C20.374 22.0925 21.9276 23.6461 23.844 23.6461Z" fill="#E73F46"/>
<mask id="mask1_404_54650" style="mask-type:luminance" maskUnits="userSpaceOnUse" x="21" y="17" width="6" height="6">
<path d="M23.844 22.6557C25.213 22.6557 26.3227 21.546 26.3227 20.177C26.3227 18.808 25.213 17.6982 23.844 17.6982C22.475 17.6982 21.3652 18.808 21.3652 20.177C21.3652 21.546 22.475 22.6557 23.844 22.6557Z" fill="white"/>
</mask>
<g mask="url(#mask1_404_54650)">
<path d="M23.844 22.6557C25.213 22.6557 26.3227 21.546 26.3227 20.177C26.3227 18.808 25.213 17.6982 23.844 17.6982C22.475 17.6982 21.3652 18.808 21.3652 20.177C21.3652 21.546 22.475 22.6557 23.844 22.6557Z" fill="#C6C6C6"/>
<path d="M24.5052 22.6557C25.8742 22.6557 26.984 21.546 26.984 20.177C26.984 18.808 25.8742 17.6982 24.5052 17.6982C23.1363 17.6982 22.0265 18.808 22.0265 20.177C22.0265 21.546 23.1363 22.6557 24.5052 22.6557Z" fill="white"/>
</g>
<path d="M23.8438 44.3975C28.5554 44.3975 32.375 40.5779 32.375 35.8662C32.375 31.1545 28.5554 27.335 23.8438 27.335C19.1321 27.335 15.3125 31.1545 15.3125 35.8662C15.3125 40.5779 19.1321 44.3975 23.8438 44.3975Z" fill="#1573D8"/>
<path d="M19.3138 31.3362C20.2097 30.4403 21.3512 29.8302 22.5939 29.583C23.8366 29.3359 25.1246 29.4628 26.2952 29.9476C27.4658 30.4325 28.4663 31.2536 29.1702 32.3071C29.8741 33.3606 30.2498 34.5992 30.2498 35.8662C30.2498 37.1332 29.8741 38.3718 29.1702 39.4253C28.4663 40.4788 27.4658 41.2999 26.2952 41.7848C25.1246 42.2697 23.8366 42.3966 22.5939 42.1494C21.3512 41.9022 20.2097 41.2921 19.3138 40.3962C18.1141 39.1938 17.4404 37.5647 17.4404 35.8662C17.4404 34.1677 18.1141 32.5386 19.3138 31.3362Z" fill="#86EBF9"/>
<path d="M19.5666 39.0722L27.3504 31.851C27.4192 31.7898 27.5089 31.7572 27.601 31.7599C27.6931 31.7626 27.7806 31.8004 27.8458 31.8656C27.9109 31.9307 27.9487 32.0183 27.9514 32.1104C27.9541 32.2025 27.9216 32.2921 27.8604 32.361L20.6391 40.1447C20.606 40.1802 20.5661 40.2086 20.5218 40.2283C20.4775 40.2481 20.4297 40.2587 20.3812 40.2597C20.3327 40.2606 20.2846 40.2518 20.2395 40.2338C20.1945 40.2157 20.1536 40.1889 20.1191 40.1547L19.5566 39.591C19.5224 39.5567 19.4954 39.5159 19.4773 39.471C19.4592 39.426 19.4503 39.3779 19.4512 39.3295C19.4522 39.281 19.4629 39.2333 19.4827 39.1891C19.5025 39.1449 19.5311 39.1051 19.5666 39.0722Z" fill="#40C2D6"/>
<path d="M13.5095 29.4624C14.5568 29.4624 15.4058 28.6134 15.4058 27.5662C15.4058 26.5189 14.5568 25.6699 13.5095 25.6699C12.4623 25.6699 11.6133 26.5189 11.6133 27.5662C11.6133 28.6134 12.4623 29.4624 13.5095 29.4624Z" fill="#1573D8"/>
<path d="M33.8748 29.4624C34.922 29.4624 35.771 28.6134 35.771 27.5662C35.771 26.5189 34.922 25.6699 33.8748 25.6699C32.8275 25.6699 31.9785 26.5189 31.9785 27.5662C31.9785 28.6134 32.8275 29.4624 33.8748 29.4624Z" fill="#1573D8"/>
<path d="M13.5091 28.7545C14.1656 28.7545 14.6978 28.2222 14.6978 27.5657C14.6978 26.9092 14.1656 26.377 13.5091 26.377C12.8525 26.377 12.3203 26.9092 12.3203 27.5657C12.3203 28.2222 12.8525 28.7545 13.5091 28.7545Z" fill="#86EBF9"/>
<path d="M33.8753 28.7545C34.5318 28.7545 35.064 28.2222 35.064 27.5657C35.064 26.9092 34.5318 26.377 33.8753 26.377C33.2187 26.377 32.6865 26.9092 32.6865 27.5657C32.6865 28.2222 33.2187 28.7545 33.8753 28.7545Z" fill="#86EBF9"/>
<path d="M18.2778 35.8376C18.2678 35.4239 18.2578 33.4139 19.8066 31.7689C21.7141 29.7414 24.3603 29.9989 24.6578 30.0339C21.5928 30.6326 19.2003 32.8251 18.2778 35.8376Z" fill="white"/>
<path d="M11.71 4.9502H25C20.6406 6.06899 16.0693 6.06899 11.71 4.9502Z" fill="white"/>
<path d="M10.7373 39.5862C10.5048 39.5987 9.86228 32.7187 9.60478 25.8474C9.37103 19.5812 9.45478 13.1762 9.67478 13.1699C10.1323 13.1574 11.2035 39.5624 10.7373 39.5862Z" fill="white"/>
<path d="M46.8645 30.8236C47.0819 30.8236 47.2582 28.1389 47.2582 24.8273C47.2582 21.5157 47.0819 18.8311 46.8645 18.8311C46.647 18.8311 46.4707 21.5157 46.4707 24.8273C46.4707 28.1389 46.647 30.8236 46.8645 30.8236Z" fill="white"/>
<path d="M56.3176 30.8236C56.535 30.8236 56.7113 28.1389 56.7113 24.8273C56.7113 21.5157 56.535 18.8311 56.3176 18.8311C56.1001 18.8311 55.9238 21.5157 55.9238 24.8273C55.9238 28.1389 56.1001 30.8236 56.3176 30.8236Z" fill="white"/>
</svg>
