<svg width="64" height="64" viewBox="0 0 64 64" fill="none" xmlns="http://www.w3.org/2000/svg">
<path d="M29.3813 20.2217C29.3813 20.2217 29.3338 25.6742 25.8301 29.6779C22.3263 33.6817 26.5576 39.2829 26.5576 39.2829L36.5176 36.9867L37.3201 24.0079L29.3813 20.2217Z" fill="#2D1929"/>
<mask id="mask0_404_54440" style="mask-type:luminance" maskUnits="userSpaceOnUse" x="34" y="22" width="7" height="15">
<path d="M40.9316 36.9863H34.1179V22.9901H40.9316V36.9863Z" fill="white"/>
</mask>
<g mask="url(#mask0_404_54440)">
<path d="M40.9326 36.9863H34.1189V22.9901H40.9326V36.9863Z" fill="#E39C76"/>
<path d="M40.9113 23.999C40.7741 25.7273 40.0997 27.3694 38.9826 28.6953C36.8501 31.1953 33.9413 31.4965 33.3351 31.5478V26.554L40.9113 23.999Z" fill="#D48F6E"/>
</g>
<path d="M37.2134 32.4885C37.2134 32.4885 30.6071 31.2897 27.4196 33.6385C24.2321 35.9872 20.5446 49.6572 21.7946 52.8447C23.0446 56.0322 25.8196 56.8697 28.9196 52.8447C32.0196 48.8197 37.2134 32.4885 37.2134 32.4885Z" fill="#D7981A"/>
<path d="M18.9314 30.5856C18.9314 30.5856 16.9852 27.1631 16.6102 27.1631C16.2352 27.1631 16.0102 29.0956 16.9327 30.8731C17.8552 32.6506 19.0002 31.4831 18.9314 30.5856Z" fill="#EBA284"/>
<path d="M28.4199 20.061C28.6137 18.5222 28.9824 17.586 29.0762 16.5785C29.3049 14.0885 29.0324 12.1885 30.8112 10.4922C31.3538 9.8587 31.9854 9.30714 32.6862 8.85472C35.2499 6.98222 39.4999 6.93097 42.3749 9.08347C45.6799 11.5622 45.6399 15.8335 45.6249 16.886C45.5787 21.8322 42.1424 25.151 40.6437 26.371C39.8327 27.1483 38.9217 27.8142 37.9349 28.351C36.8349 28.936 33.8874 30.501 31.7624 29.1322C31.2074 28.7747 30.4462 27.8822 29.5474 25.776C28.3849 23.0585 28.2274 21.601 28.4199 20.061Z" fill="#E39C76"/>
<path d="M32.6052 22.2983C32.0452 21.9858 31.7576 21.6533 31.7501 21.312C31.7339 20.5508 33.0477 20.4533 33.4639 18.187C33.4654 18.1788 33.4685 18.171 33.473 18.164C33.4775 18.1569 33.4833 18.1509 33.4902 18.1461C33.497 18.1414 33.5047 18.138 33.5129 18.1362C33.521 18.1344 33.5294 18.1343 33.5376 18.1358C33.5459 18.1372 33.5537 18.1403 33.5607 18.1448C33.5677 18.1493 33.5738 18.1552 33.5786 18.162C33.5833 18.1689 33.5867 18.1766 33.5884 18.1847C33.5902 18.1929 33.5904 18.2013 33.5889 18.2095C33.1652 20.5133 31.8627 20.6333 31.8764 21.3083C31.8827 21.602 32.1489 21.8983 32.6677 22.1833C32.6829 22.1916 32.6942 22.2056 32.6992 22.2222C32.7041 22.2389 32.7022 22.2568 32.6939 22.272C32.6856 22.2873 32.6716 22.2986 32.655 22.3035C32.6383 22.3085 32.6204 22.3066 32.6052 22.2983Z" fill="#2D1929"/>
<path d="M31.568 18.3593C31.5205 18.9193 31.193 19.3493 30.8267 19.318C30.4605 19.2868 30.2092 18.8093 30.2555 18.2505C30.3017 17.6918 30.6305 17.2605 30.9967 17.2905C31.363 17.3205 31.6142 17.7993 31.568 18.3593Z" fill="#2D1929"/>
<path d="M37.2064 18.832C37.1601 19.392 36.8314 19.8207 36.4664 19.7907C36.1014 19.7607 35.8489 19.282 35.8951 18.722C35.9414 18.162 36.2701 17.7332 36.6364 17.7632C37.0026 17.7932 37.2489 18.272 37.2064 18.832Z" fill="#2D1929"/>
<path d="M33.038 15.4197C33.0082 15.4197 32.9794 15.4091 32.9567 15.3897C32.903 15.3435 31.638 14.2847 30.1667 15.126C30.1524 15.1342 30.1366 15.1395 30.1202 15.1415C30.1038 15.1436 30.0871 15.1424 30.0712 15.138C30.0553 15.1335 30.0404 15.126 30.0274 15.1158C30.0144 15.1056 30.0035 15.0929 29.9955 15.0785C29.9793 15.0496 29.9752 15.0155 29.9841 14.9837C29.993 14.9518 30.0142 14.9248 30.043 14.9085C31.668 13.9797 33.1042 15.1872 33.1192 15.1997C33.1387 15.2163 33.1525 15.2385 33.159 15.2632C33.1654 15.288 33.1641 15.3141 33.1553 15.338C33.1464 15.362 33.1304 15.3827 33.1094 15.3973C33.0885 15.4119 33.0635 15.4197 33.038 15.4197Z" fill="#2D1929"/>
<path d="M38.5408 16.451C38.5211 16.451 38.5016 16.4464 38.484 16.4375C38.4665 16.4286 38.4512 16.4156 38.4396 16.3997C37.4396 15.0322 35.8508 15.4835 35.7846 15.5022C35.7539 15.5087 35.7219 15.5034 35.6949 15.4873C35.6679 15.4713 35.648 15.4457 35.639 15.4157C35.63 15.3856 35.6327 15.3533 35.6465 15.3251C35.6602 15.2969 35.6841 15.2749 35.7133 15.2635C35.7308 15.2635 37.5346 14.7397 38.6408 16.2522C38.6544 16.2708 38.6626 16.2928 38.6645 16.3157C38.6664 16.3386 38.6619 16.3616 38.6516 16.3822C38.6412 16.4027 38.6254 16.42 38.6059 16.4321C38.5863 16.4443 38.5638 16.4508 38.5408 16.451Z" fill="#2D1929"/>
<path d="M38.5474 32.3309C38.5474 32.3309 47.8724 35.0809 47.9974 39.4796C48.1224 43.7684 46.4687 60.4359 46.4687 60.4359H26.8287C26.8287 60.4359 25.5999 43.4771 26.5574 39.2834C27.5374 34.9846 32.6824 30.9171 38.5474 32.3309Z" fill="#EDEDED"/>
<path d="M38.5402 32.2998C40.6764 32.4948 46.1652 33.2998 49.3477 37.5923C50.2302 38.7848 50.2577 39.4111 51.9414 46.0736C53.8364 53.5736 55.2077 55.2773 53.6914 57.7086C53.2377 58.4386 51.7014 60.3823 46.3164 60.4323C41.5819 56.8148 37.5919 52.3154 34.5664 47.1823L37.5239 42.8611L45.3439 48.6248L44.0939 41.2748C44.2971 39.3744 43.8614 37.4604 42.8557 35.8352C41.85 34.2099 40.3316 32.966 38.5402 32.2998Z" fill="#EFBD42"/>
<path d="M20.7245 35.2061C22.2483 39.0561 23.4258 42.3211 24.2695 44.7511C26.742 51.8761 27.102 54.0111 25.997 55.2061C25.0658 56.2123 23.342 56.2811 22.2695 56.0236C16.057 54.5361 15.327 38.2073 15.2695 36.6611L20.7245 35.2061Z" fill="#D7981A"/>
<path d="M34.1178 32.1929C34.0478 32.4367 33.644 33.9517 34.5578 35.3179C34.6653 35.4767 35.1828 36.2454 35.9228 36.4879C37.334 36.9492 39.539 35.5029 40.9365 32.6629C38.969 30.9029 36.2628 30.8254 34.1178 32.1929Z" fill="#E39C76"/>
<path d="M40.9326 32.7598C40.9326 32.7598 38.6001 35.156 38.0339 40.081C37.4676 45.006 38.0339 60.436 38.0339 60.436H46.3339L47.6976 46.241C47.6976 46.241 47.7501 34.0973 40.9326 32.7598Z" fill="#EFBD42"/>
<path d="M34.1169 32.1973C34.1169 32.1973 31.9319 34.4648 30.7582 40.081C29.5844 45.6973 30.7582 60.436 30.7582 60.436H26.1919C26.1919 60.436 24.7769 42.4848 25.3907 38.9585C26.0044 35.4323 27.3032 32.5235 34.1169 32.1973Z" fill="#D7981A"/>
<path d="M15.8949 4.36064C14.9886 5.31939 12.7186 7.47315 10.0849 8.13439C9.96382 8.16409 9.85624 8.23358 9.7794 8.33173C9.70256 8.42988 9.66091 8.55099 9.66113 8.67564V13.3406C9.66113 15.8481 11.1861 18.2156 13.7799 19.7156L16.5299 21.3106C16.6213 21.3633 16.7258 21.3892 16.8312 21.3852C16.9367 21.3812 17.0389 21.3476 17.1261 21.2881L18.9436 20.0381C21.4674 18.3106 22.9111 15.8281 22.9111 13.2206V8.66689C22.9108 8.54186 22.8687 8.42052 22.7915 8.32221C22.7142 8.22389 22.6063 8.15426 22.4849 8.12439C19.8661 7.45564 17.6099 5.31439 16.7061 4.35939C16.6538 4.30436 16.5909 4.26057 16.5211 4.23068C16.4513 4.20079 16.3762 4.18543 16.3002 4.18555C16.2243 4.18566 16.1492 4.20125 16.0795 4.23136C16.0098 4.26146 15.947 4.30545 15.8949 4.36064Z" fill="#86EBF9"/>
<path d="M14.2678 18.8229C11.9916 17.4992 10.6328 15.4317 10.6328 13.2867V8.93793C13.0666 8.22918 15.1241 6.47043 16.3016 5.28418C17.4703 6.46418 19.5166 8.21293 21.9366 8.92918V13.1717C21.9366 15.4517 20.6453 17.6454 18.3916 19.1879L16.7891 20.2867L14.2678 18.8229Z" fill="#40C2D6"/>
<path d="M15.4649 15.0956L13.5799 12.8268C13.5451 12.7851 13.523 12.7344 13.5161 12.6806C13.5092 12.6267 13.5178 12.5721 13.5409 12.523C13.564 12.4739 13.6007 12.4324 13.6465 12.4034C13.6924 12.3744 13.7456 12.3591 13.7999 12.3593C13.9011 12.3593 13.7999 12.3193 15.5811 13.2793L18.5724 10.4506C18.6253 10.4002 18.6956 10.3724 18.7686 10.3731C18.8213 10.3729 18.8729 10.3874 18.9178 10.4148C18.9627 10.4422 18.9991 10.4815 19.0231 10.5284C19.047 10.5752 19.0575 10.6278 19.0534 10.6802C19.0494 10.7327 19.0308 10.783 18.9999 10.8256L15.9161 15.0756C15.8911 15.1113 15.8581 15.1408 15.8199 15.1618C15.7816 15.1828 15.739 15.1947 15.6954 15.1966C15.6518 15.1985 15.6084 15.1904 15.5684 15.1729C15.5284 15.1554 15.493 15.1289 15.4649 15.0956Z" fill="#86EBF9"/>
<path d="M37.4109 41.0208C37.4109 41.0208 40.9471 42.7495 40.9721 43.1245C40.9971 43.4995 39.0796 43.8445 37.2484 43.0345C35.4171 42.2245 36.5096 40.9995 37.4109 41.0208Z" fill="#EBA284"/>
<path d="M37.92 42.3739L26.625 53.6651L16.465 43.5051C15.1752 42.2185 14.134 40.7048 13.3937 39.0401C10.1687 31.7801 19.47 25.4376 25.1662 30.9739L27.3 33.0464C27.9025 32.513 28.5054 31.9797 29.1087 31.4464C35.2337 26.0264 44.1087 33.8501 39.4338 40.5626C38.9828 41.2093 38.4763 41.8153 37.92 42.3739Z" fill="#E73F46"/>
<path d="M28.0249 34.3105H25.4512C25.1578 34.3105 24.9199 34.5484 24.9199 34.8418V45.0955C24.9199 45.3889 25.1578 45.6268 25.4512 45.6268H28.0249C28.3183 45.6268 28.5562 45.3889 28.5562 45.0955V34.8418C28.5562 34.5484 28.3183 34.3105 28.0249 34.3105Z" fill="#EDEDED"/>
<path d="M32.3965 41.2554V38.6816C32.3965 38.3882 32.1586 38.1504 31.8652 38.1504H21.6115C21.3181 38.1504 21.0802 38.3882 21.0802 38.6816V41.2554C21.0802 41.5488 21.3181 41.7866 21.6115 41.7866H31.8652C32.1586 41.7866 32.3965 41.5488 32.3965 41.2554Z" fill="#EDEDED"/>
<path d="M15.3875 30.5922C15.6 29.7797 15.9562 29.5759 16.04 29.5334C16.3887 29.3534 16.8062 29.6522 17.6287 30.2584C18.5987 30.9722 18.7537 31.3409 18.6475 31.6609C18.6269 31.7281 18.5919 31.7899 18.545 31.8422C18.155 32.2684 17.045 31.9259 17.045 31.9259C17.045 31.9259 17.9975 32.5222 17.5175 33.0822C17.0375 33.6422 15.9837 33.0572 15.9837 33.0572C15.9837 33.0572 16.5987 33.6272 16.2225 34.0859C15.8462 34.5447 14.8 34.0172 14.8 34.0172C14.8 34.0172 15.3487 34.7609 14.8225 35.1422C14.2962 35.5234 12.135 34.3746 12.0837 33.7634C12.0325 33.1521 13.1762 32.9196 13.1762 32.9196C13.1762 32.9196 13.08 31.9322 14.1687 31.8347C14.1687 31.8347 14.02 30.9159 15.3875 30.5922Z" fill="#F5B493"/>
<path d="M17.1804 32.026C17.1479 32.026 17.2616 32.1035 15.3504 30.6423C15.3373 30.6322 15.3288 30.6173 15.3267 30.6009C15.3246 30.5845 15.3291 30.5679 15.3391 30.5548C15.3493 30.5418 15.364 30.5332 15.3804 30.5309C15.3967 30.5286 15.4133 30.5327 15.4266 30.5423L17.2191 31.9173C17.2283 31.9256 17.2348 31.9364 17.2378 31.9484C17.2408 31.9604 17.2402 31.973 17.2361 31.9846C17.2319 31.9962 17.2244 32.0064 17.2145 32.0138C17.2046 32.0211 17.1927 32.0254 17.1804 32.026Z" fill="#2D1929"/>
<path d="M15.9782 33.1242C15.9507 33.1242 16.077 33.203 14.1332 31.8905C14.1195 31.8813 14.11 31.8671 14.1067 31.8509C14.1034 31.8348 14.1067 31.818 14.1157 31.8042C14.1251 31.7904 14.1395 31.7809 14.1559 31.7776C14.1723 31.7743 14.1892 31.7776 14.2032 31.7867L16.0145 32.9992C16.031 33.004 16.045 33.0152 16.0534 33.0303C16.0617 33.0455 16.0637 33.0633 16.0588 33.0798C16.054 33.0964 16.0428 33.1104 16.0277 33.1187C16.0126 33.127 15.9948 33.129 15.9782 33.1242Z" fill="#2D1929"/>
<path d="M14.7949 34.0799C14.7649 34.0799 14.8699 34.1449 13.1411 32.9724C13.1273 32.963 13.1178 32.9486 13.1145 32.9322C13.1112 32.9159 13.1145 32.8989 13.1236 32.8849C13.1283 32.878 13.1342 32.8722 13.1412 32.8676C13.1481 32.8631 13.1558 32.86 13.164 32.8585C13.1721 32.857 13.1805 32.8571 13.1886 32.8588C13.1967 32.8606 13.2043 32.8639 13.2111 32.8686L14.8361 33.9661C14.8475 33.974 14.856 33.9854 14.8603 33.9986C14.8645 34.0117 14.8642 34.026 14.8595 34.039C14.8548 34.052 14.8459 34.0631 14.8342 34.0705C14.8225 34.0779 14.8087 34.0812 14.7949 34.0799Z" fill="#2D1929"/>
<path d="M37.8496 52.0098C39.9287 55.4869 42.8497 58.3848 46.3434 60.436H38.0234C37.9409 57.6377 37.8829 54.8289 37.8496 52.0098Z" fill="#D7981A"/>
<path d="M39.3224 43.8743L47.6974 50.9181C47.6974 50.9181 51.4836 53.8031 51.7636 56.1456C51.4399 53.4693 49.8386 51.2706 47.4699 50.0068C47.2666 46.4668 47.0624 42.9252 46.8574 39.3818L46.5411 48.9493L39.3224 43.8743Z" fill="#D7981A"/>
<path d="M38.96 9.47606C38.96 9.47606 36.7175 11.2986 36.2962 13.5886C36.2962 13.5886 32.2312 12.2236 29.3812 13.1398C29.1545 12.7505 28.9963 12.3252 28.9137 11.8823C28.485 9.52106 30.3312 6.63231 32.67 5.69106C36.0637 4.31606 40.9312 6.85856 40.9312 6.85856C40.9312 6.85856 48.025 7.51356 48.5862 13.5886C49.1475 19.6636 47.5587 26.5698 50.6425 31.2498C53.7262 35.9298 50.7387 41.2723 50.7387 41.2723C47.4662 35.1611 44.9612 33.6473 43.2125 33.5098C42.7487 33.4723 41.5875 33.4736 40.7587 32.6686C39.8662 31.8036 39.8575 30.5023 39.8475 29.1286C39.84 27.9436 39.8237 25.5636 41.3325 23.8786C41.7075 23.4598 41.79 23.1348 42.74 22.4673C43.5737 21.8811 44.0512 21.1611 44.26 20.4236C44.6012 19.2223 44.3225 17.5673 43.3612 17.0148C42.7487 16.6623 42.3812 17.0086 41.5175 16.7223C40.36 16.3386 39.7487 15.2748 39.4025 14.6736C38.1487 12.4898 38.78 10.0886 38.96 9.47606Z" fill="#2D1929"/>
<path d="M42.0722 18.5056C42.6197 17.1544 43.9647 16.4219 45.0722 16.8719C46.1797 17.3219 46.6447 18.7819 46.0984 20.1344C45.5522 21.4869 44.2072 22.2181 43.0984 21.7681C41.9897 21.3181 41.5259 19.8581 42.0722 18.5056Z" fill="#E39C76"/>
<path d="M42.9772 20.3509C43.0022 20.3509 43.6109 20.2559 43.6672 19.6534C43.7072 19.2371 42.9572 19.1159 42.9497 19.1146C42.9403 19.1131 42.9314 19.1094 42.9236 19.104C42.9159 19.0985 42.9094 19.0914 42.9047 19.0831C42.9001 19.0749 42.8973 19.0657 42.8966 19.0562C42.896 19.0467 42.8974 19.0372 42.9009 19.0284C42.9272 18.9659 43.5584 17.4971 44.5622 17.5471C45.4372 17.5896 45.4059 18.5834 45.4059 18.5934C45.4059 18.61 45.3993 18.6259 45.3876 18.6376C45.3759 18.6493 45.36 18.6559 45.3434 18.6559C45.3269 18.6559 45.311 18.6493 45.2992 18.6376C45.2875 18.6259 45.2809 18.61 45.2809 18.5934C45.2809 18.5584 45.3047 17.7184 44.5559 17.6759C43.7509 17.6346 43.1809 18.7209 43.0484 19.0109C43.2647 19.0596 43.8334 19.2284 43.7922 19.6709C43.7259 20.3721 43.0009 20.4796 42.9934 20.4809C42.9762 20.4831 42.9588 20.4783 42.9451 20.4676C42.9314 20.4569 42.9225 20.4413 42.9203 20.424C42.9181 20.4068 42.9229 20.3894 42.9336 20.3757C42.9443 20.362 42.9599 20.3531 42.9772 20.3509Z" fill="#2D1929"/>
<path d="M32.4014 23.6698L36.9889 23.2773C35.8639 25.0661 34.1589 25.6786 33.2389 25.1586C33.1364 25.0973 32.5801 24.7598 32.4014 23.6698Z" fill="#EDEDED"/>
<path d="M41.8422 15.8091C41.8422 15.8091 40.4272 20.2704 41.236 22.4341C41.236 22.4341 42.6035 17.1666 44.0885 16.7579C45.5735 16.3491 42.7397 14.8429 41.8422 15.8091Z" fill="#2D1929"/>
<path d="M34.9199 47.7715L35.9587 49.3965C35.9587 49.3965 40.2337 47.8027 40.4449 44.8215L38.6137 43.1465L34.9199 47.7715Z" fill="#EBA284"/>
<path d="M38.1249 44.6859C38.9686 44.3934 39.1561 43.9984 39.1949 43.9059C39.3561 43.5209 39.0036 43.1022 38.2924 42.2809C37.4536 41.3122 37.0486 41.1722 36.7174 41.3172C36.6485 41.3457 36.5863 41.3883 36.5349 41.4422C36.1149 41.8922 36.5724 43.0459 36.5724 43.0459C36.5724 43.0459 35.8586 42.0859 35.3049 42.6409C34.7511 43.1959 35.4599 44.2659 35.4599 44.2659C35.4599 44.2659 34.8036 43.6622 34.3474 44.0984C33.8911 44.5347 34.5399 45.5984 34.5399 45.5984C34.5399 45.5984 33.7061 45.0784 33.3424 45.6684C32.9786 46.2584 34.3849 48.4509 35.0361 48.4547C35.6874 48.4584 35.8399 47.2247 35.8399 47.2247C35.8399 47.2247 36.8961 47.2434 36.9099 46.0809C36.9074 46.0847 37.8936 46.1647 38.1249 44.6859Z" fill="#F5B493"/>
<path d="M38.1249 44.7496C38.0812 44.7496 38.1974 44.8621 36.4737 42.9421C36.4676 42.9361 36.4628 42.929 36.4596 42.9211C36.4564 42.9132 36.4548 42.9047 36.455 42.8962C36.4551 42.8877 36.457 42.8793 36.4606 42.8715C36.4641 42.8638 36.4692 42.8568 36.4755 42.8511C36.4818 42.8454 36.4892 42.841 36.4973 42.8383C36.5054 42.8356 36.5139 42.8345 36.5224 42.8352C36.5309 42.8358 36.5392 42.8382 36.5467 42.8422C36.5542 42.8462 36.5609 42.8517 36.5662 42.8583L38.1712 44.6458C38.1791 44.6548 38.1842 44.6659 38.186 44.6777C38.1878 44.6895 38.1862 44.7016 38.1813 44.7125C38.1765 44.7235 38.1685 44.7327 38.1586 44.7393C38.1486 44.7459 38.1369 44.7494 38.1249 44.7496Z" fill="#2D1929"/>
<path d="M36.907 46.1468C36.8595 46.1468 36.9632 46.2543 35.407 44.3031C35.3968 44.2901 35.3921 44.2737 35.394 44.2573C35.3958 44.2409 35.4041 44.2259 35.417 44.2156C35.4299 44.2054 35.4464 44.2007 35.4628 44.2026C35.4792 44.2044 35.4942 44.2127 35.5045 44.2256L36.9545 46.0456C36.9617 46.0547 36.9662 46.0656 36.9676 46.0772C36.9689 46.0887 36.967 46.1004 36.962 46.1109C36.9571 46.1214 36.9494 46.1303 36.9396 46.1367C36.9299 46.143 36.9186 46.1465 36.907 46.1468Z" fill="#2D1929"/>
<path d="M35.8374 47.2906C35.7936 47.2906 35.8749 47.3743 34.4886 45.6406C34.4827 45.6343 34.4781 45.6268 34.4752 45.6187C34.4723 45.6105 34.4711 45.6018 34.4717 45.5932C34.4723 45.5846 34.4747 45.5762 34.4788 45.5685C34.4828 45.5608 34.4884 45.5541 34.4952 45.5487C34.5019 45.5433 34.5098 45.5394 34.5181 45.5372C34.5265 45.535 34.5352 45.5346 34.5438 45.5359C34.5523 45.5373 34.5605 45.5404 34.5678 45.545C34.5751 45.5497 34.5813 45.5559 34.5861 45.5631L35.8861 47.1881C35.8937 47.1972 35.8986 47.2084 35.9001 47.2203C35.9016 47.2321 35.8997 47.2441 35.8945 47.2549C35.8894 47.2657 35.8813 47.2748 35.8712 47.2811C35.861 47.2874 35.8493 47.2907 35.8374 47.2906Z" fill="#2D1929"/>
</svg>
