<svg width="20" height="20" viewBox="0 0 20 20" fill="none" xmlns="http://www.w3.org/2000/svg">
<g clip-path="url(#clip0_1_156000)">
<path d="M14.9995 7.5535C14.9996 7.2183 14.9334 6.88639 14.8047 6.57689C14.676 6.26739 14.4873 5.98642 14.2495 5.75016C13.7629 5.28587 13.1162 5.02683 12.4437 5.02683C11.7711 5.02683 11.1244 5.28587 10.6378 5.75016L0.749499 15.641C0.298181 16.1249 0.0523667 16.7652 0.0638623 17.4268C0.075358 18.0884 0.343266 18.7198 0.811123 19.1877C1.27898 19.6557 1.91024 19.9237 2.57186 19.9354C3.23349 19.947 3.87379 19.7014 4.35783 19.2502L14.2495 9.35933C14.4877 9.12283 14.6766 8.84147 14.8053 8.5315C14.934 8.22154 15 7.88913 14.9995 7.5535ZM3.1795 18.0735C3.01104 18.2341 2.78723 18.3237 2.5545 18.3237C2.32176 18.3237 2.09796 18.2341 1.9295 18.0735C1.76401 17.9076 1.67108 17.6828 1.67108 17.4485C1.67108 17.2142 1.76401 16.9894 1.9295 16.8235L8.40366 10.3485L9.65783 11.6027L3.1795 18.0735ZM13.0728 8.18016L10.8328 10.421L9.58283 9.16683L11.8237 6.92683C11.9035 6.83558 12.0013 6.7617 12.1109 6.70977C12.2205 6.65784 12.3396 6.62897 12.4608 6.62495C12.582 6.62092 12.7028 6.64183 12.8156 6.68638C12.9284 6.73092 13.0308 6.79816 13.1166 6.88391C13.2023 6.96967 13.2696 7.07212 13.3141 7.18492C13.3587 7.29772 13.3796 7.41847 13.3755 7.53968C13.3715 7.66089 13.3427 7.77998 13.2907 7.88958C13.2388 7.99918 13.1649 8.09695 13.0737 8.17683L13.0728 8.18016ZM4.052 2.37933L5.34367 2.011L5.712 0.719329C5.77134 0.512066 5.89655 0.32976 6.0687 0.199979C6.24085 0.0701982 6.45058 0 6.66616 0C6.88175 0 7.09148 0.0701982 7.26363 0.199979C7.43578 0.32976 7.56099 0.512066 7.62033 0.719329L7.98867 2.011L9.28033 2.37933C9.48759 2.43867 9.6699 2.56388 9.79968 2.73603C9.92946 2.90818 9.99966 3.11791 9.99966 3.3335C9.99966 3.54909 9.92946 3.75881 9.79968 3.93096C9.6699 4.10311 9.48759 4.22832 9.28033 4.28766L7.98867 4.656L7.62033 5.94766C7.56099 6.15493 7.43578 6.33723 7.26363 6.46701C7.09148 6.59679 6.88175 6.66699 6.66616 6.66699C6.45058 6.66699 6.24085 6.59679 6.0687 6.46701C5.89655 6.33723 5.77134 6.15493 5.712 5.94766L5.34367 4.656L4.052 4.28766C3.84474 4.22832 3.66243 4.10311 3.53265 3.93096C3.40287 3.75881 3.33267 3.54909 3.33267 3.3335C3.33267 3.11791 3.40287 2.90818 3.53265 2.73603C3.66243 2.56388 3.84474 2.43867 4.052 2.37933ZM19.2803 14.2877L17.9887 14.656L17.6203 15.9477C17.561 16.1549 17.4358 16.3372 17.2636 16.467C17.0915 16.5968 16.8818 16.667 16.6662 16.667C16.4506 16.667 16.2408 16.5968 16.0687 16.467C15.8965 16.3372 15.7713 16.1549 15.712 15.9477L15.3437 14.656L14.052 14.2877C13.8447 14.2283 13.6624 14.1031 13.5326 13.931C13.4029 13.7588 13.3327 13.5491 13.3327 13.3335C13.3327 13.1179 13.4029 12.9082 13.5326 12.736C13.6624 12.5639 13.8447 12.4387 14.052 12.3793L15.3437 12.011L15.712 10.7193C15.7713 10.5121 15.8965 10.3298 16.0687 10.2C16.2408 10.0702 16.4506 10 16.6662 10C16.8818 10 17.0915 10.0702 17.2636 10.2C17.4358 10.3298 17.561 10.5121 17.6203 10.7193L17.9887 12.011L19.2803 12.3793C19.4876 12.4387 19.6699 12.5639 19.7997 12.736C19.9295 12.9082 19.9997 13.1179 19.9997 13.3335C19.9997 13.5491 19.9295 13.7588 19.7997 13.931C19.6699 14.1031 19.4876 14.2283 19.2803 14.2877ZM14.7953 2.0835L15.9253 1.761L16.2495 0.629329C16.3023 0.449177 16.412 0.290972 16.5622 0.178423C16.7124 0.0658742 16.8951 0.00504174 17.0828 0.00504174C17.2706 0.00504174 17.4532 0.0658742 17.6035 0.178423C17.7537 0.290972 17.8634 0.449177 17.9162 0.629329L18.2387 1.75933L19.3687 2.08183C19.5488 2.13459 19.707 2.24431 19.8196 2.39454C19.9321 2.54478 19.993 2.72744 19.993 2.91516C19.993 3.10288 19.9321 3.28555 19.8196 3.43578C19.707 3.58602 19.5488 3.69574 19.3687 3.7485L18.2387 4.071L17.9162 5.2035C17.8634 5.38365 17.7537 5.54185 17.6035 5.6544C17.4532 5.76695 17.2706 5.82778 17.0828 5.82778C16.8951 5.82778 16.7124 5.76695 16.5622 5.6544C16.412 5.54185 16.3023 5.38365 16.2495 5.2035L15.927 4.07433L14.7953 3.75016C14.6152 3.6974 14.457 3.58769 14.3444 3.43745C14.2319 3.28721 14.171 3.10455 14.171 2.91683C14.171 2.72911 14.2319 2.54645 14.3444 2.39621C14.457 2.24597 14.6152 2.13625 14.7953 2.0835Z" fill="#0F2043"/>
</g>
<defs>
<clipPath id="clip0_1_156000">
<rect width="20" height="20" fill="white"/>
</clipPath>
</defs>
</svg>
