<svg width="64" height="64" viewBox="0 0 64 64" fill="none" xmlns="http://www.w3.org/2000/svg">
<path d="M27.3407 42.2559H22.8564V61.641H27.3407V42.2559Z" fill="#FF6086"/>
<path d="M41.0779 42.1006H36.5938V61.4857H41.0779V42.1006Z" fill="#FF6086"/>
<path d="M30.6586 61.4852C30.6586 62.8741 29.701 63.9997 28.5199 63.9997H21.6759C20.4947 63.9997 19.5371 62.8741 19.5371 61.4852C19.5371 60.0963 20.4947 58.9707 21.6759 58.9707H28.5199C29.701 58.9707 30.6586 60.0963 30.6586 61.4852Z" fill="#FFD548"/>
<path d="M13.4453 10.297C13.4453 12.0165 14.8392 13.4103 16.5587 13.4103C18.2782 13.4103 19.6721 12.0165 19.6721 10.297C19.6721 8.57747 18.2782 7.18359 16.5587 7.18359C14.8392 7.18359 13.4453 8.57747 13.4453 10.297Z" fill="#004587"/>
<path d="M25.5289 55.8517C27.2316 55.6132 28.4187 54.0395 28.1802 52.3367C27.9417 50.6339 26.368 49.4469 24.6652 49.6854C22.9624 49.9239 21.7754 51.4976 22.0139 53.2004C22.2523 54.9032 23.8261 56.0902 25.5289 55.8517Z" fill="#004587"/>
<path d="M35.7227 52.7696C35.7227 54.4891 37.1165 55.883 38.8359 55.883C40.5554 55.883 41.9493 54.4891 41.9493 52.7696C41.9493 51.0502 40.5554 49.6562 38.8359 49.6562C37.1165 49.6562 35.7227 51.0502 35.7227 52.7696Z" fill="#004587"/>
<path d="M44.0479 10.297C44.0479 12.0165 45.4417 13.4103 47.1612 13.4103C48.8807 13.4103 50.2746 12.0165 50.2746 10.297C50.2746 8.57747 48.8807 7.18359 47.1612 7.18359C45.4417 7.18359 44.0479 8.57747 44.0479 10.297Z" fill="#004587"/>
<path fill-rule="evenodd" clip-rule="evenodd" d="M8.83405 29.4596C6.89955 29.3519 5.24355 30.8316 5.13542 32.7666C5.02755 34.7011 6.50817 36.3565 8.44217 36.4645C9.93292 36.5476 11.2549 35.6863 11.834 34.4021L31.616 35.5078L31.7568 32.9925L11.9747 31.8876C11.5423 30.5465 10.3245 29.543 8.83405 29.4596Z" fill="#FF6086"/>
<path fill-rule="evenodd" clip-rule="evenodd" d="M6.99189 32.8703C6.94089 33.7795 7.63764 34.5583 8.54676 34.6092C9.45601 34.6597 10.2351 33.9637 10.2856 33.0543C10.3368 32.1445 9.64026 31.3661 8.73089 31.3151C7.82176 31.2646 7.04251 31.9607 6.99189 32.8703Z" fill="#004587"/>
<path fill-rule="evenodd" clip-rule="evenodd" d="M7.88177 39.5583C5.94727 39.4505 4.2914 40.9303 4.18327 42.8653C4.0754 44.7998 5.5559 46.4551 7.49002 46.5631C8.98065 46.6463 10.3028 45.7849 10.8818 44.5008L30.6638 45.6064L30.8045 43.0911L11.0223 41.986C10.59 40.6451 9.3724 39.6416 7.88177 39.5583Z" fill="#FF854A"/>
<path fill-rule="evenodd" clip-rule="evenodd" d="M6.03876 42.969C5.98776 43.8781 6.68451 44.657 7.59364 44.7078C8.50289 44.7583 9.28189 44.0622 9.33251 43.153C9.38364 42.2431 8.68714 41.4647 7.77776 41.4137C6.86864 41.3632 6.08939 42.0593 6.03876 42.969Z" fill="#004587"/>
<path fill-rule="evenodd" clip-rule="evenodd" d="M55.1651 29.4596C57.0996 29.3519 58.7554 30.8316 58.8636 32.7666C58.9714 34.7011 57.4909 36.3565 55.5568 36.4645C54.0662 36.5476 52.7442 35.6863 52.1649 34.4021L32.3829 35.5078L32.2422 32.9925L52.0244 31.8874C52.4568 30.5465 53.6746 29.543 55.1651 29.4596Z" fill="#FF6086"/>
<path fill-rule="evenodd" clip-rule="evenodd" d="M57.0083 32.8703C57.0593 33.7795 56.3626 34.5583 55.4534 34.6092C54.5442 34.6597 53.7652 33.9637 53.7146 33.0543C53.6634 32.1445 54.3599 31.3661 55.2693 31.3151C56.1784 31.2646 56.9577 31.9607 57.0083 32.8703Z" fill="#004587"/>
<path fill-rule="evenodd" clip-rule="evenodd" d="M56.1181 39.5583C58.0526 39.4505 59.7084 40.9303 59.8166 42.8653C59.9244 44.7998 58.4439 46.4551 56.5098 46.5631C55.0192 46.6463 53.6971 45.7849 53.1181 44.5008L33.3361 45.6064L33.1953 43.0911L52.9776 41.986C53.4098 40.6451 54.6276 39.6416 56.1181 39.5583Z" fill="#FF854A"/>
<path fill-rule="evenodd" clip-rule="evenodd" d="M57.9606 42.969C58.0116 43.8781 57.3148 44.657 56.4057 44.7078C55.4965 44.7583 54.7173 44.0622 54.6668 43.153C54.6157 42.2431 55.3122 41.4647 56.2216 41.4137C57.1307 41.3632 57.91 42.0593 57.9606 42.969Z" fill="#004587"/>
<path d="M36.2644 15.6973H27.1191V29.8009H36.2644V15.6973Z" fill="#004587"/>
<path d="M44.7215 14.5356C44.7215 18.013 41.9025 20.832 38.425 20.832H24.9576C21.4801 20.832 18.6611 18.013 18.6611 14.5356V6.2965C18.6613 2.81913 21.4803 0 24.9576 0H38.425C41.9025 0 44.7215 2.81913 44.7215 6.2965V14.5356Z" fill="#FF854A"/>
<path d="M47.3516 45.1616C47.3516 48.982 43.9637 52.0788 39.7845 52.0788H23.5994C19.4201 52.0788 16.0322 48.9818 16.0322 45.1616V30.3256C16.0322 26.5052 19.4201 23.4082 23.5994 23.4082H39.7845C43.9637 23.4082 47.3516 26.5052 47.3516 30.3256V45.1616Z" fill="#00AFFF"/>
<path d="M44.3969 61.4852C44.3969 62.8741 43.4393 63.9997 42.2581 63.9997H35.4141C34.233 63.9997 33.2754 62.8741 33.2754 61.4852C33.2754 60.0963 34.233 58.9707 35.4141 58.9707H42.2581C43.4391 58.9707 44.3969 60.0963 44.3969 61.4852Z" fill="#FFD548"/>
<path d="M39.9559 44.9322C39.9559 46.0252 39.0697 46.9112 37.9766 46.9112H25.4071C24.3139 46.9112 23.4277 46.0251 23.4277 44.9322V30.2841C23.4277 29.1911 24.3139 28.3047 25.4071 28.3047H37.9766C39.0697 28.3047 39.9559 29.1911 39.9559 30.2841V44.9322Z" fill="#FFA4AD"/>
<path d="M36.0964 34.1263C36.0964 36.1677 34.2812 37.8229 32.0419 37.8229C29.8026 37.8229 27.9873 36.1677 27.9873 34.1263C27.9873 32.0848 29.8026 30.4297 32.0419 30.4297C34.2812 30.4297 36.0964 32.0848 36.0964 34.1263Z" fill="#FF6086"/>
<path d="M34.069 34.1264C34.069 35.1472 33.1614 35.9746 32.0417 35.9746C30.922 35.9746 30.0145 35.1472 30.0145 34.1264C30.0145 33.1057 30.922 32.2783 32.0417 32.2783C33.1614 32.2783 34.069 33.1057 34.069 34.1264Z" fill="#004587"/>
<path d="M37.7953 40.2123C37.7953 40.4198 37.6852 40.5874 37.5492 40.5874H26.1719C26.0358 40.5874 25.9258 40.4198 25.9258 40.2123C25.9258 40.0055 26.0359 39.8379 26.1719 39.8379H37.5492C37.6852 39.8378 37.7953 40.0055 37.7953 40.2123Z" fill="#004587"/>
<path d="M37.7953 42.2552C37.7953 42.4629 37.6852 42.6305 37.5492 42.6305H26.1719C26.0358 42.6305 25.9258 42.4629 25.9258 42.2552C25.9258 42.0485 26.0359 41.8809 26.1719 41.8809H37.5492C37.6852 41.8809 37.7953 42.0485 37.7953 42.2552Z" fill="#004587"/>
<path d="M37.7953 44.2992C37.7953 44.5067 37.6852 44.6744 37.5492 44.6744H26.1719C26.0358 44.6744 25.9258 44.5068 25.9258 44.2992C25.9258 44.0924 26.0359 43.9248 26.1719 43.9248H37.5492C37.6852 43.9248 37.7953 44.0924 37.7953 44.2992Z" fill="#004587"/>
<path d="M31.1218 11.0958C30.837 13.9692 28.2784 16.0682 25.4058 15.7839C22.5316 15.5006 20.4333 12.9419 20.7171 10.0683C21.001 7.19506 23.5601 5.09644 26.4328 5.38019C29.3063 5.66381 31.405 8.22256 31.1218 11.0958Z" fill="white"/>
<path d="M30.1795 11.0031C29.9687 13.1272 28.0769 14.6798 25.9521 14.4698C23.8276 14.2598 22.2764 12.3678 22.4857 10.2437C22.696 8.11872 24.588 6.56684 26.7121 6.77684C28.837 6.98659 30.3886 8.87922 30.1795 11.0031Z" fill="#004587"/>
<path d="M29.5747 9.28837C29.1847 8.64437 28.6921 8.10287 27.9996 7.78362C27.6887 7.63999 27.5004 8.13624 27.8087 8.27899C28.3649 8.53599 28.7798 8.99287 29.0927 9.51024C29.2672 9.79912 29.7517 9.58174 29.5747 9.28837Z" fill="white"/>
<path d="M27.1862 7.38338C27.1049 7.35813 27.0256 7.33151 26.9451 7.30638C26.8066 7.26363 26.6563 7.31663 26.6011 7.45851C26.5527 7.58651 26.6161 7.75851 26.7534 7.80138C26.8348 7.82638 26.9141 7.85426 26.9947 7.87876C27.1339 7.92126 27.2837 7.86788 27.3388 7.72638C27.3876 7.59788 27.3248 7.42588 27.1862 7.38338Z" fill="white"/>
<path d="M29.871 10.2431C29.8229 10.1068 29.6421 10.0562 29.5194 10.1125C29.3795 10.1772 29.3404 10.3276 29.3892 10.4634C29.3887 10.4608 29.3889 10.4588 29.3896 10.455C29.3831 10.5988 29.4771 10.73 29.6271 10.7445C29.765 10.7583 29.9109 10.6513 29.9177 10.5064C29.9211 10.4108 29.9035 10.3328 29.871 10.2431Z" fill="white"/>
<path d="M29.3866 10.4632C29.3871 10.4676 29.3875 10.4716 29.3878 10.4757C29.3885 10.4723 29.3881 10.4683 29.3882 10.4639C29.3637 10.3928 29.383 10.4453 29.3866 10.4632Z" fill="white"/>
<path d="M29.3881 10.4746C29.3866 10.5137 29.3903 10.495 29.3881 10.4746V10.4746Z" fill="white"/>
<path d="M29.3892 10.4641C29.3892 10.4641 29.3885 10.4628 29.3893 10.4629C29.3887 10.4629 29.3887 10.4629 29.3887 10.4629C29.3893 10.4639 29.3893 10.4639 29.3892 10.4641Z" fill="white"/>
<path d="M42.4922 11.1537C42.2082 14.0264 39.6493 16.1259 36.7766 15.8423C33.9034 15.558 31.8044 12.999 32.0882 10.1262C32.3724 7.25316 34.9309 5.15416 37.8043 5.43778C40.6772 5.72178 42.7761 8.28041 42.4922 11.1537Z" fill="white"/>
<path d="M40.7926 11.0832C40.5826 13.2077 38.6908 14.7593 36.5661 14.5497C34.4416 14.3404 32.8895 12.4479 33.099 10.323C33.3093 8.19917 35.2019 6.64692 37.326 6.85692C39.4505 7.06617 41.0024 8.95892 40.7926 11.0832Z" fill="#004587"/>
<path d="M40.1892 9.36893C39.7996 8.72543 39.3062 8.18393 38.6144 7.86468C38.3025 7.72093 38.1145 8.21793 38.4236 8.36006C38.98 8.61668 39.3932 9.07343 39.7062 9.59056C39.8812 9.88018 40.3659 9.66293 40.1892 9.36893Z" fill="white"/>
<path d="M37.8001 7.46452C37.719 7.43965 37.6397 7.41252 37.5585 7.38727C37.4205 7.3449 37.2697 7.39765 37.2157 7.53952C37.1666 7.66777 37.2299 7.84002 37.3677 7.88315C37.4484 7.90765 37.5287 7.93477 37.6086 7.9594C37.7474 8.00227 37.8976 7.94915 37.952 7.80765C38.0012 7.67915 37.9384 7.5069 37.8001 7.46452Z" fill="white"/>
<path d="M40.4862 10.3228C40.4376 10.1874 40.2572 10.1361 40.1347 10.1926C39.9949 10.2569 39.9562 10.4076 40.0037 10.5437C40.0043 10.5403 40.0044 10.5383 40.0044 10.5342C39.9984 10.6789 40.0921 10.8096 40.2421 10.8246C40.3799 10.8382 40.5266 10.7313 40.5324 10.5862C40.5363 10.4912 40.5181 10.4128 40.4862 10.3228Z" fill="white"/>
<path d="M40.0016 10.5432C40.0031 10.5472 40.0032 10.5509 40.0034 10.5559C40.0029 10.5526 40.0028 10.5481 40.0041 10.5443C39.9788 10.4728 39.9979 10.5253 40.0016 10.5432Z" fill="white"/>
<path d="M40.0034 10.5557C40.0019 10.5949 40.0048 10.5757 40.0034 10.5557V10.5557Z" fill="white"/>
<path d="M40.0044 10.5449C40.0043 10.5444 40.0043 10.5444 40.0039 10.5439H40.0045C40.0043 10.5444 40.0043 10.5444 40.0044 10.5449Z" fill="white"/>
<path fill-rule="evenodd" clip-rule="evenodd" d="M33.2706 15.5342C33.1734 14.8699 32.1149 14.8778 32.2142 15.5509C32.2924 16.0852 32.2559 16.6674 31.5976 16.6706C30.9703 16.6733 30.9079 16.0962 30.8938 15.5984C30.8743 14.9177 29.8178 14.9339 29.8372 15.6151C29.8696 16.7836 30.3718 17.6411 31.6144 17.7274C32.8507 17.8133 33.4269 16.5977 33.2706 15.5342Z" fill="#004587"/>
<path d="M17.6934 35.3562L17.7563 42.3488C17.7672 43.5565 19.6405 43.5399 19.6293 42.3319L19.5664 35.3385C19.5553 34.1308 17.6819 34.1482 17.6934 35.3562Z" fill="white"/>
<path d="M17.668 32.6076C17.6788 33.8154 19.552 33.7985 19.5416 32.5909C19.5303 31.3829 17.657 31.4 17.668 32.6076Z" fill="white"/>
<path d="M17.7823 45.2825C17.7933 46.4903 19.6663 46.4732 19.6555 45.2658C19.6445 44.058 17.7713 44.0745 17.7823 45.2825Z" fill="white"/>
<path d="M31.5783 2.78306L37.3896 2.78331C38.3932 2.78331 38.3936 1.22644 37.3896 1.22669L31.5777 1.22656C30.5741 1.22656 30.5744 2.78344 31.5783 2.78306Z" fill="white"/>
<path d="M29.2947 2.78356C30.2984 2.78369 30.2985 1.22681 29.2949 1.22656C28.291 1.22681 28.2911 2.78369 29.2947 2.78356Z" fill="white"/>
<path d="M39.828 2.78331C40.8319 2.78319 40.8316 1.22656 39.8282 1.22656C38.8244 1.22656 38.8241 2.78331 39.828 2.78331Z" fill="white"/>
<path d="M21.944 27.6801C21.8058 27.5466 21.5282 25.6686 21.2755 25.6837C21.023 25.6989 20.8034 27.5612 20.6852 27.6836C20.4492 27.9296 18.7174 28.1042 18.7315 28.3426C18.7455 28.5804 20.4462 28.6934 20.6857 28.9259C20.8198 29.0554 21.1017 30.9382 21.3547 30.9236C21.6059 30.9089 21.8222 29.0519 21.945 28.9248C22.1729 28.6871 23.9179 28.5037 23.904 28.2641C23.89 28.0252 22.1748 27.9051 21.944 27.6801Z" fill="white"/>
<path d="M43.333 44.6776C43.2005 44.5493 42.935 42.7525 42.6937 42.7677C42.4523 42.7818 42.2416 44.5635 42.1283 44.6809C41.9022 44.9157 40.2466 45.0829 40.2598 45.3114C40.2731 45.5384 41.8997 45.6464 42.1297 45.8688C42.2577 45.9932 42.5272 47.7943 42.769 47.7797C43.0097 47.766 43.2166 45.9894 43.3338 45.8678C43.552 45.6407 45.2215 45.4649 45.2081 45.2359C45.1945 45.0073 43.5535 44.8924 43.333 44.6776Z" fill="#004587"/>
<path fill-rule="evenodd" clip-rule="evenodd" d="M26.6784 60.7217C25.6473 60.7217 25.6455 62.3242 26.6784 62.3242C27.7095 62.3243 27.7113 60.7217 26.6784 60.7217Z" fill="white"/>
<path fill-rule="evenodd" clip-rule="evenodd" d="M22.0963 47.9561C21.0651 47.9561 21.0634 49.5586 22.0963 49.5586C23.1274 49.5586 23.1291 47.9561 22.0963 47.9561Z" fill="white"/>
<path fill-rule="evenodd" clip-rule="evenodd" d="M21.6597 39.8818C20.6286 39.8818 20.6269 41.4843 21.6597 41.4843C22.691 41.4843 22.6926 39.8818 21.6597 39.8818Z" fill="white"/>
<path fill-rule="evenodd" clip-rule="evenodd" d="M25.3687 31.2627C24.3376 31.2627 24.3359 32.8652 25.3687 32.8652C26.3999 32.8652 26.4016 31.2627 25.3687 31.2627Z" fill="white"/>
<path fill-rule="evenodd" clip-rule="evenodd" d="M37.3707 36.2812C36.3396 36.2812 36.3378 37.8837 37.3707 37.8837C38.4018 37.8837 38.4036 36.2812 37.3707 36.2812Z" fill="white"/>
<path fill-rule="evenodd" clip-rule="evenodd" d="M40.8629 48.8291C39.8317 48.8291 39.83 50.4316 40.8629 50.4316C41.894 50.4316 41.8956 48.8291 40.8629 48.8291Z" fill="white"/>
<path fill-rule="evenodd" clip-rule="evenodd" d="M28.8609 49.7021C27.8298 49.7021 27.828 51.3046 28.8609 51.3046C29.892 51.3046 29.8937 49.7021 28.8609 49.7021Z" fill="white"/>
<path fill-rule="evenodd" clip-rule="evenodd" d="M42.9351 40.1006C41.904 40.1006 41.9023 41.7031 42.9351 41.7031C43.9663 41.7031 43.968 40.1006 42.9351 40.1006Z" fill="white"/>
<path fill-rule="evenodd" clip-rule="evenodd" d="M43.5904 32.2441C42.5593 32.2441 42.5575 33.8466 43.5904 33.8466C44.6217 33.8466 44.6233 32.2441 43.5904 32.2441Z" fill="white"/>
<path fill-rule="evenodd" clip-rule="evenodd" d="M41.7349 26.1621C40.7038 26.1621 40.7021 27.7646 41.7349 27.7646C42.7661 27.7646 42.7677 26.1621 41.7349 26.1621Z" fill="white"/>
<path fill-rule="evenodd" clip-rule="evenodd" d="M31.5883 25.5889C30.5572 25.5889 30.5555 27.1914 31.5883 27.1914C32.6195 27.1914 32.6212 25.5889 31.5883 25.5889Z" fill="white"/>
<path fill-rule="evenodd" clip-rule="evenodd" d="M38.7076 16.915C37.6765 16.915 37.6747 18.5175 38.7076 18.5175C39.7387 18.5177 39.7403 16.915 38.7076 16.915Z" fill="white"/>
<path fill-rule="evenodd" clip-rule="evenodd" d="M27.1695 17.0781C26.1384 17.0781 26.1366 18.6806 27.1695 18.6806C28.2006 18.6806 28.2024 17.0781 27.1695 17.0781Z" fill="white"/>
<path fill-rule="evenodd" clip-rule="evenodd" d="M21.1959 15.0322C20.1648 15.0322 20.163 16.6347 21.1959 16.6347C22.227 16.6349 22.2287 15.0322 21.1959 15.0322Z" fill="white"/>
<path fill-rule="evenodd" clip-rule="evenodd" d="M22.6685 2.18555C21.6374 2.18555 21.6357 3.78805 22.6685 3.78805C23.6997 3.78805 23.7013 2.18555 22.6685 2.18555Z" fill="white"/>
<path fill-rule="evenodd" clip-rule="evenodd" d="M31.0972 4.06738C30.0661 4.06738 30.0644 5.66988 31.0972 5.66988C32.1284 5.66988 32.1301 4.06738 31.0972 4.06738Z" fill="white"/>
<path fill-rule="evenodd" clip-rule="evenodd" d="M42.5533 4.80371C41.5222 4.80371 41.5204 6.40621 42.5533 6.40621C43.5844 6.40621 43.5862 4.80371 42.5533 4.80371Z" fill="white"/>
<path fill-rule="evenodd" clip-rule="evenodd" d="M46.8092 9.5498C45.778 9.5498 45.7763 11.1523 46.8092 11.1523C47.8403 11.1523 47.842 9.5498 46.8092 9.5498Z" fill="white"/>
<path fill-rule="evenodd" clip-rule="evenodd" d="M16.2037 10.5322C15.1726 10.5322 15.1708 12.1347 16.2037 12.1347C17.2348 12.1347 17.2366 10.5322 16.2037 10.5322Z" fill="white"/>
<path fill-rule="evenodd" clip-rule="evenodd" d="M24.5504 53.6572C23.5192 53.6572 23.5175 55.2597 24.5504 55.2597C25.5816 55.2599 25.5832 53.6572 24.5504 53.6572Z" fill="white"/>
<path fill-rule="evenodd" clip-rule="evenodd" d="M35.5982 60.8584C34.5671 60.8584 34.5653 62.4609 35.5982 62.4609C36.6293 62.4609 36.6311 60.8584 35.5982 60.8584Z" fill="white"/>
<path fill-rule="evenodd" clip-rule="evenodd" d="M40.9166 60.8584C39.8855 60.8584 39.8837 62.4609 40.9166 62.4609C41.9477 62.4609 41.9495 60.8584 40.9166 60.8584Z" fill="white"/>
<path fill-rule="evenodd" clip-rule="evenodd" d="M39.3619 53.248C38.3308 53.248 38.329 54.8505 39.3619 54.8505C40.393 54.8505 40.3948 53.248 39.3619 53.248Z" fill="white"/>
<path fill-rule="evenodd" clip-rule="evenodd" d="M26.5963 37.4541C25.5651 37.4541 25.5634 39.0566 26.5963 39.0566C27.6274 39.0566 27.629 37.4541 26.5963 37.4541Z" fill="white"/>
</svg>
