<svg width="24" height="24" viewBox="0 0 24 24" fill="none" xmlns="http://www.w3.org/2000/svg">
<path d="M20.2476 2.78247C19.9434 2.29249 19.4168 2 18.8401 2H16.3327C15.0545 2 13.9087 2.71164 13.3437 3.85826L11.7929 7.00229C11.7754 7.00229 11.7579 6.99979 11.7404 6.99979C11.7288 6.99979 11.7179 7.00146 11.7063 7.00146L10.1555 3.85826C9.58968 2.71164 8.44473 2 7.16645 2H4.65905C4.08241 2 3.55577 2.29249 3.25078 2.78247C2.94663 3.27245 2.91746 3.87409 3.17245 4.39157L5.86567 9.85217C4.85155 11.1313 4.24074 12.7446 4.24074 14.5003C4.24074 18.6351 7.6056 22 11.7404 22C15.8753 22 19.2401 18.6351 19.2401 14.5003C19.2401 12.7512 18.6335 11.1446 17.626 9.86717L20.3267 4.3924C20.5826 3.87492 20.5526 3.27328 20.2484 2.7833L20.2476 2.78247ZM7.16562 3.6666C7.80476 3.6666 8.37723 4.02242 8.65972 4.59573L9.9555 7.22312C8.90221 7.48144 7.93559 7.95975 7.10895 8.61139L4.65822 3.6666H7.16562ZM11.7396 20.3326C8.52306 20.3326 5.9065 17.716 5.9065 14.4995C5.9065 11.4496 8.26057 8.94304 11.2471 8.69139C11.2479 8.69139 11.2488 8.69139 11.2504 8.69139C11.4121 8.67805 11.5754 8.66639 11.7404 8.66639C14.957 8.66639 17.5735 11.2829 17.5735 14.4995C17.5735 17.716 14.957 20.3326 11.7404 20.3326H11.7396ZM16.3811 8.62056C15.5561 7.96725 14.5911 7.4881 13.5395 7.22728L14.8378 4.59573C15.1203 4.02242 15.6928 3.6666 16.3319 3.6666L18.8318 3.6541L16.3811 8.62056ZM15.2036 14.0078C15.2036 14.3087 14.9945 14.562 14.7545 14.6953L13.5129 15.3853L14.0637 16.8877C14.1703 17.1785 14.0737 17.5052 13.8262 17.6918C13.5728 17.8827 13.2237 17.8802 12.9737 17.686L11.7388 16.7311L10.5038 17.686C10.253 17.8793 9.90384 17.8818 9.65135 17.6918C9.40386 17.5052 9.30719 17.1794 9.41386 16.8877L9.96467 15.3853L8.72305 14.6953C8.48306 14.562 8.2739 14.3087 8.2739 14.0078C8.2739 13.7528 8.49556 13.4712 8.85388 13.4712H10.6371L11.1096 11.6588C11.1846 11.3713 11.4421 11.1713 11.7388 11.1663C12.0346 11.1721 12.2929 11.3713 12.3679 11.6588L12.8404 13.4712H14.6236C14.982 13.4712 15.2036 13.752 15.2036 14.0078Z" fill="#0F2043"/>
</svg>
