<svg width="30" height="30" viewBox="0 0 30 30" fill="none" xmlns="http://www.w3.org/2000/svg">
<g clip-path="url(#clip0_136_284)">
<path d="M29.5 5H17.5C17.2239 5 17 5.22387 17 5.5V10C17.0002 10.2761 17.2243 10.4998 17.5004 10.4996C17.5539 10.4996 17.6072 10.4909 17.658 10.474L18.2865 10.2645C18.9689 10.0411 19.7031 10.4132 19.9264 11.0956C20.1497 11.778 19.7776 12.5122 19.0952 12.7355C18.8325 12.8215 18.5492 12.8215 18.2864 12.7355L17.6579 12.526C17.3959 12.4387 17.1128 12.5804 17.0256 12.8424C17.0086 12.8932 17 12.9464 16.9999 13V17H12.9999C12.7238 17.0002 12.5001 17.2243 12.5003 17.5004C12.5004 17.5539 12.509 17.6072 12.5259 17.658L12.7354 18.2865C12.9588 18.9689 12.5867 19.7031 11.9043 19.9264C11.2219 20.1497 10.4878 19.7776 10.2644 19.0952C10.1784 18.8325 10.1784 18.5492 10.2644 18.2864L10.4739 17.6579C10.5612 17.3959 10.4196 17.1128 10.1576 17.0256C10.1067 17.0086 10.0535 17 9.99994 16.9999H5.5C5.22387 16.9999 5 17.2238 5 17.4999V29.4999C5 29.7761 5.22387 29.9999 5.5 29.9999H29.5C29.7761 29.9999 30 29.7761 30 29.4999V5.5C30 5.22387 29.7761 5 29.5 5ZM17.0256 24.8424C17.0087 24.8932 17.0001 24.9464 17 25V29H6V18H9.3065C8.92444 19.2114 9.59681 20.5033 10.8083 20.8853C12.0197 21.2673 13.3115 20.5949 13.6935 19.3835C13.8355 18.9332 13.8355 18.4502 13.6935 17.9999H17V21.9999C17.0002 22.2761 17.2243 22.4998 17.5004 22.4996C17.5539 22.4995 17.6072 22.4909 17.658 22.4739L18.2865 22.2644C18.9689 22.0411 19.7031 22.4132 19.9264 23.0956C20.1497 23.7779 19.7776 24.5121 19.0952 24.7354C18.8325 24.8214 18.5492 24.8214 18.2864 24.7354L17.6579 24.5259C17.396 24.4388 17.1129 24.5804 17.0256 24.8424ZM29 29H18V25.6935C19.2114 26.0756 20.5033 25.4032 20.8853 24.1917C21.2673 22.9803 20.5949 21.6885 19.3835 21.3065C18.9332 21.1645 18.4502 21.1645 17.9999 21.3065V18H21.9999C22.2761 17.9998 22.4998 17.7757 22.4996 17.4996C22.4995 17.4461 22.4909 17.3928 22.4739 17.342L22.2644 16.7135C22.0411 16.0311 22.4132 15.2969 23.0956 15.0736C23.7779 14.8503 24.5121 15.2224 24.7354 15.9047C24.8214 16.1675 24.8214 16.4508 24.7354 16.7136L24.5259 17.3421C24.4387 17.6041 24.5803 17.8872 24.8423 17.9744C24.8931 17.9914 24.9464 18 24.9999 18.0001H28.9999V29H29ZM29 17H25.6935C26.0756 15.7886 25.4032 14.4967 24.1917 14.1147C22.9803 13.7327 21.6885 14.4051 21.3065 15.6165C21.1645 16.0667 21.1645 16.5498 21.3065 17.0001H18V13.6936C18.6944 13.9186 19.4547 13.7972 20.0445 13.3671C21.0786 12.6294 21.319 11.1931 20.5814 10.159C19.9989 9.34238 18.9543 8.99744 18 9.30656V6H29V17Z" fill="#317B22"/>
<path d="M14.3836 4.3065C13.9333 4.1645 13.4502 4.1645 13 4.3065V0.5C13 0.223875 12.7761 0 12.5 0H0.5C0.223875 0 0 0.223875 0 0.5V12.5C0 12.7761 0.223875 13 0.5 13H4.3065C3.92444 14.2114 4.59681 15.5033 5.80825 15.8853C7.01969 16.2673 8.3115 15.5949 8.6935 14.3835C8.8355 13.9333 8.8355 13.4502 8.6935 12.9999H12.5C12.7761 12.9999 13 12.7761 13 12.4999V8.69344C14.2114 9.0755 15.5033 8.40312 15.8853 7.19169C16.2673 5.98031 15.595 4.68856 14.3836 4.3065ZM14.0953 7.7355C13.8326 7.8215 13.5492 7.8215 13.2865 7.7355L12.658 7.526C12.396 7.43875 12.1129 7.58037 12.0256 7.84237C12.0087 7.89319 12.0001 7.94644 12 8V12H8C7.72388 12.0002 7.50019 12.2242 7.50037 12.5004C7.50044 12.5539 7.50906 12.6072 7.526 12.658L7.7355 13.2865C7.95887 13.9689 7.58675 14.7031 6.90438 14.9264C6.222 15.1497 5.48781 14.7776 5.2645 14.0953C5.1785 13.8325 5.1785 13.5492 5.2645 13.2864L5.474 12.6579C5.56125 12.3959 5.41963 12.1128 5.15763 12.0256C5.10681 12.0086 5.05356 12 5 11.9999H1V1H12V5C12.0002 5.27612 12.2242 5.49981 12.5004 5.49963C12.5539 5.49956 12.6072 5.49094 12.658 5.474L13.2865 5.2645C13.9689 5.04119 14.7031 5.41325 14.9264 6.09562C15.1498 6.77794 14.7776 7.51219 14.0953 7.7355Z" fill="#317B22"/>
</g>
<defs>
<clipPath id="clip0_136_284">
<rect width="30" height="30" fill="white"/>
</clipPath>
</defs>
</svg>
