<svg width="30" height="30" viewBox="0 0 30 30" fill="none" xmlns="http://www.w3.org/2000/svg">
<g clip-path="url(#clip0_136_330)">
<path d="M1.80066 16.0738C1.80066 17.0654 2.60744 17.8721 3.59896 17.8721C4.59048 17.8721 5.39726 17.0653 5.39726 16.0738C5.39726 15.9406 5.38226 15.8109 5.35466 15.6859L7.9383 14.3919C8.26835 14.7743 8.75591 15.017 9.29943 15.017C10.6945 15.017 11.5589 13.4889 10.842 12.2955L14.0794 9.05262C14.8217 9.49682 15.7839 9.35039 16.3611 8.68172L18.9447 9.97576C18.6956 11.1041 19.56 12.162 20.7005 12.162C22.2556 12.162 23.0782 10.3087 22.032 9.15615L25.8008 3.4933C26.9724 3.90943 28.1993 3.03316 28.1993 1.79836C28.1993 0.806777 27.3925 0 26.401 0C25.4094 0 24.6027 0.806777 24.6027 1.7983C24.6027 2.2626 24.7795 2.68641 25.0695 3.0058L21.3007 8.66865C20.6101 8.42332 19.8311 8.62066 19.3393 9.19037L16.7557 7.89633C16.7833 7.77135 16.7983 7.64168 16.7983 7.5085C16.7983 6.51691 15.9915 5.7102 15 5.7102C13.6055 5.7102 12.7403 7.23785 13.4575 8.4317L10.2201 11.6746C8.87984 10.8725 7.20289 12.0626 7.54384 13.6065L4.96021 14.9005C3.87669 13.6454 1.80066 14.4091 1.80066 16.0738ZM26.401 0.878906C26.9079 0.878906 27.3203 1.29135 27.3203 1.7983C27.3203 2.30525 26.9079 2.7177 26.401 2.7177C25.894 2.7177 25.4816 2.30525 25.4816 1.7983C25.4816 1.29135 25.8939 0.878906 26.401 0.878906ZM20.7005 9.4442C21.2074 9.4442 21.6199 9.85664 21.6199 10.3636C21.6199 10.8705 21.2074 11.283 20.7005 11.283C20.1935 11.283 19.7811 10.8705 19.7811 10.3636C19.7811 9.85664 20.1935 9.4442 20.7005 9.4442ZM15 6.5891C15.5069 6.5891 15.9194 7.00154 15.9194 7.5085C15.9194 8.01545 15.5069 8.42789 15 8.42789C14.493 8.42789 14.0806 8.01545 14.0806 7.5085C14.0806 7.00154 14.4929 6.5891 15 6.5891ZM9.29943 12.2992C9.80638 12.2992 10.2188 12.7117 10.2188 13.2186C10.2188 13.7256 9.80638 14.138 9.29943 14.138C8.79248 14.138 8.38003 13.7256 8.38003 13.2186C8.38003 12.7117 8.79248 12.2992 9.29943 12.2992ZM3.59896 16.9932C3.09201 16.9932 2.67957 16.5808 2.67957 16.0738C2.67957 15.5669 3.09201 15.1545 3.59896 15.1545C4.10591 15.1545 4.51835 15.5669 4.51835 16.0738C4.51835 16.5808 4.10597 16.9932 3.59896 16.9932Z" fill="#317B22"/>
<path d="M29.2214 29.1211H28.6776V19.4644C28.6776 19.2217 28.4809 19.025 28.2381 19.025C27.9954 19.025 27.7987 19.2217 27.7987 19.4644V29.1211H25.0032V7.22748H27.7987V17.4137C27.7987 17.6565 27.9954 17.8532 28.2381 17.8532C28.4809 17.8532 28.6776 17.6565 28.6776 17.4137V7.15553C28.6776 6.71056 28.3155 6.34857 27.8706 6.34857H24.9313C24.4864 6.34857 24.1244 6.71062 24.1244 7.15553V29.1211H22.9771V15.7609C22.9771 15.3159 22.6151 14.9539 22.1702 14.9539H21.7259C21.4832 14.9539 21.2865 15.1506 21.2865 15.3934C21.2865 15.6361 21.4832 15.8328 21.7259 15.8328H22.0983V29.1211H19.3029V15.8328H19.6752C19.9179 15.8328 20.1146 15.6361 20.1146 15.3934C20.1146 15.1506 19.9179 14.9539 19.6752 14.9539H19.2309C18.7859 14.9539 18.424 15.316 18.424 15.7609V29.1211H17.2767V12.8809C17.2767 12.4359 16.9146 12.074 16.4697 12.074H13.5304C13.0855 12.074 12.7235 12.436 12.7235 12.8809V29.1211H11.5763V18.616C11.5763 18.171 11.2142 17.809 10.7693 17.809H7.83003C7.38507 17.809 7.02308 18.1711 7.02308 18.616V29.1211H5.87581V21.471C5.87581 21.0261 5.51382 20.6641 5.06892 20.6641H2.12933C1.68437 20.6641 1.32237 21.0261 1.32237 21.471V29.1211H0.778564C0.535811 29.1211 0.339111 29.3178 0.339111 29.5605C0.339111 29.8033 0.535811 30 0.778564 30H29.2214C29.4642 30 29.6609 29.8033 29.6609 29.5605C29.6609 29.3178 29.4641 29.1211 29.2214 29.1211ZM2.20128 29.1211V21.543H4.99667V29.1211H2.20128ZM7.90175 29.1211V18.6879H10.6972V29.1211H7.90175ZM13.6023 29.1211V12.9529H16.3977V29.1211H13.6023Z" fill="#317B22"/>
</g>
<defs>
<clipPath id="clip0_136_330">
<rect width="30" height="30" fill="white"/>
</clipPath>
</defs>
</svg>
