<svg width="30" height="30" viewBox="0 0 30 30" fill="none" xmlns="http://www.w3.org/2000/svg">
<g clip-path="url(#clip0_136_370)">
<path d="M6.11011 3.29767C4.55901 3.29767 3.29761 4.55907 3.29761 6.11017C3.29761 7.66126 4.55901 8.92267 6.11011 8.92267C7.6612 8.92267 8.92261 7.66126 8.92261 6.11017C8.92261 4.55907 7.6612 3.29767 6.11011 3.29767ZM6.11011 7.98517C5.07604 7.98517 4.23511 7.14423 4.23511 6.11017C4.23511 5.07611 5.07604 4.23517 6.11011 4.23517C7.14417 4.23517 7.98511 5.07611 7.98511 6.11017C7.98511 7.14423 7.14417 7.98517 6.11011 7.98517Z" fill="#317B22"/>
<path d="M27.0501 22.8314L26.3873 22.1686L22.9687 25.5872L22.3626 24.9811L21.6998 25.6439L22.9687 26.9128L27.0501 22.8314Z" fill="#317B22"/>
<path d="M16.4062 5.625H17.3438V6.5625H16.4062V5.625Z" fill="#317B22"/>
<path d="M22.0312 5.625H22.9688V6.5625H22.0312V5.625Z" fill="#317B22"/>
<path d="M20.1562 5.625H21.0938V6.5625H20.1562V5.625Z" fill="#317B22"/>
<path d="M18.2812 5.625H19.2188V6.5625H18.2812V5.625Z" fill="#317B22"/>
<path d="M11.25 17.3438H18.75C19.5253 17.3438 20.1562 16.7128 20.1562 15.9375V15.4688H26.25C28.0589 15.4688 29.5312 13.9969 29.5312 12.1875V8.90626C29.5312 7.09689 28.0589 5.62501 26.25 5.62501H24.8438V5.15626C24.8438 4.38095 24.2128 3.75001 23.4375 3.75001H15.9375C15.1622 3.75001 14.5312 4.38095 14.5312 5.15626V5.62501H11.7352V4.81501L10.5047 4.47892C10.4644 4.37111 10.4194 4.26376 10.3706 4.15782L11.0039 3.04876L9.17203 1.21689L8.06344 1.8497C7.95703 1.80095 7.85016 1.75595 7.74234 1.71564L7.40578 0.485168H4.815L4.47844 1.71564C4.37063 1.75595 4.26375 1.80048 4.15781 1.8497L3.04875 1.21689L1.21687 3.04876L1.84969 4.15782C1.80094 4.26376 1.75594 4.37111 1.71563 4.47892L0.485156 4.81501V7.40532L1.71563 7.74189C1.75594 7.8497 1.80094 7.95704 1.84969 8.06298L1.21641 9.17204L3.04828 11.0035L4.15734 10.3706C4.26328 10.4194 4.37016 10.4644 4.47797 10.5047L4.81453 11.7352H7.40531L7.74188 10.5047C7.84922 10.4644 7.95656 10.4194 8.06297 10.3706L9.17156 11.003L11.0034 9.17157L10.3702 8.06251C10.4189 7.95657 10.4639 7.84923 10.5042 7.74142L11.7347 7.40486V6.56251H14.5312V7.03126C14.5312 7.80657 15.1622 8.43751 15.9375 8.43751H23.4375C24.2128 8.43751 24.8438 7.80657 24.8438 7.03126V6.56251H26.25C27.5423 6.56251 28.5938 7.61392 28.5938 8.90626V12.1875C28.5938 13.4799 27.5423 14.5313 26.25 14.5313H20.1562V14.0625C20.1562 13.2872 19.5253 12.6563 18.75 12.6563H11.25C10.4747 12.6563 9.84375 13.2872 9.84375 14.0625V14.5313H3.75C1.94109 14.5313 0.46875 16.0036 0.46875 17.8125V21.5625C0.46875 23.3714 1.94109 24.8438 3.75 24.8438H5.15625V25.3125C5.15625 26.0878 5.78719 26.7188 6.5625 26.7188H14.0625C14.8378 26.7188 15.4688 26.0878 15.4688 25.3125V24.8438H19.2427C19.4803 27.4678 21.69 29.5313 24.375 29.5313C27.218 29.5313 29.5312 27.218 29.5312 24.375C29.5312 21.532 27.218 19.2188 24.375 19.2188C21.69 19.2188 19.4803 21.2822 19.2427 23.9063H15.4688V23.4375C15.4688 22.6622 14.8378 22.0313 14.0625 22.0313H6.5625C5.78719 22.0313 5.15625 22.6622 5.15625 23.4375V23.9063H3.75C2.45766 23.9063 1.40625 22.8549 1.40625 21.5625V17.8125C1.40625 16.5202 2.45766 15.4688 3.75 15.4688H9.84375V15.9375C9.84375 16.7128 10.4747 17.3438 11.25 17.3438ZM10.7977 6.69001L9.76969 6.97126L9.69422 7.21736C9.62672 7.43439 9.53672 7.65048 9.42609 7.85954L9.30516 8.08736L9.83484 9.01501L9.01547 9.83486L8.08734 9.30564L7.86 9.42611C7.65141 9.53673 7.43531 9.62673 7.21781 9.69376L6.97219 9.7697L6.69047 10.7977H5.53125L5.24953 9.7697L5.00391 9.69376C4.78734 9.62673 4.57125 9.5372 4.36172 9.42611L4.13391 9.30564L3.20625 9.83486L2.38594 9.01501L2.91562 8.08736L2.79469 7.85954C2.68406 7.65048 2.59359 7.43439 2.52656 7.21736L2.45109 6.97126L1.42313 6.69001V5.53032L2.45109 5.24954L2.52703 5.00345C2.59406 4.78642 2.68406 4.57032 2.79469 4.36173L2.91562 4.13345L2.38594 3.20579L3.20531 2.38595L4.13297 2.91517L4.36078 2.7947C4.57125 2.68361 4.78734 2.59314 5.00297 2.52657L5.24859 2.45064L5.53031 1.42267H6.68953L6.97125 2.45064L7.21688 2.52657C7.43344 2.59361 7.64953 2.68361 7.85906 2.7947L8.08641 2.91517L9.01453 2.38595L9.83391 3.20579L9.30422 4.13345L9.42516 4.36126C9.53578 4.56986 9.62625 4.78595 9.69281 5.00298L9.76875 5.24907L10.7967 5.52986V6.69001H10.7977ZM23.9062 7.03126C23.9062 7.28954 23.6963 7.50001 23.4375 7.50001H15.9375C15.6788 7.50001 15.4688 7.28954 15.4688 7.03126V5.15626C15.4688 4.89798 15.6788 4.68751 15.9375 4.68751H23.4375C23.6963 4.68751 23.9062 4.89798 23.9062 5.15626V7.03126ZM24.375 20.1563C26.7014 20.1563 28.5938 22.0486 28.5938 24.375C28.5938 26.7014 26.7014 28.5938 24.375 28.5938C22.0486 28.5938 20.1562 26.7014 20.1562 24.375C20.1562 22.0486 22.0486 20.1563 24.375 20.1563ZM6.09375 23.4375C6.09375 23.1788 6.30375 22.9688 6.5625 22.9688H14.0625C14.3212 22.9688 14.5312 23.1788 14.5312 23.4375V25.3125C14.5312 25.5713 14.3212 25.7813 14.0625 25.7813H6.5625C6.30375 25.7813 6.09375 25.5713 6.09375 25.3125V23.4375ZM10.7812 14.0625C10.7812 13.8042 10.9913 13.5938 11.25 13.5938H18.75C19.0088 13.5938 19.2188 13.8042 19.2188 14.0625V15.9375C19.2188 16.1963 19.0088 16.4063 18.75 16.4063H11.25C10.9913 16.4063 10.7812 16.1963 10.7812 15.9375V14.0625Z" fill="#317B22"/>
<path d="M15.4688 14.5312H16.4062V15.4688H15.4688V14.5312Z" fill="#317B22"/>
<path d="M13.5938 14.5312H14.5312V15.4688H13.5938V14.5312Z" fill="#317B22"/>
<path d="M11.7188 14.5312H12.6562V15.4688H11.7188V14.5312Z" fill="#317B22"/>
<path d="M17.3438 14.5312H18.2812V15.4688H17.3438V14.5312Z" fill="#317B22"/>
<path d="M8.90625 23.9062H9.84375V24.8438H8.90625V23.9062Z" fill="#317B22"/>
<path d="M12.6562 23.9062H13.5938V24.8438H12.6562V23.9062Z" fill="#317B22"/>
<path d="M10.7812 23.9062H11.7188V24.8438H10.7812V23.9062Z" fill="#317B22"/>
<path d="M7.03125 23.9062H7.96875V24.8438H7.03125V23.9062Z" fill="#317B22"/>
</g>
<defs>
<clipPath id="clip0_136_370">
<rect width="30" height="30" fill="white"/>
</clipPath>
</defs>
</svg>
