<svg width="30" height="30" viewBox="0 0 30 30" fill="none" xmlns="http://www.w3.org/2000/svg">
<path d="M26.0201 25.9692H25.5516V16.4222C25.5516 15.4244 24.7398 14.6125 23.7419 14.6125H19.5008C19.7318 14.3006 19.9376 13.9703 20.116 13.6271H21.0232C21.9886 13.6271 22.774 12.8417 22.774 11.8763V11.6095C23.3118 11.3995 23.6939 10.8763 23.6939 10.2652V7.50797C23.6939 6.8526 23.2546 6.2983 22.6551 6.12311C22.0055 2.61035 18.7728 0 15 0C13.6937 0 12.4016 0.315352 11.2633 0.911953C11.0484 1.02463 10.9654 1.29023 11.0781 1.50521C11.1907 1.72014 11.4564 1.80305 11.6714 1.69043C12.6842 1.15951 13.8352 0.878906 15 0.878906C18.2707 0.878906 21.0821 3.07559 21.7465 6.0651H20.6356C19.8685 3.68549 17.6324 1.95891 15 1.95891C12.3676 1.95891 10.1315 3.68549 9.36447 6.0651H8.25476C8.53712 4.80229 9.21951 3.6259 10.2034 2.72162C10.3821 2.55738 10.3938 2.27936 10.2295 2.1007C10.0653 1.92199 9.78728 1.91027 9.60863 2.07451C8.42878 3.15891 7.63056 4.59146 7.34638 6.12264C6.74609 6.2973 6.30605 6.85201 6.30605 7.50791V10.2651C6.30605 11.0607 6.95328 11.7079 7.74892 11.7079H9.20427C9.40665 12.7373 9.8522 13.7413 10.4989 14.6125H6.25818C5.26033 14.6125 4.44845 15.4243 4.44845 16.4222V25.9691H3.97994C3.35984 25.9691 2.85535 26.4736 2.85535 27.0937V27.7335C2.85535 28.9832 3.87207 29.9999 5.12181 29.9999H19.7936C20.0363 29.9999 20.233 29.8032 20.233 29.5605C20.233 29.3178 20.0363 29.121 19.7936 29.121H5.12175C4.35664 29.121 3.73419 28.4986 3.73419 27.7335V27.0938C3.73419 26.9583 3.84441 26.8481 3.97988 26.8481H26.0201C26.1556 26.8481 26.2658 26.9583 26.2658 27.0938V27.7335C26.2658 28.4987 25.6433 29.1211 24.8782 29.1211H21.8711C21.6284 29.1211 21.4316 29.3179 21.4316 29.5605C21.4316 29.8032 21.6284 30 21.8711 30H24.8782C26.128 30 27.1447 28.9833 27.1447 27.7335V27.0938C27.1447 26.4737 26.6402 25.9692 26.0201 25.9692ZM21.0233 12.7482H20.5031C20.6271 12.4072 20.7245 12.0589 20.794 11.708H21.8952V11.8763C21.8952 12.3571 21.5041 12.7482 21.0233 12.7482ZM20.9454 6.944H22.2512C22.5622 6.944 22.8152 7.19695 22.8152 7.50797V10.2652C22.8152 10.5761 22.5622 10.8291 22.2512 10.8291H20.9454V6.944ZM15 2.83781C17.5622 2.83781 19.6825 4.75904 19.9984 7.23562H10.0016C10.3175 4.75904 12.4378 2.83781 15 2.83781ZM9.05462 10.8291H7.74886C7.4379 10.8291 7.1849 10.5761 7.1849 10.2652V7.50797C7.1849 7.19701 7.43785 6.944 7.74886 6.944H9.05462V10.8291ZM11.543 14.5073C10.5515 13.3827 9.95949 11.8699 9.95949 10.4605V8.11453H20.0405V10.4605C20.0405 11.2274 19.8715 12.0118 19.561 12.7482H16.0785C15.8358 12.7482 15.639 12.9449 15.639 13.1876C15.639 13.4303 15.8358 13.6271 16.0785 13.6271H19.1081C18.8921 13.9781 18.6422 14.3095 18.3618 14.6125H11.6116C11.5943 14.5753 11.5716 14.5397 11.543 14.5073ZM5.3273 16.4222C5.3273 15.909 5.74484 15.4914 6.25812 15.4914H23.7419C24.2551 15.4914 24.6727 15.909 24.6727 16.4222V25.9692H5.3273V16.4222Z" fill="#317B22"/>
<path d="M15.0001 18.7664C13.9168 18.7664 13.0355 19.6477 13.0355 20.7309C13.0355 21.8142 13.9168 22.6954 15.0001 22.6954C16.0833 22.6954 16.9646 21.8141 16.9646 20.7309C16.9646 19.6477 16.0833 18.7664 15.0001 18.7664ZM15.0001 21.8165C14.4015 21.8165 13.9144 21.3295 13.9144 20.7309C13.9144 20.1323 14.4015 19.6453 15.0001 19.6453C15.5986 19.6453 16.0857 20.1323 16.0857 20.7309C16.0857 21.3295 15.5987 21.8165 15.0001 21.8165Z" fill="#317B22"/>
</svg>
