<svg width="30" height="30" viewBox="0 0 30 30" fill="none" xmlns="http://www.w3.org/2000/svg">
<path d="M18.7781 13.2038C18.7781 12.7378 18.4003 12.36 17.9343 12.36H8.65308C8.18714 12.36 7.80933 12.7378 7.80933 13.2038C7.80933 13.6697 8.18714 14.0475 8.65308 14.0475H17.9343C18.4003 14.0475 18.7781 13.6697 18.7781 13.2038Z" fill="#317B22"/>
<path d="M8.65124 16.6209C8.18531 16.6209 7.8075 16.9988 7.8075 17.4647C7.8075 17.9306 8.18531 18.3084 8.65124 18.3084H13.5722C14.0381 18.3084 14.4159 17.9306 14.4159 17.4647C14.4159 16.9988 14.0381 16.6209 13.5722 16.6209H8.65124Z" fill="#317B22"/>
<path d="M24.3375 13.2506C23.8716 13.2506 23.4937 13.6284 23.4937 14.0944V20.9184C23.4937 22.1953 22.455 23.2341 21.1781 23.2341H15.5344C15.3516 23.2341 15.1734 23.2931 15.0272 23.4038L10.1541 27.0684C10.0303 27.1612 9.91406 27.1228 9.85594 27.0909C9.79687 27.0609 9.69938 26.9869 9.70312 26.8359L9.79687 24.1078C9.80437 23.8791 9.71906 23.6569 9.56063 23.4928C9.40219 23.3278 9.18281 23.235 8.95406 23.235H5.03438C3.7575 23.235 2.71875 22.1972 2.71875 20.9194V9.76313C2.71875 8.48156 3.7575 7.43906 5.03438 7.43906H15.4312C15.8972 7.43906 16.275 7.06125 16.275 6.59531C16.275 6.12938 15.8972 5.75156 15.4312 5.75156H5.03438C2.8275 5.75156 1.03125 7.55156 1.03125 9.76406V20.9194C1.03125 23.1262 2.8275 24.9234 5.03438 24.9234H8.08031L8.01656 26.7816C7.99406 27.5447 8.4 28.2384 9.07781 28.59C9.3675 28.7409 9.67969 28.815 9.98906 28.815C10.4044 28.815 10.8159 28.6809 11.1666 28.4194L15.8156 24.9234H21.1772C23.3841 24.9234 25.1803 23.1272 25.1803 20.9194V14.0953C25.1812 13.6284 24.8034 13.2506 24.3375 13.2506Z" fill="#317B22"/>
<path d="M28.8985 5.21344C28.7457 4.74469 28.3697 4.39406 27.8926 4.27594L25.7363 3.73875L24.5588 1.85438C24.0366 1.01625 22.6735 1.01813 22.1522 1.85438L20.9747 3.73875L18.8185 4.27594C18.3413 4.39406 17.9644 4.74469 17.8126 5.21344C17.6607 5.68219 17.7582 6.1875 18.0751 6.56531L19.5038 8.26594L19.3482 10.4822C19.3135 10.9734 19.531 11.4394 19.9294 11.7291C20.1769 11.9091 20.4676 12.0019 20.7619 12.0019C20.941 12.0019 21.1219 11.9672 21.2954 11.8969L23.356 11.0644L25.4157 11.8969C25.8722 12.0825 26.3822 12.0188 26.7816 11.73C27.1801 11.4403 27.3976 10.9744 27.3638 10.4822L27.2082 8.26594L28.6369 6.56438C28.9529 6.1875 29.0513 5.68219 28.8985 5.21344ZM25.696 7.44188C25.5554 7.60969 25.4851 7.82531 25.501 8.04469L25.651 10.1728L23.6729 9.37313C23.5716 9.33188 23.4638 9.31125 23.3569 9.31125C23.2501 9.31125 23.1422 9.33188 23.041 9.37313L21.0638 10.1728L21.2129 8.04469C21.2279 7.82625 21.1576 7.60969 21.0179 7.44188L19.6463 5.80875L21.7163 5.29219C21.9282 5.23875 22.1119 5.10656 22.2272 4.92094L23.3579 3.1125L24.4885 4.92094C24.6047 5.10656 24.7876 5.23969 24.9994 5.29219L27.0694 5.80875L25.696 7.44188Z" fill="#317B22"/>
</svg>
