<svg width="18" height="16" viewBox="0 0 18 16" fill="none" xmlns="http://www.w3.org/2000/svg">
<path d="M16.4148 9.50923L14.3867 7.38895L15.032 6.74365C15.2164 6.55928 15.4929 6.46709 15.7695 6.46709C16.046 6.46709 16.2304 6.55928 16.507 6.74365L17.1523 7.38895C17.3366 7.57333 17.4288 7.84988 17.4288 8.12644C17.4288 8.403 17.3366 8.58737 17.1523 8.86393L16.4148 9.50923ZM8.76334 15.0404V13.0123L13.6492 8.12644L15.6773 10.1545L10.7914 15.0404H8.76334ZM0.282227 10.7077V8.67956H7.47274V10.7077H0.282227ZM0.282227 6.55928V4.62337H11.2524V6.55928H0.282227ZM0.282227 2.41091V0.382812H11.2524V2.41091H0.282227Z" fill="#0F2043"/>
</svg>
