<svg width="64" height="64" viewBox="0 0 64 64" fill="none" xmlns="http://www.w3.org/2000/svg">
<path d="M32.4198 22.1253C32.1792 22.1253 31.9717 21.9447 31.9436 21.7003C31.6838 19.4348 31.5185 17.5625 31.2617 15.2922C29.7598 14.4185 28.2011 13.6072 26.3411 12.6691C26.1042 12.5497 26.0092 12.261 26.1286 12.0241C26.2479 11.7872 26.5361 11.6916 26.7736 11.8116C28.7354 12.8016 30.3667 13.6522 31.9548 14.5853C32.0848 14.6616 32.1717 14.7947 32.1886 14.9447C32.3217 16.1041 32.4323 17.1878 32.5436 18.2716C32.6542 19.3528 32.7648 20.4341 32.8973 21.591C32.9273 21.8541 32.7386 22.0922 32.4754 22.1222C32.4567 22.1241 32.4379 22.1253 32.4198 22.1253Z" fill="black"/>
<path d="M20.558 62.9617C15.9442 62.9617 11.733 61.2749 9.14108 58.2199C8.96983 58.0174 8.99483 57.7149 9.19671 57.543C9.39921 57.3736 9.70171 57.3961 9.87358 57.5986C13.0798 61.378 18.9942 62.8999 24.9392 61.4774C30.548 60.1355 33.7355 57.2742 37.958 53.063C42.1786 48.8536 44.7467 45.8311 48.0005 41.2274C47.0592 40.0424 46.118 38.8055 44.9842 37.2642C44.8273 37.0505 44.873 36.7505 45.0867 36.593C45.2998 36.4367 45.6005 36.4817 45.758 36.6955C46.9736 38.348 47.9661 39.648 48.9755 40.9099C49.1086 41.0767 49.1161 41.3111 48.993 41.4861C45.6036 46.3074 42.9898 49.4005 38.6355 53.743C34.298 58.0699 31.0161 61.0105 25.163 62.4111C23.6136 62.7817 22.0642 62.9617 20.558 62.9617Z" fill="black"/>
<path d="M8.00135 49.134C5.44697 45.6552 5.01635 40.6859 6.84885 35.8409C8.28697 32.039 11.0588 28.1996 15.3232 24.1027C18.8589 20.7053 22.4978 15.9387 26.1076 12.5565C26.3365 12.3406 26.7199 12.3996 26.8651 12.6927C27.363 13.6915 27.6929 17.8102 27.7007 18.6102C29.2751 19.1109 32.4289 21.2084 32.7126 21.4902C32.8101 21.5877 32.8613 21.7221 32.8532 21.859C32.8451 21.9965 32.7782 22.124 32.6701 22.209C32.1295 22.6321 31.547 23.0827 30.9357 23.5559C27.0407 26.5702 21.7057 30.699 19.0913 34.1371C16.6901 37.2959 15.1776 40.0227 15.0557 43.8521C14.9432 47.3521 17.2863 51.4321 21.4014 52.2015C21.8814 52.2916 21.9349 52.9611 21.4745 53.1259C16.735 54.8117 10.9349 53.1286 8.00135 49.134ZM26.2064 13.7902C24.542 15.4127 22.8445 17.3334 21.197 19.1971C19.4826 21.1359 17.7107 23.1409 15.9882 24.7952C11.8288 28.7909 9.13322 32.5152 7.74635 36.1809C6.02947 40.7202 6.41447 45.3502 8.7751 48.5652C11.1326 51.7765 15.5488 53.3802 19.5601 52.6459C15.9788 51.1334 13.987 47.2296 14.0957 43.8215C14.3831 34.8347 23.1804 28.3434 30.3482 22.7965C30.7838 22.459 31.2051 22.1334 31.607 21.8202C30.4776 20.9996 28.0532 19.724 27.347 19.4659C27.1207 19.5352 26.8707 19.4296 26.7638 19.2152C26.7045 19.0971 26.6995 18.9496 26.7395 18.8184C26.7495 18.1227 26.5151 15.2234 26.2064 13.7902Z" fill="black"/>
<path d="M5.15137 54.3884C2.73432 50.5097 2.0156 45.6893 2.80885 41.0669C3.51033 36.9387 5.32695 32.9604 7.78514 29.2737C13.1451 21.1825 19.043 17.6193 26.1714 11.8222C26.3935 11.6416 26.726 11.7019 26.8288 11.9359C27.7694 14.077 27.6164 17.3421 27.9804 19.527C26.434 20.7539 26.3596 20.7399 25.005 21.9371C23.3256 23.4234 21.5924 24.8256 19.7603 26.441C16.4688 29.3516 13.3192 32.5449 11.4648 36.301C9.60825 40.0495 9.21805 44.4847 11.3723 47.8335C11.6002 48.1821 11.838 48.6591 12.0985 48.9563C9.95759 50.7302 7.41754 52.5065 5.15137 54.3884Z" fill="#50BBFE"/>
<path d="M42.811 41.7015C42.789 41.7248 42.7697 41.7556 42.7479 41.7788C38.8 46.7866 35.9808 50.6403 30.7168 54.7914C28.2781 56.7133 25.6732 58.5264 22.7318 59.7233C19.832 60.889 16.5413 61.4853 13.4893 60.7547C9.69137 59.8569 6.24269 56.7189 4.79895 53.6461C9.01426 50.8245 10.8334 48.9323 11.7618 48.4308C14.3178 52.1683 20.4236 52.2399 24.8154 47.8786C28.7938 43.9371 32.0147 41.0519 35.5269 36.5816C36.9975 34.71 38.4175 32.9812 40.05 31.251C39.9997 31.3042 42.9318 33.6237 43.1628 33.8839C44.0935 34.9321 45.1189 35.9084 46.0965 36.9134C46.1786 36.9956 42.8566 41.6375 42.811 41.7015Z" fill="#FC4A21"/>
<path d="M5.3518 42.3509C5.33743 42.3509 5.32305 42.3503 5.30805 42.349C5.0443 42.3253 4.8493 42.0922 4.87305 41.8278C5.50055 34.8222 9.22618 28.1084 14.8387 23.8684C15.0506 23.709 15.3512 23.7503 15.5112 23.9622C15.6706 24.174 15.6287 24.4747 15.4174 24.6347C10.0174 28.7134 6.43305 35.1728 5.8293 41.914C5.8068 42.1634 5.59743 42.3509 5.3518 42.3509Z" fill="#A9E4FC"/>
<path d="M37.37 36.2109C35.8462 38.5312 34.0778 40.6906 32.1035 42.6419L37.37 36.2109Z" fill="#F9C73D"/>
<path d="M31.7618 42.9787C31.5756 42.79 31.5768 42.4862 31.7656 42.3C33.7137 40.375 35.4637 38.2375 36.9681 35.9468C37.1137 35.7256 37.4099 35.6637 37.6331 35.8093C37.8543 35.955 37.9162 36.2525 37.7706 36.4743C36.2293 38.8206 34.4362 41.0106 32.4406 42.9825C32.2507 43.1698 31.9469 43.1663 31.7618 42.9787Z" fill="#F98470"/>
<path d="M30.3477 44.9471C30.3481 44.8827 30.3486 44.8183 30.349 44.7539L30.3477 44.9471Z" fill="#F9C73D"/>
<path d="M30.3482 45.427H30.3438C30.0782 45.4245 29.8657 45.2076 29.8682 44.9426L29.8694 44.7495C29.8758 44.0795 30.8352 44.1483 30.8294 44.7583L30.8282 44.9514C30.8257 45.2151 30.6113 45.427 30.3482 45.427Z" fill="#F98470"/>
<path d="M36.4226 15.0177C34.577 9.66358 34.6515 9.98946 34.7349 9.90629C36.98 7.66759 39.4311 5.23295 41.6825 2.98829C41.7523 2.91871 41.8702 2.95363 41.8929 3.05107C42.278 4.69955 42.7086 6.50902 43.0944 8.15988C43.1187 8.2641 43.2472 8.2946 43.3118 8.21119C44.9129 6.14295 47.8472 3.26915 49.6616 1.07205C49.7383 0.979224 49.8796 1.07809 49.8258 1.18612C47.5316 5.79011 45.4393 10.3416 43.1243 14.951C43.0799 15.0393 42.9543 15.0483 42.8972 14.9658C41.8829 13.5004 40.9583 11.9236 40.1741 10.3244C40.1274 10.2292 39.998 10.2298 39.9515 10.3232C39.0882 12.0563 38.0056 13.4799 36.9629 15.0891C36.8262 15.3 36.5058 15.259 36.4226 15.0177Z" fill="#FFC100"/>
<path d="M51.695 35.8782L48.7354 31.5199C48.6625 31.4126 48.4183 31.9388 53.6259 22.8918C53.675 22.8064 53.7979 22.8093 53.8453 22.8974C54.6481 24.3878 55.537 26.0217 56.341 27.5142C56.3918 27.6085 56.5238 27.6043 56.5643 27.5069C57.5688 25.0919 59.6495 21.5507 60.8261 18.9556C60.8759 18.846 61.0381 18.9044 61.0144 19.0228C60.0042 24.0665 59.1749 29.0068 58.1459 34.0612C58.1262 34.1581 58.0073 34.1996 57.9306 34.1349C56.5683 32.9857 55.2636 31.7056 54.0884 30.3671C54.0185 30.2875 53.8938 30.3218 53.8733 30.4242C53.4932 32.3227 52.8207 33.9799 52.2351 35.8058C52.1583 36.0451 51.8383 36.0893 51.695 35.8782Z" fill="#FFC100"/>
<path d="M51.9551 35.9234C52.6521 34.2129 53.3492 32.5025 54.0463 30.792L51.9551 35.9234Z" fill="#F9C73D"/>
<path d="M51.7734 36.3673C51.5278 36.2673 51.4103 35.9873 51.5103 35.7416L53.6015 30.6104C53.7009 30.3641 53.9821 30.2473 54.2271 30.3473C54.4728 30.4473 54.5903 30.7273 54.4903 30.9729L52.399 36.1041C52.2978 36.3533 52.0142 36.4661 51.7734 36.3673Z" fill="black"/>
<path d="M58.0566 33.9981C59.045 29.1986 60.0333 24.3991 61.0217 19.5996L58.0566 33.9981Z" fill="#F9C73D"/>
<path d="M57.9593 34.4685C57.7 34.4154 57.5325 34.161 57.5862 33.9016L60.5512 19.5029C60.6043 19.2429 60.8587 19.0741 61.1181 19.1298C61.3775 19.1829 61.545 19.4366 61.4912 19.6966L58.5262 34.0954C58.4721 34.3574 58.2151 34.5226 57.9593 34.4685Z" fill="black"/>
<path d="M36.7139 15.0879C38.0597 13.6846 39.1856 12.0708 40.038 10.3232L36.7139 15.0879Z" fill="#F9C73D"/>
<path d="M36.381 15.4347C36.1897 15.2516 36.1835 14.9478 36.3672 14.756C37.6835 13.3835 38.7735 11.8216 39.606 10.1135C39.7216 9.87658 40.0066 9.77533 40.2479 9.89283C40.486 10.0091 40.5847 10.296 40.4685 10.5347C39.5922 12.3316 38.4454 13.976 37.0597 15.421C36.8753 15.6128 36.5716 15.6177 36.381 15.4347Z" fill="black"/>
<path d="M42.9463 14.9605C45.1881 10.5023 47.43 6.04411 49.6719 1.58594L42.9463 14.9605Z" fill="#F9C73D"/>
<path d="M42.7304 15.3897C42.4935 15.2709 42.3979 14.9822 42.5172 14.7453L49.2429 1.37028C49.3622 1.13341 49.6497 1.03716 49.8872 1.15716C50.1241 1.27591 50.2197 1.56466 50.1004 1.80153L43.3747 15.1765C43.2554 15.4134 42.9663 15.5087 42.7304 15.3897Z" fill="black"/>
<path d="M36.8643 10.3583C37.7134 9.42867 38.5626 8.499 39.4118 7.56934L36.8643 10.3583Z" fill="#F9C73D"/>
<path d="M36.6474 10.594C36.5167 10.4747 36.5074 10.2728 36.6267 10.1422L39.1742 7.35342C39.2936 7.2228 39.4955 7.21342 39.6261 7.3328C39.7567 7.45217 39.7661 7.65405 39.6467 7.78467L37.0992 10.5734C36.9796 10.7049 36.7764 10.7126 36.6474 10.594Z" fill="#FCD98D"/>
<path d="M51.167 31.4594C51.6124 30.3681 52.0578 29.2768 52.5031 28.1855L51.167 31.4594Z" fill="#F9C73D"/>
<path d="M51.0455 31.7554C50.8824 31.6885 50.8036 31.5017 50.8705 31.3379L52.2068 28.0642C52.273 27.9004 52.4593 27.8223 52.6243 27.8892C52.7874 27.956 52.8661 28.1429 52.7993 28.3067L51.463 31.5804C51.3962 31.7438 51.2096 31.822 51.0455 31.7554Z" fill="#FCD98D"/>
</svg>
