<svg width="45" height="45" viewBox="0 0 45 45" fill="none" xmlns="http://www.w3.org/2000/svg">
<path d="M22.5 18.75C21.5055 18.75 20.5516 19.1451 19.8484 19.8484C19.1451 20.5516 18.75 21.5054 18.75 22.5C18.75 24.4125 18.5625 27.2062 18.2625 30" stroke="black" stroke-width="2.5" stroke-linecap="round" stroke-linejoin="round"/>
<path d="M26.25 24.6C26.25 29.0625 26.25 36.5625 24.375 41.25" stroke="black" stroke-width="2.5" stroke-linecap="round" stroke-linejoin="round"/>
<path d="M32.4188 39.4125C32.6438 38.2875 33.225 35.1 33.3563 33.75" stroke="black" stroke-width="2.5" stroke-linecap="round" stroke-linejoin="round"/>
<path d="M3.75 22.5C3.75 18.5647 4.9882 14.7292 7.28921 11.5367C9.59022 8.3442 12.8374 5.95664 16.5707 4.71219C20.3041 3.46774 24.3343 3.42949 28.0906 4.60287C31.8469 5.77625 35.1388 8.10176 37.5 11.25" stroke="black" stroke-width="2.5" stroke-linecap="round" stroke-linejoin="round"/>
<path d="M3.75 30H3.76875" stroke="black" stroke-width="2.5" stroke-linecap="round" stroke-linejoin="round"/>
<path d="M40.875 30C41.25 26.25 41.1206 19.9613 40.875 18.75" stroke="black" stroke-width="2.5" stroke-linecap="round" stroke-linejoin="round"/>
<path d="M9.375 36.5625C10.3125 33.75 11.25 28.125 11.25 22.5C11.2481 21.2229 11.4637 19.9548 11.8875 18.75" stroke="black" stroke-width="2.5" stroke-linecap="round" stroke-linejoin="round"/>
<path d="M16.2188 41.25C16.6125 40.0125 17.0625 38.775 17.2875 37.5" stroke="black" stroke-width="2.5" stroke-linecap="round" stroke-linejoin="round"/>
<path d="M16.875 12.75C18.5857 11.7623 20.5264 11.2425 22.5018 11.2428C24.4772 11.2431 26.4177 11.7636 28.1281 12.7518C29.8386 13.7401 31.2586 15.1613 32.2455 16.8725C33.2324 18.5837 33.7513 20.5246 33.75 22.5V26.25" stroke="black" stroke-width="2.5" stroke-linecap="round" stroke-linejoin="round"/>
</svg>
