<svg width="22" height="24" viewBox="0 0 22 24" fill="none" xmlns="http://www.w3.org/2000/svg">
<path d="M20.433 8.40749C20.3232 8.47156 17.7089 9.82357 17.7089 12.8213C17.8321 16.24 21.008 17.4389 21.0625 17.4389C21.008 17.503 20.583 19.0722 19.3241 20.717C18.325 22.1339 17.2161 23.5625 15.5321 23.5625C13.9303 23.5625 13.3553 22.6182 11.5071 22.6182C9.52229 22.6182 8.96068 23.5625 7.44104 23.5625C5.7571 23.5625 4.56603 22.0574 3.51245 20.6538C2.1437 18.8167 0.980306 15.9338 0.939234 13.1657C0.911555 11.6989 1.21334 10.257 1.97941 9.03233C3.06067 7.32256 4.99103 6.16191 7.09907 6.12363C8.71425 6.07288 10.1518 7.15699 11.1375 7.15699C12.0821 7.15699 13.8482 6.12363 15.8464 6.12363C16.7089 6.12447 19.0089 6.36658 20.433 8.40749ZM11.0009 5.83077C10.7134 4.49124 11.5071 3.15171 12.2464 2.29723C13.191 1.26388 14.683 0.5625 15.9696 0.5625C16.0518 1.90203 15.5312 3.21577 14.6009 4.17258C13.7661 5.20593 12.3285 5.98386 11.0009 5.83077Z" fill="white"/>
</svg>
