<svg width="40" height="41" viewBox="0 0 40 41" fill="none" xmlns="http://www.w3.org/2000/svg">
<circle cx="20" cy="20.3237" r="19.5" stroke="#368E22"/>
<path d="M20.498 16.9755C18.3685 16.9755 16.6498 18.6942 16.6498 20.8237C16.6498 22.9533 18.3685 24.672 20.498 24.672C22.6275 24.672 24.3461 22.9533 24.3461 20.8237C24.3461 18.6942 22.6275 16.9755 20.498 16.9755ZM20.498 23.3248C19.1208 23.3248 17.997 22.2009 17.997 20.8237C17.997 19.4466 19.1208 18.3227 20.498 18.3227C21.8751 18.3227 22.999 19.4466 22.999 20.8237C22.999 22.2009 21.8751 23.3248 20.498 23.3248ZM24.5037 15.921C24.0065 15.921 23.605 16.3226 23.605 16.8198C23.605 17.317 24.0065 17.7185 24.5037 17.7185C25.0009 17.7185 25.4025 17.3189 25.4025 16.8198C25.4026 16.7017 25.3795 16.5848 25.3343 16.4757C25.2892 16.3666 25.223 16.2674 25.1396 16.1839C25.0561 16.1005 24.9569 16.0343 24.8478 15.9892C24.7387 15.944 24.6218 15.9209 24.5037 15.921ZM27.9992 20.8237C27.9992 19.788 28.0085 18.7617 27.9504 17.7279C27.8922 16.5271 27.6183 15.4614 26.7402 14.5833C25.8603 13.7033 24.7964 13.4312 23.5956 13.3731C22.56 13.3149 21.5337 13.3243 20.4999 13.3243C19.4642 13.3243 18.4379 13.3149 17.4041 13.3731C16.2033 13.4312 15.1376 13.7052 14.2595 14.5833C13.3796 15.4632 13.1075 16.5271 13.0493 17.7279C12.9912 18.7636 13.0006 19.7899 13.0006 20.8237C13.0006 21.8576 12.9912 22.8857 13.0493 23.9196C13.1075 25.1204 13.3814 26.1861 14.2595 27.0642C15.1395 27.9442 16.2033 28.2162 17.4041 28.2744C18.4398 28.3326 19.4661 28.3232 20.4999 28.3232C21.5355 28.3232 22.5618 28.3326 23.5956 28.2744C24.7964 28.2162 25.8621 27.9423 26.7402 27.0642C27.6202 26.1842 27.8922 25.1204 27.9504 23.9196C28.0104 22.8857 27.9992 21.8594 27.9992 20.8237ZM26.3481 25.248C26.2111 25.5895 26.046 25.8446 25.7815 26.1073C25.5169 26.3719 25.2636 26.537 24.9221 26.6739C23.9352 27.0661 21.5918 26.9779 20.498 26.9779C19.4041 26.9779 17.0588 27.0661 16.072 26.6758C15.7305 26.5388 15.4753 26.3737 15.2126 26.1092C14.9481 25.8446 14.783 25.5913 14.646 25.2498C14.2558 24.2611 14.3439 21.9176 14.3439 20.8237C14.3439 19.7299 14.2558 17.3845 14.646 16.3976C14.783 16.0561 14.9481 15.801 15.2126 15.5383C15.4772 15.2756 15.7305 15.1086 16.072 14.9717C17.0588 14.5814 19.4041 14.6696 20.498 14.6696C21.5918 14.6696 23.9371 14.5814 24.924 14.9717C25.2655 15.1086 25.5207 15.2737 25.7833 15.5383C26.0479 15.8028 26.213 16.0561 26.35 16.3976C26.7402 17.3845 26.652 19.7299 26.652 20.8237C26.652 21.9176 26.7402 24.2611 26.3481 25.248Z" fill="#368E22"/>
</svg>
