<svg width="40" height="41" viewBox="0 0 40 41" fill="none" xmlns="http://www.w3.org/2000/svg">
<circle cx="20" cy="20.3237" r="19.5" stroke="#368E22"/>
<path d="M13.188 15.6997C14.3964 15.6997 15.376 14.7201 15.376 13.5117C15.376 12.3033 14.3964 11.3237 13.188 11.3237C11.9796 11.3237 11 12.3033 11 13.5117C11 14.7201 11.9796 15.6997 13.188 15.6997Z" fill="#368E22"/>
<path d="M17.4423 17.3571V29.4961H21.2113V23.4931C21.2113 21.9091 21.5093 20.3751 23.4733 20.3751C25.4103 20.3751 25.4343 22.1861 25.4343 23.5931V29.4971H29.2053V22.8401C29.2053 19.5701 28.5013 17.0571 24.6793 17.0571C22.8443 17.0571 21.6143 18.0641 21.1113 19.0171H21.0603V17.3571H17.4423ZM11.3003 17.3571H15.0753V29.4961H11.3003V17.3571Z" fill="#368E22"/>
</svg>
