<svg width="40" height="41" viewBox="0 0 40 41" fill="none" xmlns="http://www.w3.org/2000/svg">
<circle cx="20" cy="20.3237" r="19.5" stroke="#368E22"/>
<path d="M29 14.1055C28.3748 14.3984 27.6945 14.6092 26.9938 14.6913C27.7213 14.2219 28.2661 13.4802 28.526 12.6055C27.8433 13.0466 27.0954 13.356 26.3155 13.5197C25.9895 13.1413 25.5952 12.8397 25.1573 12.634C24.7193 12.4282 24.247 12.3226 23.7699 12.3237C21.8392 12.3237 20.2865 14.0234 20.2865 16.1092C20.2865 16.4021 20.3192 16.695 20.3723 16.9768C17.4814 16.8126 14.9031 15.3126 13.189 13.016C12.8767 13.5954 12.713 14.2552 12.7151 14.9265C12.7151 16.2402 13.33 17.3984 14.2678 18.0797C13.7151 18.056 13.1754 17.891 12.6926 17.5981V17.6447C12.6926 19.4842 13.8898 21.0086 15.4854 21.3592C15.1858 21.4438 14.8776 21.487 14.5681 21.4879C14.3413 21.4879 14.1268 21.4635 13.9102 21.4302C14.3515 22.9302 15.6366 24.0197 17.1668 24.0552C15.9696 25.0737 14.47 25.6728 12.8417 25.6728C12.5496 25.6728 12.2799 25.6617 12 25.6262C13.5445 26.7024 15.3771 27.3237 17.3507 27.3237C23.7576 27.3237 27.2634 21.5589 27.2634 16.5552C27.2634 16.391 27.2634 16.2268 27.2532 16.0626C27.9315 15.5234 28.526 14.8555 29 14.1055Z" fill="#368E22"/>
</svg>
