<svg width="40" height="28" viewBox="0 0 40 28" fill="none" xmlns="http://www.w3.org/2000/svg">
<path d="M37.0645 0.470325H2.93555C1.31688 0.470325 0 1.7872 0 3.40588V24.5941C0 26.2128 1.31688 27.5297 2.93555 27.5297H37.0644C38.6832 27.5297 40 26.2128 40 24.5941V3.40588C40.0001 1.7872 38.6832 0.470325 37.0645 0.470325ZM12.3044 18.089H16.2696C16.7454 18.089 17.131 18.4747 17.131 18.9504C17.131 19.4261 16.7453 19.8117 16.2696 19.8117H12.3044C11.8286 19.8117 11.4431 19.4261 11.4431 18.9504C11.4431 18.4747 11.8287 18.089 12.3044 18.089ZM3.72501 9.4494C3.72501 8.97362 4.11063 8.58808 4.58634 8.58808H9.74635C10.2221 8.58808 10.6077 8.9737 10.6077 9.4494V13.1801C10.6077 13.6559 10.2221 14.0414 9.74635 14.0414H4.58634C4.11056 14.0414 3.72501 13.6558 3.72501 13.1801V9.4494ZM4.58634 18.089H8.55158C9.02736 18.089 9.41291 18.4747 9.41291 18.9504C9.41291 19.4261 9.02728 19.8117 8.55158 19.8117H4.58634C4.11056 19.8117 3.72501 19.4261 3.72501 18.9504C3.72501 18.4747 4.11071 18.089 4.58634 18.089ZM18.7422 23.6419H4.58634C4.11056 23.6419 3.72501 23.2563 3.72501 22.7806C3.72501 22.3049 4.11063 21.9193 4.58634 21.9193H18.7422C19.218 21.9193 19.6036 22.3049 19.6036 22.7806C19.6036 23.2563 19.218 23.6419 18.7422 23.6419ZM23.9877 19.8117H20.0225C19.5467 19.8117 19.1611 19.4261 19.1611 18.9504C19.1611 18.4747 19.5468 18.089 20.0225 18.089H23.9877C24.4635 18.089 24.849 18.4747 24.849 18.9504C24.849 19.4261 24.4635 19.8117 23.9877 19.8117ZM31.7058 19.8117H27.7405C27.2647 19.8117 26.8792 19.4261 26.8792 18.9504C26.8792 18.4747 27.2648 18.089 27.7405 18.089H31.7058C32.1815 18.089 32.5671 18.4747 32.5671 18.9504C32.5671 19.4261 32.1814 19.8117 31.7058 19.8117ZM35.4137 7.22917H26.0615C25.5857 7.22917 25.2001 6.84354 25.2001 6.36784C25.2001 5.89213 25.5858 5.50651 26.0615 5.50651H35.4137C35.8895 5.50651 36.2751 5.89213 36.2751 6.36784C36.2751 6.84354 35.8894 7.22917 35.4137 7.22917Z" fill="#317B22"/>
</svg>
