<svg width="45" height="29" viewBox="0 0 45 29" fill="none" xmlns="http://www.w3.org/2000/svg">
<path d="M41.9274 0.010376H3.07275C1.57069 0.010376 0.353027 1.22804 0.353027 2.7301V25.609C0.353027 27.1111 1.57069 28.3287 3.07275 28.3287H41.9274C43.4295 28.3287 44.6471 27.1111 44.6471 25.609V2.7301C44.6471 1.22804 43.4295 0.010376 41.9274 0.010376Z" fill="url(#paint0_linear_141_327)"/>
<path fill-rule="evenodd" clip-rule="evenodd" d="M12.166 13.8996L12.3633 13.1211C13.121 12.8927 14.6678 12.7889 14.9584 13.609C15.1245 14.0865 14.647 16.0692 14.5536 16.6505L13.8165 16.6609C13.6505 16.4533 13.7854 16.8374 13.6712 16.3287C12.9653 16.9619 11.4601 16.8581 11.5743 15.5813C11.6885 14.3149 12.7889 14.481 13.9826 14.2941C13.9619 13.4844 12.9446 13.7024 12.1556 13.8893L12.166 13.8996ZM17.7197 13.7751C17.0449 13.7751 16.9411 13.6297 16.3494 13.8893C16.4221 14.6263 16.8062 14.3356 17.3356 14.6886C18.3425 15.3529 17.2629 17.4083 14.865 16.5259L14.9999 15.7785C15.6747 15.9135 16.0172 16.0484 16.5363 15.7578C16.6608 14.7093 14.8027 15.3945 15.3217 13.7128C15.602 12.7993 16.8373 12.9239 17.8546 13.0173L17.7093 13.7751H17.7197ZM7.38056 12.1868L8.96879 12.2387L9.13488 14.7301L9.99647 12.737C10.2871 12.0208 10.0899 12.1765 11.9169 12.1972L11.0968 16.6505L10.2041 16.6401L10.692 13.4429L9.37364 16.6609L8.30443 16.6297C8.27329 16.0069 8.22139 13.8166 8.0553 13.4014L7.51551 16.6401L6.58125 16.6297L7.38056 12.1868ZM22.5259 21.6436L22.9619 21.1246C22.0899 21.0104 21.9342 21.2595 21.5397 20.5536L23.5432 20.5329C23.6678 20.3252 23.8754 20.128 23.9792 19.8893C21.6954 19.7336 21.0518 20.3149 20.6885 19.3183H24.3529L24.7577 18.6851L20.2318 18.6643L20.0242 18.1349L24.903 18.1142C25.1833 17.9585 25.1833 17.782 25.256 17.4602L20.6366 17.4498C19.8062 17.4602 19.7543 17.647 19.5985 16.8893H25.4117L25.5985 16.2457L23.8961 16.2249L23.8131 16.6609L22.8373 16.6194L23.4498 12.9965L24.3736 13.1211C24.3736 13.1419 24.3944 13.2145 24.3944 13.2457C24.3944 13.2664 24.4048 13.2976 24.4048 13.3079L24.4567 13.4948C24.7162 13.1834 24.8823 12.955 25.4844 12.9758L25.1729 13.8166C24.9965 14.045 24.4774 13.7855 24.2594 14.4083L25.2768 14.4498C25.3909 13.7958 25.5155 13.5986 25.7024 13.0692L25.7127 12.7578L19.3494 12.7682L19.3287 12.9965C19.6712 12.9965 19.6608 12.9342 19.8581 13.1003L19.7646 13.7128C19.121 13.8685 19.1418 13.4844 19.0795 14.3252C19.1729 14.481 19.0588 14.3979 19.256 14.4498L19.6608 14.4602C20.3148 12.3322 22.2664 12.7993 22.7127 13.4637C22.9515 13.8166 23.1902 14.9792 22.5985 15.0727L20.6159 15.0934C20.7093 16.1419 21.9134 15.9239 22.692 15.6643C22.6608 16.1003 22.692 16.4533 22.2871 16.5986C21.9653 16.7128 21.2906 16.6817 20.9376 16.5986C20.0657 16.4014 19.692 15.9654 19.6297 15.0208L19.256 15.0104C18.9134 14.8547 19.1833 15.0104 19.0069 14.5848C18.8615 15.4567 18.4671 16.0173 19.5466 15.8927C19.4844 16.4118 19.557 16.5882 18.9861 16.6505C17.3252 16.8477 17.865 15.737 18.1349 14.2526C18.5605 11.8858 18.2283 12.1765 19.4325 12.1972L25.6193 12.2076L25.4947 11.564L19.5155 11.5432L19.6297 11.0242L25.2871 10.9931C25.1418 10.1107 25.1107 10.3287 23.0553 10.3287C22.0069 10.3287 20.9688 10.3287 19.9203 10.3287C20.1383 9.57092 20.0242 9.77854 22.0588 9.77854H24.8096L24.519 9.12456L20.5328 9.11418L20.8027 8.57438L24.1349 8.55362C23.7093 7.68165 23.73 7.93079 21.3736 7.88926C21.6747 7.14186 22.2041 7.32871 23.128 7.32871C22.8684 6.91348 22.6816 6.94463 22.5259 6.59169C22.1418 6.39445 21.7992 6.04151 21.4152 5.77162C18.4774 3.69549 14.4913 3.4775 11.2941 5.03459C8.41862 6.4256 5.59509 9.64359 5.62623 14.0969C5.66775 20.4602 11.2525 25.1003 17.5743 24.0208C20.5432 23.5121 21.2906 22.3079 22.5155 21.6332L22.5259 21.6436Z" fill="#E41D2C"/>
<path fill-rule="evenodd" clip-rule="evenodd" d="M29.3045 13.09C32.5225 12.436 31.9931 14.0242 31.7336 15.3114C31.6505 15.6955 31.6505 16.4533 31.3495 16.6609C31.2768 16.6609 30.8512 16.6713 30.8097 16.6505C30.519 16.5363 30.654 16.8789 30.6125 16.3495C29.7405 16.8477 28.3599 16.9619 28.526 15.5709C28.6609 14.4602 29.782 14.2837 30.9239 14.3356C30.8824 13.5156 30.1349 13.6505 29.0969 13.91L29.3149 13.09H29.3045ZM32.481 12.9965L33.3426 13.0069C33.3529 13.0277 33.3633 13.0588 33.3633 13.0796L33.4983 13.4637C33.654 13.2249 33.9446 13.0173 34.4014 13.0069L34.2768 13.7439L33.8512 13.91C33 14.1903 33.0519 15.2595 32.8235 16.6609H31.8581L32.481 12.9965ZM37.0588 12.2076H37.9412L37.1834 16.6713C36.1972 16.6817 36.436 16.7336 36.1246 16.3599C35.481 17.3149 33.5502 16.4325 34.1419 14.4602C34.5779 12.9862 36.0519 12.5917 36.7785 13.4637L37.0692 12.1972L37.0588 12.2076ZM22.5363 6.60207C22.692 6.95502 22.8893 6.92387 23.1384 7.3391C22.2145 7.3391 21.6851 7.14187 21.3841 7.89965C23.7405 7.94117 23.7197 7.69204 24.1453 8.56401L20.8132 8.58477L20.5433 9.12457L24.5294 9.13495L24.8201 9.78893C23.9066 9.78893 22.9931 9.78893 22.0692 9.78893C20.045 9.78893 20.1488 9.59169 19.9308 10.3391H23.0657C25.1211 10.3391 25.1523 10.1211 25.2976 11.0035L19.6401 11.0346L19.526 11.5536L25.5052 11.5744L25.6298 12.218L19.4429 12.2076L19.3599 12.7889L25.7232 12.7785L25.7128 13.09C26.1903 12.6332 26.1073 12.3945 27 12.1349C27.737 11.9273 28.2042 12.083 28.9308 12.2388L28.7751 13.1938C27.5294 12.8201 26.7197 12.9135 26.4291 14.2007C26.1073 15.5813 27.1972 16.1003 28.3495 15.5502C28.2457 16.5571 28.0796 16.8062 26.8962 16.6505C26.0761 16.5467 25.827 16.1522 25.4637 15.6644H23.9792L23.8962 16.2353L25.5986 16.2561L25.4118 16.8997H19.5986C19.7543 17.6574 19.8062 17.4706 20.6367 17.4602L25.2561 17.4706C25.173 17.782 25.1834 17.9689 24.9031 18.1246L20.0242 18.1453L20.2318 18.6747L24.7578 18.6955L24.3529 19.3287H20.6886C21.0519 20.3149 21.6955 19.7439 23.9792 19.8997C23.8754 20.1384 23.6678 20.3356 23.5433 20.5432L21.5398 20.564C21.9239 21.2595 22.09 21.0208 22.9619 21.1349L22.526 21.654C24.0104 22.7439 25.1626 23.6574 27.5606 24.0727C29.7405 24.4464 32.0138 24.0311 33.7682 23.1695C41.3668 19.4221 41.1592 8.6263 33.7059 5.05536C31.0277 3.77855 27.4775 3.66436 24.7059 5.11765C23.3668 5.81315 23.045 6.31142 22.5467 6.61245L22.5363 6.60207Z" fill="#F8B02B"/>
<path fill-rule="evenodd" clip-rule="evenodd" d="M6.5813 16.6401L7.51555 16.6505L8.05535 13.4117C8.22144 13.827 8.27334 16.0173 8.30448 16.6401L9.37369 16.6713L10.692 13.4533L10.2041 16.6505L11.0969 16.6609L11.9169 12.2076C10.0899 12.1868 10.2872 12.0311 9.99652 12.7474L9.13493 14.7405L8.96884 12.2491L7.38061 12.1972L6.5813 16.6401Z" fill="#FEFEFE"/>
<path fill-rule="evenodd" clip-rule="evenodd" d="M35.5017 15.8201C34.7232 15.0208 35.3876 13.692 36.1142 13.8685C36.8305 14.045 36.6955 15.7993 35.5017 15.8201ZM36.7682 13.4637C36.0415 12.5917 34.5779 12.9862 34.1315 14.4602C33.5398 16.4221 35.4706 17.3149 36.1142 16.3599C36.4256 16.7336 36.1869 16.6713 37.173 16.6713L37.9308 12.2076H37.0485L36.7578 13.474L36.7682 13.4637Z" fill="#FEFEFE"/>
<path fill-rule="evenodd" clip-rule="evenodd" d="M29.6366 15.8304C29.4913 15.1349 30.1349 14.865 30.7474 14.9896C30.7785 15.6955 30.2802 16.0796 29.6366 15.8304ZM29.3045 13.1003L29.0865 13.9204C30.1245 13.6713 30.8823 13.5363 30.9135 14.346C29.7716 14.2941 28.6505 14.4706 28.5155 15.5813C28.3391 16.9723 29.7301 16.8581 30.602 16.3598C30.6436 16.8893 30.5086 16.5467 30.7993 16.6609C30.8408 16.6816 31.2664 16.6713 31.3391 16.6713C31.6505 16.474 31.6505 15.7059 31.7232 15.3218C31.993 14.0242 32.5121 12.4463 29.2941 13.1003H29.3045Z" fill="#FEFEFE"/>
<path fill-rule="evenodd" clip-rule="evenodd" d="M13.8168 14.9585C13.8375 15.3114 13.7752 15.5813 13.5469 15.7578C13.3911 15.872 12.924 16.0069 12.7372 15.8304C12.1559 15.301 13.2458 14.9481 13.8064 14.9585H13.8168ZM12.1662 13.8996C12.9552 13.7128 13.9725 13.4948 13.9932 14.3045C12.7995 14.4913 11.6991 14.3253 11.5849 15.5917C11.4604 16.8685 12.9655 16.9723 13.6818 16.3391C13.796 16.8477 13.661 16.4637 13.8271 16.6713L14.5642 16.6609C14.6576 16.0692 15.1351 14.0969 14.969 13.6194C14.6783 12.7889 13.142 12.8927 12.3738 13.1315L12.1766 13.91L12.1662 13.8996Z" fill="#FEFEFE"/>
<path fill-rule="evenodd" clip-rule="evenodd" d="M20.7718 14.4186C20.9067 13.8892 21.1351 13.6712 21.7475 13.7543C21.9655 14.0657 21.9655 13.9723 22.007 14.4186H20.7718ZM19.6714 14.4705L19.6299 15.0311C19.6922 15.9757 20.0762 16.4013 20.9378 16.609C21.2908 16.692 21.9655 16.7231 22.2873 16.609C22.6922 16.474 22.661 16.1107 22.6922 15.6747C21.9136 15.9342 20.7095 16.1522 20.616 15.1038L22.5987 15.083C23.1904 14.9896 22.9517 13.8373 22.7129 13.474C22.2666 12.8096 20.315 12.3425 19.661 14.4705H19.6714Z" fill="#FEFEFE"/>
<path fill-rule="evenodd" clip-rule="evenodd" d="M25.713 13.0899C25.5261 13.6194 25.4015 13.8166 25.2874 14.4706V15.0415L25.4638 15.6747C25.8271 16.1626 26.0763 16.5571 26.8964 16.6609C28.0797 16.8166 28.2458 16.5675 28.3496 15.5605C27.187 16.1107 26.1074 15.5917 26.4292 14.211C26.7303 12.9135 27.5399 12.8304 28.7752 13.2041L28.931 12.2491C28.2043 12.1038 27.7372 11.9481 27.0002 12.1453C26.1074 12.3944 26.1905 12.6436 25.713 13.1003V13.0899Z" fill="#FEFEFE"/>
<path fill-rule="evenodd" clip-rule="evenodd" d="M17.8546 13.0173C16.8373 12.9342 15.602 12.7993 15.3217 13.7128C14.8027 15.3944 16.6505 14.7093 16.5363 15.7577C16.0069 16.0484 15.6747 15.9134 14.9999 15.7785L14.865 16.5259C17.2629 17.4083 18.3321 15.3633 17.3356 14.6885C16.8062 14.3356 16.4221 14.6366 16.3494 13.8892C16.9411 13.6193 17.0345 13.775 17.7197 13.775L17.865 13.0173H17.8546Z" fill="#FEFEFE"/>
<path fill-rule="evenodd" clip-rule="evenodd" d="M19.0173 14.5951L19.09 14.346C19.1523 13.5052 19.1315 13.8892 19.7751 13.7335L19.8686 13.1211C19.6713 12.955 19.6817 13.0173 19.3391 13.0173L19.3599 12.7889L19.4429 12.2076C18.2388 12.1868 18.571 11.8962 18.1454 14.2629C17.8755 15.7474 17.3357 16.8581 18.9966 16.6609C19.5571 16.5986 19.4948 16.4221 19.5571 15.9031C18.4879 16.0277 18.8824 15.4671 19.0173 14.5951Z" fill="#FEFEFE"/>
<path fill-rule="evenodd" clip-rule="evenodd" d="M23.8963 16.2457L23.9794 15.6747L24.0832 15.0519L24.27 14.4291C24.4984 13.8062 25.0175 14.0657 25.1835 13.8374L25.495 12.9965C24.8825 12.9758 24.7164 13.2041 24.4673 13.5156L24.4154 13.3287C24.4154 13.3183 24.405 13.2872 24.405 13.2664C24.405 13.2457 24.3842 13.1626 24.3842 13.1419L23.4604 13.0173L22.8479 16.6401L23.8237 16.6817L23.9067 16.2457H23.8963Z" fill="#FEFEFE"/>
<path fill-rule="evenodd" clip-rule="evenodd" d="M31.8582 16.6609H32.8236C33.0519 15.2595 33 14.1903 33.8512 13.91L34.2768 13.7439L34.4014 13.0069C33.9447 13.0173 33.654 13.2249 33.4983 13.4636L33.3633 13.0796C33.353 13.0588 33.353 13.0276 33.3426 13.0069L32.481 12.9965L31.8582 16.6609Z" fill="#FEFEFE"/>
<path fill-rule="evenodd" clip-rule="evenodd" d="M35.5017 15.82C36.7059 15.7993 36.8408 14.0449 36.1142 13.8685C35.3771 13.692 34.7232 15.0207 35.5017 15.82Z" fill="#F8B02B"/>
<path fill-rule="evenodd" clip-rule="evenodd" d="M13.8166 14.9584C13.256 14.9481 12.1661 15.301 12.7474 15.8304C12.9342 15.9965 13.4014 15.8616 13.5571 15.7578C13.7854 15.5917 13.8373 15.3114 13.827 14.9584H13.8166Z" fill="#E41D2C"/>
<path fill-rule="evenodd" clip-rule="evenodd" d="M23.9795 15.6644L25.4639 15.6747L25.2875 15.0415H24.0833L23.9795 15.6644Z" fill="#E41D2C"/>
<path fill-rule="evenodd" clip-rule="evenodd" d="M29.6368 15.8304C30.2907 16.0692 30.7786 15.6955 30.7475 14.9896C30.1246 14.8754 29.4914 15.1453 29.6368 15.8304Z" fill="#F8B02B"/>
<path fill-rule="evenodd" clip-rule="evenodd" d="M24.083 15.0415H25.2872V14.4706L24.2699 14.4187L24.083 15.0415Z" fill="#F8B02B"/>
<path fill-rule="evenodd" clip-rule="evenodd" d="M20.7717 14.4187H22.007C21.9759 13.9827 21.9655 14.0657 21.7475 13.7543C21.1351 13.6713 20.9067 13.8893 20.7717 14.4187Z" fill="#E41D2C"/>
<path fill-rule="evenodd" clip-rule="evenodd" d="M19.0173 14.5951C19.1938 15.0207 18.9239 14.865 19.2665 15.0207L19.6402 15.0311L19.6817 14.4706L19.2768 14.4602C19.0692 14.4187 19.1834 14.4913 19.1004 14.3356L19.0277 14.5848L19.0173 14.5951Z" fill="#F8B02B"/>
<defs>
<linearGradient id="paint0_linear_141_327" x1="22.4997" y1="0.0143206" x2="22.4997" y2="28.3348" gradientUnits="userSpaceOnUse">
<stop stop-color="#1D4C80"/>
<stop offset="1" stop-color="#173A63"/>
</linearGradient>
</defs>
</svg>
