<svg width="131" height="131" viewBox="0 0 131 131" fill="none" xmlns="http://www.w3.org/2000/svg">
<path d="M124.034 76.3496L123.995 76.3686C119.505 79.8122 117.603 85.6721 119.201 91.0948L119.22 91.1329C121.769 99.7518 115.453 108.446 106.472 108.675H106.434C100.764 108.827 95.7796 112.442 93.8959 117.788V117.807C90.8896 126.293 80.6539 129.622 73.2527 124.504C68.657 121.366 62.5816 121.202 57.7463 124.504H57.7274C50.3264 129.603 40.0903 126.293 37.1031 117.788C35.2026 112.428 30.2251 108.827 24.565 108.675H24.5268C15.5467 108.446 9.22977 99.7516 11.7794 91.1327L11.7983 91.0946C13.3962 85.6719 11.4936 79.8119 7.0038 76.3683L6.96567 76.3494C-0.169222 70.8696 -0.169222 60.1392 6.96567 54.6597L7.0038 54.6407C11.4936 51.1971 13.3962 45.3369 11.7794 39.9145V39.8764C9.21058 31.2578 15.5464 22.5626 24.5268 22.3344H24.565C30.2156 22.1822 35.2195 18.5671 37.1031 13.2209V13.202C40.09 4.71644 50.3264 1.38694 57.7274 6.50515H57.7463C62.4076 9.72054 68.572 9.72054 73.2527 6.50515C80.7284 1.34268 90.9072 4.76736 93.8959 13.202V13.2209C95.7796 18.5482 100.764 22.1824 106.434 22.3344H106.472C115.453 22.5626 121.769 31.2578 119.22 39.8764L119.201 39.9145C117.603 45.3369 119.505 51.1971 123.995 54.6407L124.034 54.6597C131.169 60.1392 131.169 70.8699 124.034 76.3496Z" fill="#317B22"/>
<path d="M65.5002 100.941C85.0737 100.941 100.941 85.0734 100.941 65.5C100.941 45.9265 85.0737 30.0591 65.5002 30.0591C45.9267 30.0591 30.0593 45.9265 30.0593 65.5C30.0593 85.0734 45.9267 100.941 65.5002 100.941Z" fill="#98BD90"/>
<path opacity="0.1" d="M92.7119 42.8139C86.5818 37.771 78.7389 34.7398 70.1891 34.7398C50.6159 34.7398 34.7398 50.6159 34.7398 70.1891C34.7398 78.7389 37.771 86.5818 42.8137 92.7119C35.0251 86.2149 30.064 76.4418 30.064 65.4997C30.064 45.9262 45.9265 30.064 65.4997 30.064C76.4418 30.064 86.2149 35.0251 92.7119 42.8139Z" fill="black"/>
<path d="M57.0682 79.3744L49.231 71.0365C47.1785 68.8525 47.2844 65.4186 49.4676 63.3661C51.6509 61.311 55.0863 61.4213 57.137 63.6038L60.8782 67.5824L76.7806 49.4066C78.7518 47.151 82.1803 46.9222 84.4377 48.8962C86.6934 50.8702 86.9211 54.2976 84.9482 56.5533L65.105 79.2314C62.9911 81.6449 59.2604 81.7081 57.0682 79.3744Z" fill="white"/>
</svg>
